<?xml version="1.0" encoding="UTF-8" standalone="no"?>
<!-- Created with Inkscape (http://www.inkscape.org/) -->

<svg
   width="210mm"
   height="297mm"
   viewBox="0 0 210 297"
   version="1.1"
   id="svg5"
   inkscape:version="1.1 (c68e22c387, 2021-05-23)"
   sodipodi:docname="bender.svg"
   inkscape:export-filename="C:\Users\gabri\OneDrive\Escritorio\green.png"
   inkscape:export-xdpi="96"
   inkscape:export-ydpi="96"
   xmlns:inkscape="http://www.inkscape.org/namespaces/inkscape"
   xmlns:sodipodi="http://sodipodi.sourceforge.net/DTD/sodipodi-0.dtd"
   xmlns="http://www.w3.org/2000/svg"
   xmlns:svg="http://www.w3.org/2000/svg">
  <sodipodi:namedview
     id="namedview7"
     pagecolor="#ffffff"
     bordercolor="#666666"
     borderopacity="1.0"
     inkscape:pageshadow="2"
     inkscape:pageopacity="0.0"
     inkscape:pagecheckerboard="0"
     inkscape:document-units="mm"
     showgrid="false"
     inkscape:zoom="0.32756266"
     inkscape:cx="186.22391"
     inkscape:cy="612.09663"
     inkscape:window-width="1366"
     inkscape:window-height="705"
     inkscape:window-x="-8"
     inkscape:window-y="-8"
     inkscape:window-maximized="1"
     inkscape:current-layer="layer1"
     inkscape:snap-intersection-paths="false"
     inkscape:snap-midpoints="false"
     inkscape:snap-smooth-nodes="false"
     inkscape:snap-bbox="false"
     inkscape:bbox-nodes="false"
     inkscape:bbox-paths="false"
     inkscape:snap-bbox-midpoints="false"
     inkscape:object-nodes="false"
     inkscape:snap-others="false"
     inkscape:snap-nodes="false" />
  <defs
     id="defs2" />
  <g
     inkscape:label="Capa 1"
     inkscape:groupmode="layer"
     id="layer1">
    <ellipse
       style="fill:#ff00ff;stroke:#000000;stroke-width:2.117;stroke-opacity:1;stroke-miterlimit:4;stroke-dasharray:none"
       id="path1146"
       cx="49.404808"
       cy="43.122124"
       rx="35.125999"
       ry="35.125961"
       inkscape:export-filename="C:\Users\gabri\OneDrive\Escritorio\TP-2 Interfaces\fichas\violet.png"
       inkscape:export-xdpi="96"
       inkscape:export-ydpi="96" />
    <rect
       style="fill:#000000;fill-opacity:1;stroke:#000000;stroke-width:2.93719;stroke-miterlimit:4;stroke-dasharray:none;stroke-opacity:1"
       id="rect3153"
       width="7.7175426"
       height="66.903358"
       x="45.546036"
       y="9.7061415"
       inkscape:export-filename="C:\Users\gabri\OneDrive\Escritorio\TP-2 Interfaces\fichas\violet.png"
       inkscape:export-xdpi="96"
       inkscape:export-ydpi="96" />
    <rect
       style="fill:#000000;fill-opacity:1;stroke:#000000;stroke-width:2.93719;stroke-miterlimit:4;stroke-dasharray:none;stroke-opacity:0.97674417"
       id="rect3153-2"
       width="7.7175426"
       height="66.903358"
       x="39.205296"
       y="-82.907104"
       transform="rotate(90.067296)"
       inkscape:export-filename="C:\Users\gabri\OneDrive\Escritorio\TP-2 Interfaces\fichas\violet.png"
       inkscape:export-xdpi="96"
       inkscape:export-ydpi="96" />
    <rect
       style="fill:#000000;fill-opacity:1;stroke:#000000;stroke-width:2.93719;stroke-miterlimit:4;stroke-dasharray:none;stroke-opacity:1"
       id="rect3153-2-5"
       width="7.7175426"
       height="66.903358"
       x="60.481308"
       y="-40.195065"
       transform="rotate(46.864654)"
       inkscape:export-filename="C:\Users\gabri\OneDrive\Escritorio\TP-2 Interfaces\fichas\violet.png"
       inkscape:export-xdpi="96"
       inkscape:export-ydpi="96" />
    <rect
       style="fill:#000000;fill-opacity:1;stroke:#000000;stroke-width:2.93719;stroke-miterlimit:4;stroke-dasharray:none;stroke-opacity:1"
       id="rect3153-2-5-8"
       width="7.7175426"
       height="66.903358"
       x="-7.8635068"
       y="-99.151962"
       transform="rotate(134.08941)"
       inkscape:export-filename="C:\Users\gabri\OneDrive\Escritorio\TP-2 Interfaces\fichas\violet.png"
       inkscape:export-xdpi="96"
       inkscape:export-ydpi="96" />
    <circle
       style="fill:#ff00ff;stroke:#000000;stroke-width:2.373;stroke-miterlimit:4;stroke-dasharray:none;stroke-opacity:1"
       id="path1146-72"
       cx="49.404808"
       cy="43.122124"
       r="26.916365"
       inkscape:export-filename="C:\Users\gabri\OneDrive\Escritorio\TP-2 Interfaces\fichas\violet.png"
       inkscape:export-xdpi="96"
       inkscape:export-ydpi="96" />
    <path
       style="fill:#000000;stroke-width:0.275593;stroke:#000000;stroke-opacity:1;fill-opacity:1"
       d="m 42.621942,65.859516 c -2.474075,-0.319632 -4.407751,-0.990257 -5.305685,-1.840086 -0.67105,-0.635096 -0.757955,-0.916813 -0.757955,-2.45697 0,-1.963795 0.493765,-2.733944 1.937953,-3.022727 l 0.818247,-0.163617 V 55.549833 52.723552 L 38.005307,52.397315 C 36.114248,51.926081 35.455822,51.42246 35.455822,50.447246 V 49.6269 h -1.748181 c -2.332916,0 -3.907115,-0.812589 -4.783258,-2.469076 -0.563786,-1.065924 -0.634681,-1.581425 -0.634681,-4.61488 0,-3.908473 0.250045,-4.670142 1.868287,-5.691033 0.564147,-0.3559 2.234399,-1.068251 3.711673,-1.583004 l 2.685948,-0.935914 0.0014,-1.973301 c 0.0017,-2.397721 0.69838,-4.778496 1.916474,-6.548586 1.084188,-1.575504 3.707795,-3.562554 5.574457,-4.221942 0.927489,-0.32763 1.536683,-0.755215 1.891074,-1.327315 0.287555,-0.464191 0.8331,-1.010008 1.212336,-1.212926 0.573192,-0.306702 0.720272,-0.640823 0.871883,-1.980567 0.100317,-0.886394 0.302545,-1.611625 0.449447,-1.611625 0.164601,0 0.191936,0.647268 0.07125,1.686899 -0.222645,1.917923 -0.05073,2.162584 1.519798,2.162584 1.554892,0 1.716254,-0.23201 1.498671,-2.154802 -0.134495,-1.188513 -0.09886,-1.694681 0.119453,-1.694681 0.171175,0 0.311223,0.356514 0.311223,0.792252 0,1.560212 0.322045,2.447226 1.000784,2.756416 0.36785,0.167573 0.914114,0.720338 1.213919,1.228367 0.392737,0.665505 0.872019,1.019426 1.714681,1.266194 2.748707,0.804936 5.451662,3.209023 6.770159,6.021578 l 0.738679,1.575704 0.07938,16.030229 0.07938,16.030227 -0.860883,0.980304 c -1.004639,1.143989 -3.562962,2.462539 -5.912703,3.047377 -3.640309,0.906059 -10.044846,1.210228 -14.194427,0.674137 z m 13.477244,-1.616087 c 2.584772,-0.640767 5.393752,-2.011487 5.991623,-2.923767 0.331359,-0.505619 0.381059,-3.068021 0.315629,-16.273483 l -0.07771,-15.673371 -0.726304,-1.548683 c -0.997055,-2.126018 -2.454516,-3.649726 -4.43972,-4.641551 -1.889647,-0.944082 -2.529738,-1.004471 -4.455575,-0.420365 -1.819748,0.551932 -3.842016,0.503175 -5.675307,-0.136832 l -1.515911,-0.529206 -1.715275,0.795851 c -2.205376,1.023249 -4.279674,2.97264 -5.230376,4.915425 -0.608932,1.244364 -0.771903,2.014426 -0.861946,4.072791 l -0.111039,2.538291 1.616548,0.370582 c 2.390728,0.548055 12.612767,0.474361 14.973998,-0.107953 2.015351,-0.497015 2.5957,-0.337459 3.906238,1.073955 1.399979,1.507729 1.61628,2.290469 1.61628,5.848752 0,1.816396 -0.13163,3.651623 -0.292523,4.078282 -0.466573,1.237313 -1.898658,2.519077 -3.551962,3.179116 -1.447992,0.578073 -2.007986,0.616101 -10.435343,0.708628 l -8.905246,0.09777 0.0854,0.599416 c 0.05924,0.415834 0.423058,0.720588 1.187885,0.99506 1.707088,0.612616 10.023183,0.558873 15.190206,-0.09817 4.127894,-0.524905 4.17373,-0.524817 5.089219,0.0098 1.404333,0.820015 1.98412,2.051549 2.126918,4.517852 0.150725,2.603117 -0.216406,3.830009 -1.477275,4.936852 -1.13853,0.999447 -2.984467,1.566556 -6.3212,1.942004 -5.640003,0.634611 -11.831105,0.07279 -13.513906,-1.22634 -0.513573,-0.396485 -0.516818,-0.439123 -0.06039,-0.793826 0.624971,-0.485684 0.617863,-1.002994 -0.01378,-1.002994 -0.829526,0 -1.157604,0.592379 -1.157604,2.090165 0,1.572793 0.310715,1.930807 2.217978,2.555603 3.125283,1.023804 12.180343,1.051935 16.22043,0.05039 z m -6.86236,-3.593894 V 59.547271 H 46.64097 c -1.42771,0 -2.792032,-0.07527 -3.031818,-0.167265 -0.353144,-0.135488 -0.43597,0.04391 -0.43597,0.944276 0,1.33507 0.0427,1.352025 3.514154,1.395551 l 2.54949,0.03196 z m 5.167867,0.513729 c 1.27237,-0.243777 1.447013,-0.358026 1.447013,-0.946615 0,-0.368157 0.124026,-0.669378 0.275616,-0.669378 0.151591,0 0.275617,0.24801 0.275617,0.551132 0,0.661273 0.07302,0.670022 1.111508,0.133118 0.759034,-0.392437 1.84227,-1.956397 1.554393,-2.244216 -0.07198,-0.07201 -0.784421,0.06309 -1.583102,0.300236 -0.798692,0.237138 -1.513756,0.369581 -1.58903,0.294313 -0.196873,-0.196828 -0.07459,-0.261506 1.608718,-0.850476 l 1.515901,-0.53042 0.08334,-1.444721 c 0.08886,-1.54108 0.04365,-1.60578 -0.804921,-1.151727 -0.30117,0.161145 -0.758117,0.245565 -1.015462,0.187596 -0.322036,-0.07254 -0.145715,-0.24538 0.565692,-0.554493 0.568463,-0.247006 1.029629,-0.548434 1.024806,-0.669837 -0.02396,-0.603757 -1.4447,-1.736349 -2.178077,-1.736349 -0.188321,0 -0.293742,0.98894 -0.293742,2.755658 0,1.653396 -0.110245,2.75566 -0.275617,2.75566 -0.165518,0 -0.275616,-1.109563 -0.275616,-2.777555 v -2.777553 l -0.757961,0.149241 c -0.416873,0.08208 -1.378093,0.221395 -2.136055,0.309582 -3.400527,0.395651 -3.169631,0.254973 -3.169631,1.931116 0,1.068939 0.09813,1.464007 0.344525,1.387471 0.189488,-0.05886 1.336758,-0.186351 2.54949,-0.283326 1.574029,-0.125868 2.120793,-0.09141 1.910815,0.120395 -0.161778,0.163193 -1.309049,0.374965 -2.54949,0.470601 l -2.25534,0.173884 v 1.423463 1.423461 l 1.722629,-0.116443 c 1.196345,-0.08087 1.638417,-0.02815 1.447002,0.172559 -0.15159,0.158949 -0.895759,0.327441 -1.65372,0.374422 l -1.378093,0.08543 -0.08584,1.193098 -0.08584,1.193096 1.601728,-0.177592 c 0.880956,-0.09767 2.252893,-0.302348 3.048741,-0.454826 z m -0.206707,-2.44269 c 0,-0.151562 0.255376,-0.275566 0.567505,-0.275566 0.312128,0 0.490855,0.124004 0.397163,0.275566 -0.09365,0.151561 -0.349068,0.275566 -0.567504,0.275566 -0.218448,0 -0.397164,-0.124005 -0.397164,-0.275566 z m -11.576044,1.686108 c 0,-1.035605 -0.03887,-1.079332 -1.22453,-1.37783 -1.641116,-0.413155 -1.57626,-0.444942 -1.479405,0.725094 0.08045,0.971879 0.15935,1.052551 1.325835,1.355652 0.68216,0.177254 1.271298,0.33226 1.309195,0.344457 0.0379,0.01221 0.06891,-0.45912 0.06891,-1.047373 z m 6.614884,-2.788372 v -1.377829 l -2.687298,-0.0017 c -2.575314,-0.0017 -5.177178,-0.293065 -6.201451,-0.694859 -0.420196,-0.164832 -0.482335,-0.01212 -0.482335,1.185391 v 1.374597 l 1.22453,0.308282 c 0.673491,0.169552 1.293637,0.308278 1.3781,0.308278 0.08446,5.7e-5 0.15357,-0.433958 0.15357,-0.964423 0,-0.530464 0.124029,-0.964481 0.27562,-0.964481 0.151591,0 0.27562,0.413349 0.27562,0.918553 0,0.505205 0.08268,1.001224 0.183745,1.102263 0.101057,0.101037 1.465378,0.183712 3.031823,0.183712 h 2.848076 z m 0,-3.482956 v -1.553997 l -1.447013,0.173773 c -0.795848,0.09557 -2.16017,0.174848 -3.031813,0.176166 -1.57663,0.0025 -1.584818,0.0067 -1.584818,0.829092 0,0.454684 -0.124029,0.826697 -0.27562,0.826697 -0.151591,0 -0.27562,-0.372013 -0.27562,-0.826697 0,-0.757318 -0.07907,-0.826698 -0.94213,-0.826698 -0.518169,0 -1.138313,-0.07527 -1.3781,-0.167265 -0.353097,-0.135468 -0.43597,0.04381 -0.43597,0.94311 0,1.01126 0.07996,1.13551 0.895765,1.391953 1.408879,0.442872 2.067461,0.510309 5.374586,0.550335 l 3.100733,0.03753 z m 4.740879,-5.920236 c 2.031248,-0.430453 3.452395,-1.210489 4.10034,-2.250582 0.491491,-0.788953 0.542421,-1.280872 0.471522,-4.554927 l -0.07948,-3.670454 -1.255223,-1.18501 -1.255223,-1.185009 -1.914409,0.426989 c -2.752446,0.613905 -12.807219,0.61551 -15.242955,0.0024 l -1.752508,-0.441099 -2.933033,0.979777 c -2.14292,0.71584 -3.174337,1.21997 -3.828797,1.871416 l -0.895765,0.89164 v 3.348031 c 0,3.770858 0.274156,4.645179 1.736006,5.536346 0.833324,0.508008 1.452466,0.537973 11.135664,0.538946 6.538663,5.51e-4 10.782426,-0.111103 11.713854,-0.308488 z M 32.082941,46.991005 c -0.414971,-0.225116 -0.942093,-0.772014 -1.171385,-1.215328 -0.565944,-1.094201 -0.565175,-4.983133 0.0011,-6.078168 0.823939,-1.593035 1.164867,-1.644376 10.919415,-1.644376 8.40741,0 8.947278,0.03047 10.057255,0.567696 1.556507,0.753347 2.308541,2.261931 2.308541,4.630959 0,2.014486 -0.503085,3.162339 -1.644699,3.752571 -1.186386,0.613385 -19.336863,0.601544 -20.47034,-0.01336 z m 2.529015,-1.192781 c -1.157667,-2.220596 -0.932687,-4.679869 0.579563,-6.335243 l 0.784467,-0.858716 h -1.659384 c -1.466563,0 -1.753002,0.0936 -2.465043,0.8055 -0.773115,0.772962 -0.805657,0.907397 -0.805657,3.327988 0,2.420593 0.03254,2.555025 0.805657,3.327987 0.654939,0.654808 1.040829,0.805501 2.062726,0.805501 h 1.25707 z m 8.384568,0.564803 c 0.426218,-0.470874 0.427224,-0.586689 0.0137,-1.576194 -0.430866,-1.03101 -0.423876,-2.680526 0.01591,-3.749772 0.142631,-0.346787 -0.172527,-0.704374 -1.275064,-1.446721 -1.283974,-0.864508 -1.672769,-0.986075 -3.153662,-0.986075 -2.004138,0 -2.929261,0.576906 -3.721385,2.32065 -0.625776,1.377554 -0.656656,2.612186 -0.09872,3.94724 0.808107,1.933689 0.956537,1.999086 4.537221,1.999086 2.781273,0 3.284927,-0.06952 3.682021,-0.508214 z m -4.233262,-3.349708 v -1.102264 h 1.10248 1.10248 v 1.102264 1.102264 h -1.10248 -1.10248 z m 14.077819,3.052421 c 0.739731,-0.739585 0.805661,-0.9662 0.805661,-2.769344 0,-3.226545 -1.244826,-4.688046 -3.996492,-4.692102 -2.036695,-0.003 -5.802593,1.73015 -6.19313,2.850217 -0.398483,1.142865 -0.353692,2.236301 0.140001,3.417644 0.818374,1.958261 0.917972,1.999086 4.876764,1.999086 h 3.561545 z m -2.501779,-3.052421 v -1.102264 h 1.102477 1.102487 v 1.102264 1.102264 h -1.102487 -1.102477 z m -5.06879,-4.355261 c -0.69876,-0.04619 -1.851912,-0.04619 -2.562566,0 l -1.292092,0.08399 1.085378,0.719339 1.08538,0.719339 1.477183,-0.719339 1.47718,-0.719339 z M 53.218379,22.04688 c 1.105154,-0.537914 1.140354,-0.890264 0.194645,-1.948485 -0.781213,-0.874153 -0.856779,-0.898788 -1.757861,-0.573016 -1.153906,0.417172 -2.276425,0.435733 -2.998113,0.04958 -0.752336,-0.40256 -1.504255,-0.101839 -2.204797,0.88179 -0.503565,0.707056 -0.536108,0.890165 -0.213874,1.203548 0.991659,0.964429 5.30231,1.203175 6.98,0.386587 z"
       id="path3942"
       inkscape:export-filename="C:\Users\gabri\OneDrive\Escritorio\TP-2 Interfaces\fichas\violet.png"
       inkscape:export-xdpi="96"
       inkscape:export-ydpi="96" />
    <ellipse
       style="fill:#ff0000;stroke:#000000;stroke-width:2.117;stroke-miterlimit:4;stroke-dasharray:none;stroke-opacity:1"
       id="path1146-3"
       cx="150.23843"
       cy="44.425343"
       rx="35.125999"
       ry="35.125961"
       inkscape:export-filename="C:\Users\gabri\OneDrive\Escritorio\TP-2 Interfaces\fichas\violet.png"
       inkscape:export-xdpi="96"
       inkscape:export-ydpi="96" />
    <rect
       style="fill:#ff0000;fill-opacity:1;stroke:#000000;stroke-width:2.93719;stroke-miterlimit:4;stroke-dasharray:none;stroke-opacity:1"
       id="rect3153-6"
       width="7.7175426"
       height="66.903358"
       x="146.37965"
       y="11.009363"
       inkscape:export-filename="C:\Users\gabri\OneDrive\Escritorio\TP-2 Interfaces\fichas\violet.png"
       inkscape:export-xdpi="96"
       inkscape:export-ydpi="96" />
    <rect
       style="fill:#ff0000;fill-opacity:1;stroke:#000000;stroke-width:2.93719;stroke-miterlimit:4;stroke-dasharray:none;stroke-opacity:0.976744"
       id="rect3153-2-3"
       width="7.7175426"
       height="66.903358"
       x="40.390083"
       y="-183.74219"
       transform="rotate(90.067296)"
       inkscape:export-filename="C:\Users\gabri\OneDrive\Escritorio\TP-2 Interfaces\fichas\violet.png"
       inkscape:export-xdpi="96"
       inkscape:export-ydpi="96" />
    <rect
       style="fill:#ff0000;fill-opacity:1;stroke:#000000;stroke-width:2.93719;stroke-miterlimit:4;stroke-dasharray:none;stroke-opacity:1"
       id="rect3153-2-5-6"
       width="7.7175426"
       height="66.903358"
       x="130.37469"
       y="-112.88641"
       transform="rotate(46.864654)"
       inkscape:export-filename="C:\Users\gabri\OneDrive\Escritorio\TP-2 Interfaces\fichas\violet.png"
       inkscape:export-xdpi="96"
       inkscape:export-ydpi="96" />
    <rect
       style="fill:#ff0000;fill-opacity:1;stroke:#000000;stroke-width:2.93719;stroke-miterlimit:4;stroke-dasharray:none;stroke-opacity:1"
       id="rect3153-2-5-8-8"
       width="7.7175426"
       height="66.903358"
       x="-77.085487"
       y="-172.48296"
       transform="rotate(134.08941)"
       inkscape:export-filename="C:\Users\gabri\OneDrive\Escritorio\TP-2 Interfaces\fichas\violet.png"
       inkscape:export-xdpi="96"
       inkscape:export-ydpi="96" />
    <circle
       style="fill:#ff0000;stroke:#000000;stroke-width:2.373;stroke-miterlimit:4;stroke-dasharray:none;stroke-opacity:1"
       id="path1146-72-6"
       cx="150.23843"
       cy="44.425343"
       r="26.916365"
       inkscape:export-filename="C:\Users\gabri\OneDrive\Escritorio\TP-2 Interfaces\fichas\violet.png"
       inkscape:export-xdpi="96"
       inkscape:export-ydpi="96" />
    <path
       style="fill:#ff0000;fill-opacity:1;stroke:#000000;stroke-width:0.275593;stroke-opacity:1"
       d="m 143.45556,67.162739 c -2.47407,-0.31964 -4.40775,-0.99026 -5.30568,-1.84009 -0.67105,-0.6351 -0.75796,-0.91681 -0.75796,-2.45697 0,-1.96379 0.49377,-2.73394 1.93796,-3.02273 l 0.81824,-0.16361 v -2.82629 -2.82628 l -1.30919,-0.32624 c -1.89106,-0.47123 -2.54949,-0.97485 -2.54949,-1.95006 v -0.82035 h -1.74818 c -2.33291,0 -3.90711,-0.81259 -4.78325,-2.46908 -0.56379,-1.06592 -0.63468,-1.58142 -0.63468,-4.61488 0,-3.90847 0.25004,-4.67014 1.86828,-5.69103 0.56415,-0.3559 2.2344,-1.06825 3.71167,-1.583 l 2.68595,-0.93592 0.001,-1.973298 c 0.002,-2.397721 0.69838,-4.778496 1.91647,-6.548586 1.08419,-1.575504 3.7078,-3.562554 5.57446,-4.221942 0.92749,-0.32763 1.53668,-0.755215 1.89108,-1.327315 0.28755,-0.464191 0.8331,-1.010008 1.21233,-1.212926 0.57319,-0.306702 0.72027,-0.640823 0.87188,-1.980567 0.10032,-0.886394 0.30255,-1.611625 0.44945,-1.611625 0.1646,0 0.19194,0.647268 0.0712,1.686899 -0.22264,1.917923 -0.0507,2.162584 1.5198,2.162584 1.55489,0 1.71625,-0.23201 1.49867,-2.154802 -0.13449,-1.188513 -0.0989,-1.694681 0.11945,-1.694681 0.17118,0 0.31123,0.356514 0.31123,0.792252 0,1.560212 0.32204,2.447226 1.00078,2.756416 0.36785,0.167573 0.91411,0.720338 1.21392,1.228367 0.39274,0.665505 0.87202,1.019426 1.71468,1.266194 2.74871,0.804936 5.45166,3.209023 6.77016,6.021578 l 0.73868,1.575704 0.0794,16.030228 0.0794,16.03023 -0.86088,0.9803 c -1.00464,1.14399 -3.56297,2.46254 -5.91271,3.04738 -3.64031,0.90606 -10.04484,1.21023 -14.19442,0.67414 z m 13.47725,-1.61609 c 2.58477,-0.64077 5.39375,-2.01149 5.99162,-2.92377 0.33136,-0.50562 0.38106,-3.06802 0.31563,-16.27348 l -0.0777,-15.673372 -0.72631,-1.548683 c -0.99705,-2.126018 -2.45451,-3.649726 -4.43972,-4.641551 -1.88964,-0.944082 -2.52973,-1.004471 -4.45557,-0.420365 -1.81975,0.551932 -3.84202,0.503175 -5.67531,-0.136832 l -1.51591,-0.529206 -1.71527,0.795851 c -2.20538,1.023249 -4.27968,2.97264 -5.23038,4.915425 -0.60893,1.244364 -0.7719,2.014426 -0.86195,4.072791 l -0.11103,2.538292 1.61654,0.37058 c 2.39073,0.54806 12.61277,0.47436 14.974,-0.10795 2.01535,-0.49702 2.5957,-0.33746 3.90624,1.07395 1.39998,1.50773 1.61628,2.29047 1.61628,5.84875 0,1.8164 -0.13163,3.65163 -0.29252,4.07829 -0.46658,1.23731 -1.89866,2.51907 -3.55196,3.17911 -1.448,0.57808 -2.00799,0.6161 -10.43535,0.70863 l -8.90524,0.0978 0.0854,0.59942 c 0.0592,0.41583 0.42305,0.72058 1.18788,0.99506 1.70709,0.61261 10.02318,0.55887 15.19021,-0.0982 4.12789,-0.52491 4.17373,-0.52482 5.08922,0.01 1.40433,0.82001 1.98412,2.05155 2.12691,4.51785 0.15073,2.60312 -0.2164,3.83001 -1.47727,4.93685 -1.13853,0.99945 -2.98447,1.56656 -6.3212,1.942 -5.64,0.63462 -11.83111,0.0728 -13.51391,-1.22634 -0.51357,-0.39648 -0.51681,-0.43912 -0.0604,-0.79382 0.62497,-0.48569 0.61787,-1.003 -0.0138,-1.003 -0.82952,0 -1.1576,0.59238 -1.1576,2.09017 0,1.57279 0.31071,1.93081 2.21798,2.5556 3.12528,1.02381 12.18034,1.05194 16.22043,0.0504 z m -6.86236,-3.59389 v -1.10227 h -2.59586 c -1.42771,0 -2.79203,-0.0753 -3.03182,-0.16726 -0.35314,-0.13549 -0.43597,0.0439 -0.43597,0.94427 0,1.33507 0.0427,1.35203 3.51416,1.39555 l 2.54949,0.032 z m 5.16786,0.51372 c 1.27237,-0.24377 1.44702,-0.35802 1.44702,-0.94661 0,-0.36816 0.12402,-0.66938 0.27561,-0.66938 0.15159,0 0.27562,0.24801 0.27562,0.55113 0,0.66128 0.073,0.67003 1.11151,0.13312 0.75903,-0.39244 1.84227,-1.9564 1.55439,-2.24421 -0.072,-0.072 -0.78442,0.0631 -1.5831,0.30023 -0.79869,0.23714 -1.51376,0.36958 -1.58903,0.29431 -0.19687,-0.19682 -0.0746,-0.2615 1.60872,-0.85047 l 1.5159,-0.53042 0.0833,-1.44472 c 0.0889,-1.54108 0.0437,-1.60578 -0.80492,-1.15173 -0.30117,0.16115 -0.75812,0.24556 -1.01546,0.1876 -0.32204,-0.0725 -0.14572,-0.24538 0.56569,-0.5545 0.56846,-0.247 1.02963,-0.54843 1.0248,-0.66983 -0.024,-0.60376 -1.4447,-1.73635 -2.17807,-1.73635 -0.18833,0 -0.29375,0.98894 -0.29375,2.75565 0,1.6534 -0.11024,2.75567 -0.27561,2.75567 -0.16552,0 -0.27562,-1.10957 -0.27562,-2.77756 v -2.77755 l -0.75796,0.14924 c -0.41687,0.0821 -1.37809,0.22139 -2.13605,0.30958 -3.40053,0.39565 -3.16964,0.25497 -3.16964,1.93112 0,1.06894 0.0981,1.464 0.34453,1.38747 0.18949,-0.0589 1.33676,-0.18635 2.54949,-0.28333 1.57403,-0.12587 2.12079,-0.0914 1.91081,0.1204 -0.16177,0.16319 -1.30905,0.37496 -2.54949,0.4706 l -2.25534,0.17388 v 1.42346 1.42347 l 1.72263,-0.11645 c 1.19635,-0.0809 1.63842,-0.0282 1.447,0.17256 -0.15159,0.15895 -0.89575,0.32744 -1.65372,0.37442 l -1.37809,0.0854 -0.0858,1.1931 -0.0858,1.1931 1.60173,-0.17759 c 0.88096,-0.0977 2.25289,-0.30235 3.04874,-0.45483 z m -0.2067,-2.44269 c 0,-0.15156 0.25537,-0.27556 0.5675,-0.27556 0.31213,0 0.49086,0.124 0.39716,0.27556 -0.0937,0.15157 -0.34906,0.27557 -0.5675,0.27557 -0.21845,0 -0.39716,-0.124 -0.39716,-0.27557 z m -11.57605,1.68611 c 0,-1.0356 -0.0389,-1.07933 -1.22453,-1.37783 -1.64111,-0.41315 -1.57626,-0.44494 -1.4794,0.7251 0.0804,0.97187 0.15935,1.05255 1.32583,1.35565 0.68216,0.17725 1.2713,0.33226 1.3092,0.34445 0.0379,0.0122 0.0689,-0.45912 0.0689,-1.04737 z m 6.61489,-2.78837 v -1.37783 l -2.6873,-0.002 c -2.57531,-0.002 -5.17718,-0.29306 -6.20145,-0.69486 -0.4202,-0.16483 -0.48234,-0.0121 -0.48234,1.18539 v 1.3746 l 1.22453,0.30828 c 0.67349,0.16955 1.29364,0.30828 1.3781,0.30828 0.0845,6e-5 0.15357,-0.43396 0.15357,-0.96442 0,-0.53047 0.12403,-0.96448 0.27562,-0.96448 0.15159,0 0.27562,0.41334 0.27562,0.91855 0,0.5052 0.0827,1.00122 0.18375,1.10226 0.10106,0.10104 1.46538,0.18371 3.03182,0.18371 h 2.84808 z m 0,-3.48296 v -1.55399 l -1.44702,0.17377 c -0.79584,0.0956 -2.16017,0.17485 -3.03181,0.17617 -1.57663,0.002 -1.58482,0.007 -1.58482,0.82909 0,0.45468 -0.12403,0.82669 -0.27562,0.82669 -0.15159,0 -0.27562,-0.37201 -0.27562,-0.82669 0,-0.75732 -0.0791,-0.8267 -0.94213,-0.8267 -0.51817,0 -1.13831,-0.0753 -1.3781,-0.16727 -0.35309,-0.13546 -0.43597,0.0438 -0.43597,0.94311 0,1.01126 0.08,1.13551 0.89577,1.39196 1.40888,0.44287 2.06746,0.51031 5.37458,0.55033 l 3.10074,0.0375 z m 4.74088,-5.92023 c 2.03124,-0.43046 3.45239,-1.21049 4.10034,-2.25058 0.49149,-0.78896 0.54242,-1.28088 0.47152,-4.55493 l -0.0795,-3.67046 -1.25523,-1.185 -1.25522,-1.18501 -1.91441,0.42698 c -2.75244,0.61391 -12.80722,0.61551 -15.24295,0.002 l -1.75251,-0.44109 -2.93303,0.97977 c -2.14292,0.71584 -3.17434,1.21997 -3.8288,1.87142 l -0.89576,0.89164 v 3.34803 c 0,3.77086 0.27415,4.64518 1.736,5.53635 0.83332,0.508 1.45247,0.53797 11.13566,0.53894 6.53867,5.5e-4 10.78243,-0.1111 11.71386,-0.30849 z m -21.89477,-1.22412 c -0.41497,-0.22511 -0.94209,-0.77201 -1.17138,-1.21532 -0.56595,-1.0942 -0.56518,-4.98314 0.001,-6.07817 0.82394,-1.59304 1.16486,-1.64438 10.91941,-1.64438 8.40741,0 8.94728,0.0305 10.05726,0.5677 1.5565,0.75335 2.30854,2.26193 2.30854,4.63096 0,2.01448 -0.50309,3.16234 -1.6447,3.75257 -1.18639,0.61338 -19.33686,0.60154 -20.47034,-0.0134 z m 2.52902,-1.19278 c -1.15767,-2.22059 -0.93269,-4.67986 0.57956,-6.33524 l 0.78447,-0.85872 h -1.65939 c -1.46656,0 -1.753,0.0936 -2.46504,0.80551 -0.77312,0.77296 -0.80566,0.90739 -0.80566,3.32798 0,2.4206 0.0325,2.55503 0.80566,3.32799 0.65494,0.65481 1.04083,0.8055 2.06273,0.8055 h 1.25707 z m 8.38457,0.56481 c 0.42621,-0.47088 0.42722,-0.58669 0.0137,-1.5762 -0.43087,-1.03101 -0.42388,-2.68052 0.0159,-3.74977 0.14263,-0.34679 -0.17253,-0.70437 -1.27507,-1.44672 -1.28397,-0.86451 -1.67277,-0.98608 -3.15366,-0.98608 -2.00414,0 -2.92926,0.57691 -3.72139,2.32065 -0.62577,1.37756 -0.65665,2.61219 -0.0987,3.94725 0.80811,1.93368 0.95654,1.99908 4.53723,1.99908 2.78127,0 3.28492,-0.0695 3.68202,-0.50821 z m -4.23327,-3.34971 v -1.10227 h 1.10248 1.10248 v 1.10227 1.10226 h -1.10248 -1.10248 z m 14.07782,3.05242 c 0.73973,-0.73959 0.80566,-0.9662 0.80566,-2.76934 0,-3.22655 -1.24482,-4.68805 -3.99649,-4.69211 -2.03669,-0.003 -5.80259,1.73015 -6.19313,2.85022 -0.39848,1.14287 -0.35369,2.2363 0.14,3.41765 0.81838,1.95826 0.91797,1.99908 4.87677,1.99908 h 3.56154 z m -2.50178,-3.05242 v -1.10227 h 1.10248 1.10249 v 1.10227 1.10226 h -1.10249 -1.10248 z m -5.06879,-4.35526 c -0.69876,-0.0462 -1.85191,-0.0462 -2.56256,0 l -1.29209,0.084 1.08537,0.71934 1.08538,0.71934 1.47719,-0.71934 1.47718,-0.71934 z m 7.94787,-16.61118 c 1.10515,-0.537914 1.14035,-0.890264 0.19464,-1.948485 -0.78121,-0.874153 -0.85677,-0.898788 -1.75786,-0.573016 -1.1539,0.417172 -2.27642,0.435733 -2.99811,0.04958 -0.75233,-0.40256 -1.50425,-0.101839 -2.2048,0.88179 -0.50356,0.707056 -0.5361,0.890165 -0.21387,1.203548 0.99166,0.964429 5.30231,1.203175 6.98,0.386587 z"
       id="path3942-9"
       inkscape:export-filename="C:\Users\gabri\OneDrive\Escritorio\TP-2 Interfaces\fichas\violet.png"
       inkscape:export-xdpi="96"
       inkscape:export-ydpi="96" />
    <ellipse
       style="fill:#ff6600;stroke:#000000;stroke-width:2.117;stroke-miterlimit:4;stroke-dasharray:none;stroke-opacity:1"
       id="path1146-9"
       cx="63.003216"
       cy="142.1611"
       rx="35.125999"
       ry="35.125961"
       inkscape:export-filename="C:\Users\gabri\OneDrive\Escritorio\TP-2 Interfaces\fichas\violet.png"
       inkscape:export-xdpi="96"
       inkscape:export-ydpi="96" />
    <rect
       style="fill:#ff6600;fill-opacity:1;stroke:#000000;stroke-width:2.93719;stroke-miterlimit:4;stroke-dasharray:none;stroke-opacity:1"
       id="rect3153-0"
       width="7.7175426"
       height="66.903358"
       x="59.144444"
       y="108.74511"
       inkscape:export-filename="C:\Users\gabri\OneDrive\Escritorio\TP-2 Interfaces\fichas\violet.png"
       inkscape:export-xdpi="96"
       inkscape:export-ydpi="96" />
    <rect
       style="fill:#ff6600;fill-opacity:1;stroke:#000000;stroke-width:2.93719;stroke-miterlimit:4;stroke-dasharray:none;stroke-opacity:0.976744"
       id="rect3153-2-7"
       width="7.7175426"
       height="66.903358"
       x="138.22824"
       y="-96.621819"
       transform="rotate(90.067296)"
       inkscape:export-filename="C:\Users\gabri\OneDrive\Escritorio\TP-2 Interfaces\fichas\violet.png"
       inkscape:export-xdpi="96"
       inkscape:export-ydpi="96" />
    <rect
       style="fill:#ff6600;fill-opacity:1;stroke:#000000;stroke-width:2.93719;stroke-miterlimit:4;stroke-dasharray:none;stroke-opacity:1"
       id="rect3153-2-5-5"
       width="7.7175426"
       height="66.903358"
       x="142.05164"
       y="17.596956"
       transform="rotate(46.864654)"
       inkscape:export-filename="C:\Users\gabri\OneDrive\Escritorio\TP-2 Interfaces\fichas\violet.png"
       inkscape:export-xdpi="96"
       inkscape:export-ydpi="96" />
    <rect
       style="fill:#ff6600;fill-opacity:1;stroke:#000000;stroke-width:2.93719;stroke-miterlimit:4;stroke-dasharray:none;stroke-opacity:1"
       id="rect3153-2-5-8-2"
       width="7.7175426"
       height="66.903358"
       x="53.810223"
       y="-177.82843"
       transform="rotate(134.08941)"
       inkscape:export-filename="C:\Users\gabri\OneDrive\Escritorio\TP-2 Interfaces\fichas\violet.png"
       inkscape:export-xdpi="96"
       inkscape:export-ydpi="96" />
    <circle
       style="fill:#ff6600;stroke:#000000;stroke-width:2.373;stroke-miterlimit:4;stroke-dasharray:none;stroke-opacity:1"
       id="path1146-72-0"
       cx="63.003216"
       cy="142.1611"
       r="26.916365"
       inkscape:export-filename="C:\Users\gabri\OneDrive\Escritorio\TP-2 Interfaces\fichas\violet.png"
       inkscape:export-xdpi="96"
       inkscape:export-ydpi="96" />
    <path
       style="fill:#ff6600;fill-opacity:1;stroke:#000000;stroke-width:0.275593;stroke-opacity:1"
       d="m 56.220348,164.89849 c -2.474075,-0.31964 -4.407751,-0.99026 -5.305685,-1.84009 -0.67105,-0.6351 -0.757955,-0.91681 -0.757955,-2.45697 0,-1.9638 0.493765,-2.73394 1.937953,-3.02273 l 0.818247,-0.16361 v -2.82629 -2.82628 l -1.309195,-0.32624 c -1.891059,-0.47123 -2.549485,-0.97485 -2.549485,-1.95006 v -0.82035 h -1.748181 c -2.332916,0 -3.907115,-0.81259 -4.783258,-2.46908 -0.563786,-1.06592 -0.634681,-1.58142 -0.634681,-4.61488 0,-3.90847 0.250045,-4.67014 1.868287,-5.69103 0.564147,-0.3559 2.234399,-1.06825 3.711673,-1.583 l 2.685948,-0.93592 0.0014,-1.9733 c 0.0017,-2.39772 0.69838,-4.77849 1.916474,-6.54858 1.084188,-1.57551 3.707795,-3.56256 5.574457,-4.22195 0.927489,-0.32763 1.536683,-0.75521 1.891074,-1.32731 0.287555,-0.46419 0.8331,-1.01001 1.212336,-1.21293 0.573192,-0.3067 0.720272,-0.64082 0.871883,-1.98056 0.100317,-0.8864 0.302545,-1.61163 0.449447,-1.61163 0.164601,0 0.191936,0.64727 0.07125,1.6869 -0.222645,1.91792 -0.05073,2.16258 1.519798,2.16258 1.554892,0 1.716254,-0.23201 1.498671,-2.1548 -0.134495,-1.18851 -0.09886,-1.69468 0.119453,-1.69468 0.171175,0 0.311223,0.35651 0.311223,0.79225 0,1.56022 0.322045,2.44723 1.000784,2.75642 0.36785,0.16757 0.914114,0.72034 1.213919,1.22837 0.392737,0.6655 0.872019,1.01942 1.714681,1.26619 2.748707,0.80494 5.451662,3.20902 6.770159,6.02158 l 0.738679,1.5757 0.07938,16.03023 0.07938,16.03023 -0.860883,0.9803 c -1.004639,1.14399 -3.562962,2.46254 -5.912703,3.04738 -3.640309,0.90606 -10.044846,1.21023 -14.194427,0.67414 z m 13.477244,-1.61609 c 2.584772,-0.64077 5.393752,-2.01149 5.991623,-2.92377 0.331359,-0.50562 0.381059,-3.06802 0.315629,-16.27348 l -0.07771,-15.67337 -0.726304,-1.54869 c -0.997055,-2.12601 -2.454516,-3.64972 -4.43972,-4.64155 -1.889647,-0.94408 -2.529738,-1.00447 -4.455575,-0.42036 -1.819748,0.55193 -3.842016,0.50317 -5.675307,-0.13683 l -1.515911,-0.52921 -1.715275,0.79585 c -2.205376,1.02325 -4.279674,2.97264 -5.230376,4.91543 -0.608932,1.24436 -0.771903,2.01442 -0.861946,4.07279 l -0.111039,2.53829 1.616548,0.37058 c 2.390728,0.54806 12.612767,0.47436 14.973998,-0.10795 2.015351,-0.49702 2.5957,-0.33746 3.906238,1.07395 1.399979,1.50773 1.61628,2.29047 1.61628,5.84875 0,1.8164 -0.13163,3.65163 -0.292523,4.07829 -0.466573,1.23731 -1.898658,2.51907 -3.551962,3.17911 -1.447992,0.57808 -2.007986,0.6161 -10.435343,0.70863 l -8.905246,0.0978 0.0854,0.59942 c 0.05924,0.41583 0.423058,0.72058 1.187885,0.99506 1.707088,0.61261 10.023183,0.55887 15.190206,-0.0982 4.127894,-0.52491 4.17373,-0.52482 5.089219,0.01 1.404333,0.82001 1.98412,2.05155 2.126918,4.51785 0.150725,2.60312 -0.216406,3.83001 -1.477275,4.93685 -1.13853,0.99945 -2.984467,1.56656 -6.3212,1.942 -5.640003,0.63462 -11.831105,0.0728 -13.513906,-1.22634 -0.513573,-0.39648 -0.516818,-0.43912 -0.06039,-0.79382 0.624971,-0.48569 0.617863,-1.003 -0.01378,-1.003 -0.829526,0 -1.157604,0.59238 -1.157604,2.09017 0,1.57279 0.310715,1.93081 2.217978,2.5556 3.125283,1.02381 12.180343,1.05194 16.22043,0.0504 z m -6.86236,-3.59389 v -1.10227 h -2.595856 c -1.42771,0 -2.792032,-0.0753 -3.031818,-0.16726 -0.353144,-0.13549 -0.43597,0.0439 -0.43597,0.94427 0,1.33507 0.0427,1.35203 3.514154,1.39555 l 2.54949,0.032 z m 5.167867,0.51372 c 1.27237,-0.24377 1.447013,-0.35802 1.447013,-0.94661 0,-0.36816 0.124026,-0.66938 0.275616,-0.66938 0.151591,0 0.275617,0.24801 0.275617,0.55113 0,0.66128 0.07302,0.67002 1.111508,0.13312 0.759034,-0.39244 1.84227,-1.9564 1.554393,-2.24422 -0.07198,-0.072 -0.784421,0.0631 -1.583102,0.30024 -0.798692,0.23714 -1.513756,0.36958 -1.58903,0.29431 -0.196873,-0.19682 -0.07459,-0.2615 1.608718,-0.85047 l 1.515901,-0.53042 0.08334,-1.44472 c 0.08886,-1.54108 0.04365,-1.60578 -0.804921,-1.15173 -0.30117,0.16114 -0.758117,0.24556 -1.015462,0.1876 -0.322036,-0.0725 -0.145715,-0.24538 0.565692,-0.5545 0.568463,-0.247 1.029629,-0.54843 1.024806,-0.66983 -0.02396,-0.60376 -1.4447,-1.73635 -2.178077,-1.73635 -0.188321,0 -0.293742,0.98894 -0.293742,2.75565 0,1.6534 -0.110245,2.75566 -0.275617,2.75566 -0.165518,0 -0.275616,-1.10956 -0.275616,-2.77755 v -2.77755 l -0.757961,0.14924 c -0.416873,0.0821 -1.378093,0.22139 -2.136055,0.30958 -3.400527,0.39565 -3.169631,0.25497 -3.169631,1.93112 0,1.06894 0.09813,1.464 0.344525,1.38747 0.189488,-0.0589 1.336758,-0.18635 2.54949,-0.28333 1.574029,-0.12587 2.120793,-0.0914 1.910815,0.1204 -0.161778,0.16319 -1.309049,0.37496 -2.54949,0.4706 l -2.25534,0.17388 v 1.42346 1.42346 l 1.722629,-0.11644 c 1.196345,-0.0809 1.638417,-0.0282 1.447002,0.17256 -0.15159,0.15895 -0.895759,0.32744 -1.65372,0.37442 l -1.378093,0.0854 -0.08584,1.1931 -0.08584,1.1931 1.601728,-0.1776 c 0.880956,-0.0977 2.252893,-0.30234 3.048741,-0.45482 z m -0.206707,-2.44269 c 0,-0.15156 0.255376,-0.27556 0.567505,-0.27556 0.312128,0 0.490855,0.124 0.397163,0.27556 -0.09365,0.15157 -0.349068,0.27557 -0.567504,0.27557 -0.218448,0 -0.397164,-0.124 -0.397164,-0.27557 z m -11.576044,1.68611 c 0,-1.0356 -0.03887,-1.07933 -1.22453,-1.37783 -1.641116,-0.41315 -1.57626,-0.44494 -1.479405,0.7251 0.08045,0.97187 0.15935,1.05255 1.325835,1.35565 0.68216,0.17725 1.271298,0.33226 1.309195,0.34445 0.0379,0.0122 0.06891,-0.45912 0.06891,-1.04737 z m 6.614884,-2.78837 v -1.37783 l -2.687298,-0.002 c -2.575314,-0.002 -5.177178,-0.29306 -6.201451,-0.69486 -0.420196,-0.16483 -0.482335,-0.0121 -0.482335,1.18539 v 1.3746 l 1.22453,0.30828 c 0.673491,0.16955 1.293637,0.30828 1.3781,0.30828 0.08446,6e-5 0.15357,-0.43396 0.15357,-0.96442 0,-0.53047 0.124029,-0.96448 0.27562,-0.96448 0.151591,0 0.27562,0.41334 0.27562,0.91855 0,0.5052 0.08268,1.00122 0.183745,1.10226 0.101057,0.10104 1.465378,0.18371 3.031823,0.18371 h 2.848076 z m 0,-3.48296 v -1.55399 l -1.447013,0.17377 c -0.795848,0.0956 -2.16017,0.17485 -3.031813,0.17617 -1.57663,0.002 -1.584818,0.007 -1.584818,0.82909 0,0.45468 -0.124029,0.82669 -0.27562,0.82669 -0.151591,0 -0.27562,-0.37201 -0.27562,-0.82669 0,-0.75732 -0.07907,-0.8267 -0.94213,-0.8267 -0.518169,0 -1.138313,-0.0753 -1.3781,-0.16727 -0.353097,-0.13546 -0.43597,0.0438 -0.43597,0.94311 0,1.01126 0.07996,1.13551 0.895765,1.39196 1.408879,0.44287 2.067461,0.51031 5.374586,0.55033 l 3.100733,0.0375 z m 4.740879,-5.92023 c 2.031248,-0.43046 3.452395,-1.21049 4.10034,-2.25058 0.491491,-0.78896 0.542421,-1.28088 0.471522,-4.55493 l -0.07948,-3.67046 -1.255223,-1.18501 -1.255223,-1.185 -1.914409,0.42698 c -2.752446,0.61391 -12.807219,0.61551 -15.242955,0.002 l -1.752508,-0.44109 -2.933033,0.97977 c -2.14292,0.71584 -3.174337,1.21997 -3.828797,1.87142 l -0.895765,0.89164 v 3.34803 c 0,3.77086 0.274156,4.64518 1.736006,5.53635 0.833324,0.508 1.452466,0.53797 11.135664,0.53894 6.538663,5.5e-4 10.782426,-0.1111 11.713854,-0.30849 z m -21.894764,-1.22412 c -0.414971,-0.22511 -0.942093,-0.77201 -1.171385,-1.21532 -0.565944,-1.0942 -0.565175,-4.98314 0.0011,-6.07817 0.823939,-1.59304 1.164867,-1.64438 10.919415,-1.64438 8.40741,0 8.947278,0.0305 10.057255,0.5677 1.556507,0.75335 2.308541,2.26193 2.308541,4.63096 0,2.01448 -0.503085,3.16234 -1.644699,3.75257 -1.186386,0.61338 -19.336863,0.60154 -20.47034,-0.0134 z m 2.529015,-1.19278 c -1.157667,-2.22059 -0.932687,-4.67987 0.579563,-6.33524 l 0.784467,-0.85872 h -1.659384 c -1.466563,0 -1.753002,0.0936 -2.465043,0.8055 -0.773115,0.77297 -0.805657,0.9074 -0.805657,3.32799 0,2.4206 0.03254,2.55503 0.805657,3.32799 0.654939,0.65481 1.040829,0.8055 2.062726,0.8055 h 1.25707 z m 8.384568,0.56481 c 0.426218,-0.47088 0.427224,-0.58669 0.0137,-1.5762 -0.430866,-1.03101 -0.423876,-2.68052 0.01591,-3.74977 0.142631,-0.34679 -0.172527,-0.70437 -1.275064,-1.44672 -1.283974,-0.86451 -1.672769,-0.98608 -3.153662,-0.98608 -2.004138,0 -2.929261,0.57691 -3.721385,2.32065 -0.625776,1.37756 -0.656656,2.61219 -0.09872,3.94725 0.808107,1.93368 0.956537,1.99908 4.537221,1.99908 2.781273,0 3.284927,-0.0695 3.682021,-0.50821 z m -4.233262,-3.34971 v -1.10227 h 1.10248 1.10248 v 1.10227 1.10226 h -1.10248 -1.10248 z m 14.077819,3.05242 c 0.739731,-0.73959 0.805661,-0.9662 0.805661,-2.76934 0,-3.22655 -1.244826,-4.68805 -3.996492,-4.69211 -2.036695,-0.003 -5.802593,1.73015 -6.19313,2.85022 -0.398483,1.14287 -0.353692,2.2363 0.140001,3.41765 0.818374,1.95826 0.917972,1.99908 4.876764,1.99908 h 3.561545 z m -2.501779,-3.05242 v -1.10227 h 1.102477 1.102487 v 1.10227 1.10226 h -1.102487 -1.102477 z m -5.06879,-4.35526 c -0.69876,-0.0462 -1.851912,-0.0462 -2.562566,0 l -1.292092,0.084 1.085378,0.71934 1.08538,0.71934 1.477183,-0.71934 1.47718,-0.71934 z m 7.947867,-16.61118 c 1.105154,-0.53791 1.140354,-0.89026 0.194645,-1.94849 -0.781213,-0.87415 -0.856779,-0.89878 -1.757861,-0.57301 -1.153906,0.41717 -2.276425,0.43573 -2.998113,0.0496 -0.752336,-0.40256 -1.504255,-0.10184 -2.204797,0.88179 -0.503565,0.70705 -0.536108,0.89016 -0.213874,1.20355 0.991659,0.96443 5.30231,1.20317 6.98,0.38658 z"
       id="path3942-8"
       inkscape:export-filename="C:\Users\gabri\OneDrive\Escritorio\TP-2 Interfaces\fichas\violet.png"
       inkscape:export-xdpi="96"
       inkscape:export-ydpi="96" />
    <ellipse
       style="fill:#00ff00;stroke:#000000;stroke-width:2.117;stroke-miterlimit:4;stroke-dasharray:none;stroke-opacity:1"
       id="path1146-4"
       cx="154.27711"
       cy="139.7379"
       rx="35.125999"
       ry="35.125961"
       inkscape:export-filename="C:\Users\gabri\OneDrive\Escritorio\TP-2 Interfaces\fichas\violet.png"
       inkscape:export-xdpi="96"
       inkscape:export-ydpi="96" />
    <rect
       style="fill:#00ff00;fill-opacity:1;stroke:#000000;stroke-width:2.93719;stroke-miterlimit:4;stroke-dasharray:none;stroke-opacity:1"
       id="rect3153-7"
       width="7.7175426"
       height="66.903358"
       x="150.41833"
       y="106.32191"
       inkscape:export-filename="C:\Users\gabri\OneDrive\Escritorio\TP-2 Interfaces\fichas\violet.png"
       inkscape:export-xdpi="96"
       inkscape:export-ydpi="96" />
    <rect
       style="fill:#00ff00;fill-opacity:1;stroke:#000000;stroke-width:2.93719;stroke-miterlimit:4;stroke-dasharray:none;stroke-opacity:0.976744"
       id="rect3153-2-58"
       width="7.7175426"
       height="66.903358"
       x="135.69783"
       y="-187.89281"
       transform="rotate(90.067296)"
       inkscape:export-filename="C:\Users\gabri\OneDrive\Escritorio\TP-2 Interfaces\fichas\violet.png"
       inkscape:export-xdpi="96"
       inkscape:export-ydpi="96" />
    <rect
       style="fill:#00ff00;fill-opacity:1;stroke:#000000;stroke-width:2.93719;stroke-miterlimit:4;stroke-dasharray:none;stroke-opacity:1"
       id="rect3153-2-5-52"
       width="7.7175426"
       height="66.903358"
       x="202.68948"
       y="-50.666107"
       transform="rotate(46.864654)"
       inkscape:export-filename="C:\Users\gabri\OneDrive\Escritorio\TP-2 Interfaces\fichas\violet.png"
       inkscape:export-xdpi="96"
       inkscape:export-ydpi="96" />
    <rect
       style="fill:#00ff00;fill-opacity:1;stroke:#000000;stroke-width:2.93719;stroke-miterlimit:4;stroke-dasharray:none;stroke-opacity:1"
       id="rect3153-2-5-8-86"
       width="7.7175426"
       height="66.903358"
       x="-11.436806"
       y="-241.70033"
       transform="rotate(134.08941)"
       inkscape:export-filename="C:\Users\gabri\OneDrive\Escritorio\TP-2 Interfaces\fichas\violet.png"
       inkscape:export-xdpi="96"
       inkscape:export-ydpi="96" />
    <circle
       style="fill:#00ff00;stroke:#000000;stroke-width:2.373;stroke-miterlimit:4;stroke-dasharray:none;stroke-opacity:1"
       id="path1146-72-7"
       cx="154.27711"
       cy="139.7379"
       r="26.916365"
       inkscape:export-filename="C:\Users\gabri\OneDrive\Escritorio\TP-2 Interfaces\fichas\violet.png"
       inkscape:export-xdpi="96"
       inkscape:export-ydpi="96" />
    <path
       style="fill:#00ff00;fill-opacity:1;stroke:#000000;stroke-width:0.275593;stroke-opacity:1"
       d="m 147.49424,162.47529 c -2.47407,-0.31964 -4.40775,-0.99026 -5.30568,-1.84009 -0.67105,-0.6351 -0.75796,-0.91681 -0.75796,-2.45697 0,-1.9638 0.49377,-2.73394 1.93795,-3.02273 l 0.81825,-0.16361 v -2.82629 -2.82628 l -1.30919,-0.32624 c -1.89106,-0.47123 -2.54949,-0.97485 -2.54949,-1.95006 v -0.82035 h -1.74818 c -2.33292,0 -3.90711,-0.81259 -4.78326,-2.46908 -0.56378,-1.06592 -0.63468,-1.58142 -0.63468,-4.61488 0,-3.90847 0.25005,-4.67014 1.86829,-5.69103 0.56415,-0.3559 2.2344,-1.06825 3.71167,-1.583 l 2.68595,-0.93592 0.001,-1.9733 c 0.002,-2.39772 0.69838,-4.77849 1.91647,-6.54858 1.08419,-1.57551 3.7078,-3.56256 5.57446,-4.22195 0.92749,-0.32763 1.53668,-0.75521 1.89107,-1.32731 0.28756,-0.46419 0.8331,-1.01001 1.21234,-1.21293 0.57319,-0.3067 0.72027,-0.64082 0.87188,-1.98056 0.10032,-0.8864 0.30255,-1.61163 0.44945,-1.61163 0.1646,0 0.19194,0.64727 0.0713,1.6869 -0.22264,1.91792 -0.0507,2.16258 1.5198,2.16258 1.55489,0 1.71625,-0.23201 1.49867,-2.1548 -0.1345,-1.18851 -0.0989,-1.69468 0.11945,-1.69468 0.17118,0 0.31123,0.35651 0.31123,0.79225 0,1.56021 0.32204,2.44723 1.00078,2.75642 0.36785,0.16757 0.91411,0.72034 1.21392,1.22837 0.39274,0.6655 0.87202,1.01942 1.71468,1.26619 2.74871,0.80494 5.45166,3.20902 6.77016,6.02158 l 0.73868,1.5757 0.0794,16.03023 0.0794,16.03023 -0.86089,0.9803 c -1.00463,1.14399 -3.56296,2.46254 -5.9127,3.04738 -3.64031,0.90606 -10.04484,1.21023 -14.19443,0.67414 z m 13.47725,-1.61609 c 2.58477,-0.64077 5.39375,-2.01149 5.99162,-2.92377 0.33136,-0.50562 0.38106,-3.06802 0.31563,-16.27348 l -0.0777,-15.67337 -0.72631,-1.54869 c -0.99705,-2.12601 -2.45451,-3.64972 -4.43972,-4.64155 -1.88964,-0.94408 -2.52973,-1.00447 -4.45557,-0.42036 -1.81975,0.55193 -3.84202,0.50317 -5.67531,-0.13683 l -1.51591,-0.52921 -1.71527,0.79585 c -2.20538,1.02325 -4.27968,2.97264 -5.23038,4.91543 -0.60893,1.24436 -0.7719,2.01442 -0.86195,4.07279 l -0.11104,2.53829 1.61655,0.37058 c 2.39073,0.54806 12.61277,0.47436 14.974,-0.10795 2.01535,-0.49702 2.5957,-0.33746 3.90624,1.07395 1.39998,1.50773 1.61628,2.29047 1.61628,5.84875 0,1.8164 -0.13163,3.65163 -0.29252,4.07829 -0.46658,1.23731 -1.89866,2.51907 -3.55197,3.17911 -1.44799,0.57808 -2.00798,0.6161 -10.43534,0.70863 l -8.90525,0.0978 0.0854,0.59942 c 0.0592,0.41583 0.42306,0.72058 1.18789,0.99506 1.70709,0.61261 10.02318,0.55887 15.19021,-0.0982 4.12789,-0.52491 4.17373,-0.52482 5.08921,0.01 1.40434,0.82001 1.98412,2.05155 2.12692,4.51785 0.15073,2.60312 -0.2164,3.83001 -1.47727,4.93685 -1.13853,0.99945 -2.98447,1.56656 -6.3212,1.942 -5.64001,0.63462 -11.83111,0.0728 -13.51391,-1.22634 -0.51357,-0.39648 -0.51682,-0.43912 -0.0604,-0.79382 0.62497,-0.48569 0.61786,-1.003 -0.0138,-1.003 -0.82952,0 -1.1576,0.59238 -1.1576,2.09017 0,1.57279 0.31071,1.93081 2.21798,2.5556 3.12528,1.02381 12.18034,1.05194 16.22043,0.0504 z m -6.86236,-3.5939 v -1.10226 h -2.59586 c -1.42771,0 -2.79203,-0.0753 -3.03182,-0.16726 -0.35314,-0.13549 -0.43597,0.0439 -0.43597,0.94427 0,1.33507 0.0427,1.35203 3.51416,1.39555 l 2.54949,0.032 z m 5.16786,0.51373 c 1.27237,-0.24377 1.44702,-0.35802 1.44702,-0.94661 0,-0.36816 0.12402,-0.66938 0.27561,-0.66938 0.15159,0 0.27562,0.24801 0.27562,0.55113 0,0.66128 0.073,0.67002 1.11151,0.13312 0.75903,-0.39244 1.84227,-1.9564 1.55439,-2.24422 -0.072,-0.072 -0.78442,0.0631 -1.5831,0.30024 -0.79869,0.23714 -1.51376,0.36958 -1.58903,0.29431 -0.19688,-0.19682 -0.0746,-0.2615 1.60872,-0.85047 l 1.5159,-0.53042 0.0833,-1.44472 c 0.0889,-1.54108 0.0437,-1.60578 -0.80492,-1.15173 -0.30117,0.16114 -0.75812,0.24557 -1.01547,0.1876 -0.32203,-0.0725 -0.14571,-0.24538 0.5657,-0.5545 0.56846,-0.247 1.02962,-0.54843 1.0248,-0.66983 -0.024,-0.60376 -1.4447,-1.73635 -2.17808,-1.73635 -0.18832,0 -0.29374,0.98894 -0.29374,2.75566 0,1.65339 -0.11024,2.75565 -0.27561,2.75565 -0.16552,0 -0.27562,-1.10956 -0.27562,-2.77755 v -2.77755 l -0.75796,0.14924 c -0.41687,0.0821 -1.37809,0.22139 -2.13606,0.30958 -3.40052,0.39565 -3.16963,0.25497 -3.16963,1.93112 0,1.06893 0.0981,1.464 0.34453,1.38747 0.18949,-0.0589 1.33676,-0.18635 2.54949,-0.28333 1.57403,-0.12587 2.12079,-0.0914 1.91081,0.1204 -0.16178,0.16319 -1.30905,0.37496 -2.54949,0.4706 l -2.25534,0.17388 v 1.42346 1.42347 l 1.72263,-0.11645 c 1.19635,-0.0809 1.63842,-0.0282 1.447,0.17256 -0.15159,0.15895 -0.89576,0.32744 -1.65372,0.37442 l -1.37809,0.0854 -0.0858,1.1931 -0.0858,1.1931 1.60173,-0.17759 c 0.88095,-0.0977 2.25289,-0.30235 3.04874,-0.45483 z m -0.2067,-2.44269 c 0,-0.15156 0.25537,-0.27556 0.5675,-0.27556 0.31213,0 0.49086,0.124 0.39716,0.27556 -0.0936,0.15156 -0.34906,0.27557 -0.5675,0.27557 -0.21845,0 -0.39716,-0.12401 -0.39716,-0.27557 z m -11.57605,1.68611 c 0,-1.0356 -0.0389,-1.07933 -1.22453,-1.37783 -1.64111,-0.41315 -1.57626,-0.44494 -1.4794,0.7251 0.0804,0.97187 0.15935,1.05255 1.32583,1.35565 0.68216,0.17725 1.2713,0.33226 1.3092,0.34445 0.0379,0.0122 0.0689,-0.45911 0.0689,-1.04737 z m 6.61489,-2.78837 v -1.37783 l -2.6873,-0.002 c -2.57532,-0.002 -5.17718,-0.29306 -6.20145,-0.69486 -0.4202,-0.16483 -0.48234,-0.0121 -0.48234,1.18539 v 1.3746 l 1.22453,0.30828 c 0.67349,0.16955 1.29364,0.30828 1.3781,0.30828 0.0845,6e-5 0.15357,-0.43396 0.15357,-0.96442 0,-0.53047 0.12403,-0.96448 0.27562,-0.96448 0.15159,0 0.27562,0.41335 0.27562,0.91855 0,0.5052 0.0827,1.00122 0.18375,1.10226 0.10105,0.10104 1.46538,0.18371 3.03182,0.18371 h 2.84808 z m 0,-3.48296 v -1.55399 l -1.44702,0.17377 c -0.79585,0.0956 -2.16017,0.17485 -3.03181,0.17617 -1.57663,0.002 -1.58482,0.007 -1.58482,0.82909 0,0.45468 -0.12403,0.8267 -0.27562,0.8267 -0.15159,0 -0.27562,-0.37202 -0.27562,-0.8267 0,-0.75732 -0.0791,-0.8267 -0.94213,-0.8267 -0.51817,0 -1.13831,-0.0753 -1.3781,-0.16727 -0.3531,-0.13546 -0.43597,0.0438 -0.43597,0.94311 0,1.01126 0.08,1.13551 0.89577,1.39196 1.40888,0.44287 2.06746,0.51031 5.37458,0.55033 l 3.10074,0.0375 z m 4.74087,-5.92023 c 2.03125,-0.43046 3.4524,-1.21049 4.10034,-2.25058 0.4915,-0.78896 0.54243,-1.28088 0.47153,-4.55493 l -0.0795,-3.67046 -1.25523,-1.18501 -1.25522,-1.185 -1.91441,0.42698 c -2.75244,0.61391 -12.80722,0.61551 -15.24295,0.002 l -1.75251,-0.44109 -2.93303,0.97977 c -2.14292,0.71584 -3.17434,1.21997 -3.8288,1.87142 l -0.89577,0.89164 v 3.34803 c 0,3.77086 0.27416,4.64518 1.73601,5.53635 0.83332,0.508 1.45247,0.53797 11.13566,0.53894 6.53867,5.5e-4 10.78243,-0.1111 11.71386,-0.30849 z m -21.89476,-1.22412 c -0.41497,-0.22511 -0.94209,-0.77201 -1.17138,-1.21532 -0.56595,-1.0942 -0.56518,-4.98314 0.001,-6.07817 0.82393,-1.59304 1.16486,-1.64438 10.91941,-1.64438 8.40741,0 8.94728,0.0305 10.05726,0.5677 1.5565,0.75335 2.30854,2.26193 2.30854,4.63096 0,2.01448 -0.50309,3.16234 -1.6447,3.75257 -1.18639,0.61338 -19.33687,0.60154 -20.47034,-0.0134 z m 2.52902,-1.19278 c -1.15767,-2.22059 -0.93269,-4.67986 0.57956,-6.33524 l 0.78447,-0.85871 h -1.65939 c -1.46656,0 -1.753,0.0936 -2.46504,0.80549 -0.77312,0.77297 -0.80566,0.9074 -0.80566,3.32799 0,2.4206 0.0325,2.55503 0.80566,3.32799 0.65494,0.65481 1.04083,0.8055 2.06272,0.8055 h 1.25707 z m 8.38456,0.56481 c 0.42622,-0.47088 0.42723,-0.58669 0.0137,-1.5762 -0.43086,-1.03101 -0.42387,-2.68052 0.0159,-3.74977 0.14263,-0.34679 -0.17252,-0.70437 -1.27506,-1.44672 -1.28397,-0.86451 -1.67277,-0.98607 -3.15366,-0.98607 -2.00414,0 -2.92926,0.5769 -3.72139,2.32065 -0.62577,1.37755 -0.65665,2.61218 -0.0987,3.94723 0.80811,1.93369 0.95654,1.99909 4.53722,1.99909 2.78128,0 3.28493,-0.0695 3.68202,-0.50821 z m -4.23326,-3.34971 v -1.10227 h 1.10248 1.10248 v 1.10227 1.10226 h -1.10248 -1.10248 z m 14.07782,3.05242 c 0.73973,-0.73958 0.80566,-0.9662 0.80566,-2.76934 0,-3.22655 -1.24482,-4.68805 -3.99649,-4.69211 -2.0367,-0.003 -5.80259,1.73015 -6.19313,2.85022 -0.39848,1.14287 -0.35369,2.2363 0.14,3.41764 0.81837,1.95827 0.91797,1.99909 4.87676,1.99909 h 3.56155 z m -2.50178,-3.05242 v -1.10227 h 1.10248 1.10249 v 1.10227 1.10226 h -1.10249 -1.10248 z m -5.06879,-4.35526 c -0.69876,-0.0462 -1.85191,-0.0462 -2.56256,0 l -1.2921,0.084 1.08538,0.71934 1.08538,0.71934 1.47718,-0.71934 1.47718,-0.71934 z m 7.94787,-16.61118 c 1.10515,-0.53791 1.14035,-0.89026 0.19464,-1.94849 -0.78121,-0.87415 -0.85678,-0.89878 -1.75786,-0.57301 -1.1539,0.41717 -2.27642,0.43573 -2.99811,0.0496 -0.75234,-0.40256 -1.50426,-0.10184 -2.2048,0.88179 -0.50356,0.70706 -0.53611,0.89016 -0.21387,1.20355 0.99166,0.96443 5.30231,1.20317 6.98,0.38658 z"
       id="path3942-2"
       inkscape:export-filename="C:\Users\gabri\OneDrive\Escritorio\TP-2 Interfaces\fichas\violet.png"
       inkscape:export-xdpi="96"
       inkscape:export-ydpi="96" />
    <ellipse
       style="fill:#ffff00;stroke:#000000;stroke-width:2.117;stroke-miterlimit:4;stroke-dasharray:none;stroke-opacity:1"
       id="path1146-5"
       cx="62.195488"
       cy="238.28139"
       rx="35.125999"
       ry="35.125961"
       inkscape:export-filename="C:\Users\gabri\OneDrive\Escritorio\TP-2 Interfaces\fichas\violet.png"
       inkscape:export-xdpi="96"
       inkscape:export-ydpi="96" />
    <rect
       style="fill:#ffff00;fill-opacity:1;stroke:#000000;stroke-width:2.93719;stroke-miterlimit:4;stroke-dasharray:none;stroke-opacity:1"
       id="rect3153-9"
       width="7.7175426"
       height="66.903358"
       x="58.336708"
       y="204.86542"
       inkscape:export-filename="C:\Users\gabri\OneDrive\Escritorio\TP-2 Interfaces\fichas\violet.png"
       inkscape:export-xdpi="96"
       inkscape:export-ydpi="96" />
    <rect
       style="fill:#ffff00;fill-opacity:1;stroke:#000000;stroke-width:2.93719;stroke-miterlimit:4;stroke-dasharray:none;stroke-opacity:0.976744"
       id="rect3153-2-8"
       width="7.7175426"
       height="66.903358"
       x="234.34941"
       y="-95.926987"
       transform="rotate(90.067296)"
       inkscape:export-filename="C:\Users\gabri\OneDrive\Escritorio\TP-2 Interfaces\fichas\violet.png"
       inkscape:export-xdpi="96"
       inkscape:export-ydpi="96" />
    <rect
       style="fill:#ffff00;fill-opacity:1;stroke:#000000;stroke-width:2.93719;stroke-miterlimit:4;stroke-dasharray:none;stroke-opacity:1"
       id="rect3153-2-5-1"
       width="7.7175426"
       height="66.903358"
       x="211.64224"
       y="83.906158"
       transform="rotate(46.864654)"
       inkscape:export-filename="C:\Users\gabri\OneDrive\Escritorio\TP-2 Interfaces\fichas\violet.png"
       inkscape:export-xdpi="96"
       inkscape:export-ydpi="96" />
    <rect
       style="fill:#ffff00;fill-opacity:1;stroke:#000000;stroke-width:2.93719;stroke-miterlimit:4;stroke-dasharray:none;stroke-opacity:1"
       id="rect3153-2-5-8-80"
       width="7.7175426"
       height="66.903358"
       x="123.4111"
       y="-244.12685"
       transform="rotate(134.08941)"
       inkscape:export-filename="C:\Users\gabri\OneDrive\Escritorio\TP-2 Interfaces\fichas\violet.png"
       inkscape:export-xdpi="96"
       inkscape:export-ydpi="96" />
    <circle
       style="fill:#ffff00;stroke:#000000;stroke-width:2.373;stroke-miterlimit:4;stroke-dasharray:none;stroke-opacity:1"
       id="path1146-72-1"
       cx="62.195488"
       cy="238.28139"
       r="26.916365"
       inkscape:export-filename="C:\Users\gabri\OneDrive\Escritorio\TP-2 Interfaces\fichas\violet.png"
       inkscape:export-xdpi="96"
       inkscape:export-ydpi="96" />
    <path
       style="fill:#ffff00;fill-opacity:1;stroke:#000000;stroke-width:0.275593;stroke-opacity:1"
       d="m 55.412612,261.01879 c -2.47407,-0.31964 -4.40775,-0.99026 -5.30568,-1.84009 -0.67105,-0.6351 -0.75796,-0.91681 -0.75796,-2.45697 0,-1.9638 0.49377,-2.73394 1.93795,-3.02273 l 0.81825,-0.16361 v -2.82629 -2.82628 l -1.30919,-0.32624 c -1.89106,-0.47123 -2.54949,-0.97485 -2.54949,-1.95006 v -0.82035 h -1.74818 c -2.33291,0 -3.90711,-0.81259 -4.78326,-2.46908 -0.56378,-1.06592 -0.63468,-1.58142 -0.63468,-4.61488 0,-3.90847 0.25005,-4.67014 1.86829,-5.69103 0.56415,-0.3559 2.2344,-1.06825 3.71167,-1.583 l 2.68595,-0.93592 10e-4,-1.9733 c 0.002,-2.39772 0.69838,-4.77849 1.91647,-6.54858 1.08419,-1.57551 3.7078,-3.56256 5.57446,-4.22195 0.92749,-0.32763 1.53668,-0.75521 1.89107,-1.32731 0.28756,-0.46419 0.8331,-1.01001 1.21234,-1.21293 0.57319,-0.3067 0.72027,-0.64082 0.87188,-1.98056 0.10032,-0.8864 0.30255,-1.61163 0.44945,-1.61163 0.1646,0 0.19194,0.64727 0.0712,1.6869 -0.22264,1.91792 -0.0507,2.16258 1.5198,2.16258 1.55489,0 1.71625,-0.23201 1.49867,-2.1548 -0.1345,-1.18851 -0.0989,-1.69468 0.11945,-1.69468 0.17118,0 0.31123,0.35651 0.31123,0.79225 0,1.56022 0.32204,2.44723 1.00078,2.75642 0.36785,0.16757 0.91411,0.72034 1.21392,1.22837 0.39274,0.6655 0.87202,1.01942 1.71468,1.26619 2.74871,0.80494 5.45166,3.20902 6.77016,6.02158 l 0.73868,1.5757 0.0794,16.03023 0.0794,16.03023 -0.86089,0.9803 c -1.00463,1.14399 -3.56296,2.46254 -5.9127,3.04738 -3.64031,0.90606 -10.04484,1.21023 -14.19443,0.67414 z m 13.47725,-1.61609 c 2.58477,-0.64077 5.39375,-2.01149 5.99162,-2.92377 0.33136,-0.50562 0.38106,-3.06802 0.31563,-16.27348 l -0.0777,-15.67337 -0.72631,-1.54869 c -0.99705,-2.12601 -2.45451,-3.64972 -4.43972,-4.64155 -1.88964,-0.94408 -2.52973,-1.00447 -4.45557,-0.42036 -1.81975,0.55193 -3.84202,0.50317 -5.67531,-0.13683 l -1.51591,-0.52921 -1.71527,0.79585 c -2.20538,1.02325 -4.27968,2.97264 -5.23038,4.91543 -0.60893,1.24436 -0.7719,2.01442 -0.86195,4.07279 l -0.11104,2.53829 1.61655,0.37058 c 2.39073,0.54806 12.61277,0.47436 14.974,-0.10795 2.01535,-0.49702 2.5957,-0.33746 3.90624,1.07395 1.39998,1.50773 1.61628,2.29047 1.61628,5.84875 0,1.8164 -0.13163,3.65163 -0.29252,4.07829 -0.46658,1.23731 -1.89866,2.51907 -3.55197,3.17911 -1.44799,0.57808 -2.00798,0.6161 -10.43534,0.70863 l -8.90525,0.0978 0.0854,0.59942 c 0.0592,0.41583 0.42306,0.72058 1.18789,0.99506 1.70709,0.61261 10.02318,0.55887 15.19021,-0.0982 4.12789,-0.52491 4.17373,-0.52482 5.08921,0.01 1.40434,0.82001 1.98412,2.05155 2.12692,4.51785 0.15073,2.60312 -0.2164,3.83001 -1.47727,4.93685 -1.13853,0.99945 -2.98447,1.56656 -6.3212,1.942 -5.64001,0.63462 -11.83111,0.0728 -13.51391,-1.22634 -0.51357,-0.39648 -0.51682,-0.43912 -0.0604,-0.79382 0.62497,-0.48569 0.61787,-1.003 -0.0138,-1.003 -0.82952,0 -1.1576,0.59238 -1.1576,2.09017 0,1.57279 0.31071,1.93081 2.21798,2.5556 3.12528,1.02381 12.18034,1.05194 16.22043,0.0504 z m -6.86236,-3.59389 v -1.10227 h -2.59586 c -1.42771,0 -2.79203,-0.0753 -3.03182,-0.16726 -0.35314,-0.13549 -0.43597,0.0439 -0.43597,0.94427 0,1.33507 0.0427,1.35203 3.51416,1.39555 l 2.54949,0.032 z m 5.16786,0.51372 c 1.27237,-0.24377 1.44702,-0.35802 1.44702,-0.94661 0,-0.36816 0.12402,-0.66938 0.27561,-0.66938 0.15159,0 0.27562,0.24801 0.27562,0.55113 0,0.66128 0.073,0.67002 1.11151,0.13312 0.75903,-0.39244 1.84227,-1.9564 1.55439,-2.24422 -0.072,-0.072 -0.78442,0.0631 -1.5831,0.30024 -0.79869,0.23714 -1.51376,0.36958 -1.58903,0.29431 -0.19688,-0.19682 -0.0746,-0.2615 1.60872,-0.85047 l 1.5159,-0.53042 0.0833,-1.44472 c 0.0889,-1.54108 0.0436,-1.60578 -0.80492,-1.15173 -0.30117,0.16114 -0.75812,0.24556 -1.01547,0.1876 -0.32203,-0.0725 -0.14571,-0.24538 0.5657,-0.5545 0.56846,-0.247 1.02962,-0.54843 1.0248,-0.66983 -0.024,-0.60376 -1.4447,-1.73635 -2.17808,-1.73635 -0.18832,0 -0.29374,0.98894 -0.29374,2.75565 0,1.6534 -0.11024,2.75566 -0.27561,2.75566 -0.16552,0 -0.27562,-1.10956 -0.27562,-2.77755 v -2.77755 l -0.75796,0.14924 c -0.41687,0.0821 -1.37809,0.22139 -2.13606,0.30958 -3.40052,0.39565 -3.16963,0.25497 -3.16963,1.93112 0,1.06893 0.0981,1.464 0.34453,1.38747 0.18949,-0.0589 1.33676,-0.18635 2.54949,-0.28333 1.57403,-0.12587 2.12079,-0.0914 1.91081,0.1204 -0.16178,0.16319 -1.30905,0.37496 -2.54949,0.4706 l -2.25534,0.17388 v 1.42346 1.42346 l 1.72263,-0.11644 c 1.19635,-0.0809 1.63842,-0.0282 1.447,0.17256 -0.15159,0.15895 -0.89576,0.32744 -1.65372,0.37442 l -1.37809,0.0854 -0.0858,1.1931 -0.0858,1.1931 1.60173,-0.17759 c 0.88095,-0.0977 2.25289,-0.30235 3.04874,-0.45483 z m -0.2067,-2.44269 c 0,-0.15156 0.25537,-0.27556 0.5675,-0.27556 0.31213,0 0.49086,0.124 0.39716,0.27556 -0.0936,0.15157 -0.34906,0.27557 -0.5675,0.27557 -0.21845,0 -0.39716,-0.124 -0.39716,-0.27557 z m -11.57605,1.68611 c 0,-1.0356 -0.0389,-1.07933 -1.22453,-1.37783 -1.64111,-0.41315 -1.57626,-0.44494 -1.4794,0.7251 0.0805,0.97187 0.15935,1.05255 1.32583,1.35565 0.68216,0.17725 1.2713,0.33226 1.3092,0.34445 0.0379,0.0122 0.0689,-0.45912 0.0689,-1.04737 z m 6.61489,-2.78837 v -1.37783 l -2.6873,-0.002 c -2.57532,-0.002 -5.17718,-0.29306 -6.20145,-0.69486 -0.4202,-0.16483 -0.48234,-0.0121 -0.48234,1.18539 v 1.3746 l 1.22453,0.30828 c 0.67349,0.16955 1.29364,0.30828 1.3781,0.30828 0.0845,6e-5 0.15357,-0.43396 0.15357,-0.96442 0,-0.53047 0.12403,-0.96448 0.27562,-0.96448 0.15159,0 0.27562,0.41335 0.27562,0.91855 0,0.5052 0.0827,1.00122 0.18375,1.10226 0.10105,0.10104 1.46538,0.18371 3.03182,0.18371 h 2.84808 z m 0,-3.48296 v -1.55399 l -1.44702,0.17377 c -0.79585,0.0956 -2.16017,0.17485 -3.03181,0.17617 -1.57663,0.002 -1.58482,0.007 -1.58482,0.82909 0,0.45468 -0.12403,0.82669 -0.27562,0.82669 -0.15159,0 -0.27562,-0.37201 -0.27562,-0.82669 0,-0.75732 -0.0791,-0.8267 -0.94213,-0.8267 -0.51817,0 -1.13831,-0.0753 -1.3781,-0.16727 -0.3531,-0.13546 -0.43597,0.0438 -0.43597,0.94311 0,1.01126 0.08,1.13551 0.89577,1.39196 1.40888,0.44287 2.06746,0.51031 5.37458,0.55033 l 3.10074,0.0375 z m 4.74087,-5.92023 c 2.03125,-0.43046 3.4524,-1.21049 4.10034,-2.25058 0.4915,-0.78896 0.54243,-1.28088 0.47153,-4.55493 l -0.0795,-3.67046 -1.25523,-1.18501 -1.25522,-1.185 -1.91441,0.42698 c -2.75244,0.61391 -12.80722,0.61551 -15.24295,0.002 l -1.75251,-0.44109 -2.93303,0.97977 c -2.14292,0.71584 -3.17434,1.21997 -3.8288,1.87142 l -0.89577,0.89164 v 3.34803 c 0,3.77086 0.27416,4.64518 1.73601,5.53635 0.83332,0.508 1.45247,0.53797 11.13566,0.53894 6.53867,5.5e-4 10.78243,-0.1111 11.71386,-0.30849 z m -21.89476,-1.22412 c -0.41497,-0.22511 -0.94209,-0.77201 -1.17138,-1.21532 -0.56595,-1.0942 -0.56518,-4.98314 10e-4,-6.07817 0.82393,-1.59304 1.16486,-1.64438 10.91941,-1.64438 8.40741,0 8.94728,0.0305 10.05726,0.5677 1.5565,0.75335 2.30854,2.26193 2.30854,4.63096 0,2.01448 -0.50309,3.16234 -1.6447,3.75257 -1.18639,0.61338 -19.33687,0.60154 -20.47034,-0.0134 z m 2.52902,-1.19278 c -1.15767,-2.22059 -0.93269,-4.67987 0.57956,-6.33524 l 0.78447,-0.85872 h -1.65939 c -1.46656,0 -1.753,0.0936 -2.46504,0.8055 -0.77312,0.77297 -0.80566,0.9074 -0.80566,3.32799 0,2.4206 0.0325,2.55503 0.80566,3.32799 0.65494,0.65481 1.04083,0.8055 2.06272,0.8055 h 1.25707 z m 8.38456,0.56481 c 0.42622,-0.47088 0.42723,-0.58669 0.0137,-1.5762 -0.43086,-1.03101 -0.42387,-2.68052 0.0159,-3.74977 0.14263,-0.34679 -0.17252,-0.70437 -1.27506,-1.44672 -1.28397,-0.86451 -1.67277,-0.98608 -3.15366,-0.98608 -2.00414,0 -2.92926,0.57691 -3.72139,2.32065 -0.62577,1.37756 -0.65665,2.61219 -0.0987,3.94725 0.80811,1.93368 0.95654,1.99908 4.53722,1.99908 2.78128,0 3.28493,-0.0695 3.68203,-0.50821 z m -4.23326,-3.34971 v -1.10227 h 1.10248 1.10248 v 1.10227 1.10226 h -1.10248 -1.10248 z m 14.07782,3.05242 c 0.73973,-0.73959 0.80566,-0.9662 0.80566,-2.76934 0,-3.22655 -1.24482,-4.68805 -3.99649,-4.69211 -2.0367,-0.003 -5.80259,1.73015 -6.19313,2.85022 -0.39848,1.14287 -0.35369,2.2363 0.14,3.41765 0.81837,1.95826 0.91797,1.99908 4.87676,1.99908 h 3.56155 z m -2.50178,-3.05242 v -1.10227 h 1.10248 1.10249 v 1.10227 1.10226 h -1.10249 -1.10248 z m -5.06879,-4.35526 c -0.69876,-0.0462 -1.85191,-0.0462 -2.56256,0 l -1.2921,0.084 1.08538,0.71934 1.08538,0.71934 1.47719,-0.71934 1.47717,-0.71934 z m 7.94787,-16.61118 c 1.10515,-0.53791 1.14035,-0.89026 0.19464,-1.94849 -0.78121,-0.87415 -0.85678,-0.89878 -1.75786,-0.57301 -1.1539,0.41717 -2.27642,0.43573 -2.99811,0.0496 -0.75234,-0.40256 -1.50425,-0.10184 -2.2048,0.88179 -0.50356,0.70705 -0.5361,0.89016 -0.21387,1.20355 0.99166,0.96443 5.30231,1.20317 6.98,0.38658 z"
       id="path3942-0"
       inkscape:export-filename="C:\Users\gabri\OneDrive\Escritorio\TP-2 Interfaces\fichas\violet.png"
       inkscape:export-xdpi="96"
       inkscape:export-ydpi="96" />
    <ellipse
       style="fill:#0055d4;stroke:#000000;stroke-width:2.117;stroke-miterlimit:4;stroke-dasharray:none;stroke-opacity:1"
       id="path1146-7"
       cx="158.31577"
       cy="233.43498"
       rx="35.125999"
       ry="35.125961"
       inkscape:export-filename="C:\Users\gabri\OneDrive\Escritorio\TP-2 Interfaces\fichas\violet.png"
       inkscape:export-xdpi="96"
       inkscape:export-ydpi="96" />
    <rect
       style="fill:#0055d4;fill-opacity:1;stroke:#000000;stroke-width:2.93719;stroke-miterlimit:4;stroke-dasharray:none;stroke-opacity:1"
       id="rect3153-4"
       width="7.7175426"
       height="66.903358"
       x="154.457"
       y="200.019"
       inkscape:export-filename="C:\Users\gabri\OneDrive\Escritorio\TP-2 Interfaces\fichas\violet.png"
       inkscape:export-xdpi="96"
       inkscape:export-ydpi="96" />
    <rect
       style="fill:#0055d4;fill-opacity:1;stroke:#000000;stroke-width:2.93719;stroke-miterlimit:4;stroke-dasharray:none;stroke-opacity:0.976744"
       id="rect3153-2-6"
       width="7.7175426"
       height="66.903358"
       x="229.39009"
       y="-192.0415"
       transform="rotate(90.067296)"
       inkscape:export-filename="C:\Users\gabri\OneDrive\Escritorio\TP-2 Interfaces\fichas\violet.png"
       inkscape:export-xdpi="96"
       inkscape:export-ydpi="96" />
    <rect
       style="fill:#0055d4;fill-opacity:1;stroke:#000000;stroke-width:2.93719;stroke-miterlimit:4;stroke-dasharray:none;stroke-opacity:1"
       id="rect3153-2-5-3"
       width="7.7175426"
       height="66.903358"
       x="273.82538"
       y="10.449667"
       transform="rotate(46.864654)"
       inkscape:export-filename="C:\Users\gabri\OneDrive\Escritorio\TP-2 Interfaces\fichas\violet.png"
       inkscape:export-xdpi="96"
       inkscape:export-ydpi="96" />
    <rect
       style="fill:#0055d4;fill-opacity:1;stroke:#000000;stroke-width:2.93719;stroke-miterlimit:4;stroke-dasharray:none;stroke-opacity:1"
       id="rect3153-2-5-8-5"
       width="7.7175426"
       height="66.903358"
       x="53.051567"
       y="-309.7937"
       transform="rotate(134.08941)"
       inkscape:export-filename="C:\Users\gabri\OneDrive\Escritorio\TP-2 Interfaces\fichas\violet.png"
       inkscape:export-xdpi="96"
       inkscape:export-ydpi="96" />
    <circle
       style="fill:#0055d4;stroke:#000000;stroke-width:2.373;stroke-miterlimit:4;stroke-dasharray:none;stroke-opacity:1"
       id="path1146-72-5"
       cx="158.31577"
       cy="233.43498"
       r="26.916365"
       inkscape:export-filename="C:\Users\gabri\OneDrive\Escritorio\TP-2 Interfaces\fichas\violet.png"
       inkscape:export-xdpi="96"
       inkscape:export-ydpi="96" />
    <path
       style="fill:#0055d4;fill-opacity:1;stroke:#000000;stroke-width:0.275593;stroke-opacity:1"
       d="m 151.5329,256.17238 c -2.47407,-0.31964 -4.40775,-0.99026 -5.30568,-1.84009 -0.67105,-0.6351 -0.75796,-0.91681 -0.75796,-2.45697 0,-1.9638 0.49377,-2.73394 1.93795,-3.02273 l 0.81825,-0.16361 v -2.82629 -2.82628 l -1.30919,-0.32624 c -1.89106,-0.47123 -2.54949,-0.97485 -2.54949,-1.95006 v -0.82035 h -1.74818 c -2.33292,0 -3.90711,-0.81259 -4.78326,-2.46908 -0.56378,-1.06592 -0.63468,-1.58142 -0.63468,-4.61488 0,-3.90847 0.25005,-4.67014 1.86829,-5.69103 0.56415,-0.3559 2.2344,-1.06825 3.71167,-1.583 l 2.68595,-0.93592 0.001,-1.9733 c 0.002,-2.39772 0.69838,-4.77849 1.91647,-6.54858 1.08419,-1.57551 3.7078,-3.56256 5.57446,-4.22195 0.92749,-0.32763 1.53668,-0.75521 1.89107,-1.32731 0.28756,-0.46419 0.8331,-1.01001 1.21234,-1.21293 0.57319,-0.3067 0.72027,-0.64082 0.87188,-1.98056 0.10032,-0.8864 0.30255,-1.61163 0.44945,-1.61163 0.1646,0 0.19194,0.64727 0.0713,1.6869 -0.22264,1.91792 -0.0507,2.16258 1.5198,2.16258 1.55489,0 1.71625,-0.23201 1.49867,-2.1548 -0.1345,-1.18851 -0.0989,-1.69468 0.11945,-1.69468 0.17118,0 0.31123,0.35651 0.31123,0.79225 0,1.56021 0.32204,2.44723 1.00078,2.75642 0.36785,0.16757 0.91411,0.72034 1.21392,1.22837 0.39274,0.6655 0.87202,1.01942 1.71468,1.26619 2.74871,0.80494 5.45166,3.20902 6.77016,6.02158 l 0.73868,1.5757 0.0794,16.03023 0.0794,16.03023 -0.86089,0.9803 c -1.00463,1.14399 -3.56296,2.46254 -5.9127,3.04738 -3.64031,0.90606 -10.04484,1.21023 -14.19443,0.67414 z m 13.47725,-1.61609 c 2.58477,-0.64077 5.39375,-2.01149 5.99162,-2.92377 0.33136,-0.50562 0.38106,-3.06802 0.31563,-16.27348 l -0.0777,-15.67337 -0.72631,-1.54869 c -0.99705,-2.12601 -2.45451,-3.64972 -4.43972,-4.64155 -1.88964,-0.94408 -2.52973,-1.00447 -4.45557,-0.42036 -1.81975,0.55193 -3.84202,0.50317 -5.67531,-0.13683 l -1.51591,-0.52921 -1.71527,0.79585 c -2.20538,1.02325 -4.27968,2.97264 -5.23038,4.91543 -0.60893,1.24436 -0.7719,2.01442 -0.86195,4.07279 l -0.11104,2.53829 1.61655,0.37058 c 2.39073,0.54806 12.61277,0.47436 14.974,-0.10795 2.01535,-0.49702 2.5957,-0.33746 3.90624,1.07395 1.39998,1.50773 1.61628,2.29047 1.61628,5.84875 0,1.8164 -0.13163,3.65163 -0.29252,4.07829 -0.46658,1.23731 -1.89866,2.51907 -3.55197,3.17911 -1.44799,0.57808 -2.00798,0.6161 -10.43534,0.70863 l -8.90525,0.0978 0.0854,0.59942 c 0.0592,0.41583 0.42306,0.72058 1.18789,0.99506 1.70709,0.61261 10.02318,0.55887 15.19021,-0.0982 4.12789,-0.52491 4.17373,-0.52482 5.08921,0.01 1.40434,0.82001 1.98412,2.05155 2.12692,4.51785 0.15073,2.60312 -0.2164,3.83001 -1.47727,4.93685 -1.13853,0.99945 -2.98447,1.56656 -6.3212,1.942 -5.64001,0.63462 -11.83111,0.0728 -13.51391,-1.22634 -0.51357,-0.39648 -0.51682,-0.43912 -0.0604,-0.79382 0.62497,-0.48569 0.61786,-1.003 -0.0138,-1.003 -0.82952,0 -1.1576,0.59238 -1.1576,2.09017 0,1.57279 0.31071,1.93081 2.21798,2.5556 3.12528,1.02381 12.18034,1.05194 16.22043,0.0504 z m -6.86236,-3.5939 v -1.10226 h -2.59586 c -1.42771,0 -2.79203,-0.0753 -3.03182,-0.16726 -0.35314,-0.13549 -0.43597,0.0439 -0.43597,0.94427 0,1.33507 0.0427,1.35203 3.51416,1.39555 l 2.54949,0.032 z m 5.16786,0.51373 c 1.27237,-0.24377 1.44702,-0.35802 1.44702,-0.94661 0,-0.36816 0.12402,-0.66938 0.27561,-0.66938 0.15159,0 0.27562,0.24801 0.27562,0.55113 0,0.66128 0.073,0.67002 1.11151,0.13312 0.75903,-0.39244 1.84227,-1.9564 1.55439,-2.24422 -0.072,-0.072 -0.78442,0.0631 -1.5831,0.30024 -0.79869,0.23714 -1.51376,0.36958 -1.58903,0.29431 -0.19688,-0.19682 -0.0746,-0.2615 1.60872,-0.85047 l 1.5159,-0.53042 0.0833,-1.44472 c 0.0889,-1.54108 0.0437,-1.60578 -0.80492,-1.15173 -0.30117,0.16114 -0.75812,0.24556 -1.01547,0.1876 -0.32203,-0.0725 -0.14571,-0.24538 0.5657,-0.5545 0.56846,-0.247 1.02962,-0.54843 1.0248,-0.66983 -0.024,-0.60376 -1.4447,-1.73635 -2.17808,-1.73635 -0.18832,0 -0.29374,0.98894 -0.29374,2.75565 0,1.6534 -0.11024,2.75566 -0.27561,2.75566 -0.16552,0 -0.27562,-1.10956 -0.27562,-2.77755 v -2.77755 l -0.75796,0.14924 c -0.41687,0.0821 -1.37809,0.22139 -2.13606,0.30958 -3.40052,0.39565 -3.16963,0.25497 -3.16963,1.93112 0,1.06893 0.0981,1.464 0.34453,1.38747 0.18949,-0.0589 1.33676,-0.18635 2.54949,-0.28333 1.57403,-0.12587 2.12079,-0.0914 1.91081,0.1204 -0.16178,0.16319 -1.30905,0.37496 -2.54949,0.4706 l -2.25534,0.17388 v 1.42346 1.42346 l 1.72263,-0.11644 c 1.19635,-0.0809 1.63842,-0.0281 1.447,0.17256 -0.15159,0.15895 -0.89576,0.32744 -1.65372,0.37442 l -1.37809,0.0854 -0.0858,1.1931 -0.0858,1.1931 1.60173,-0.17759 c 0.88095,-0.0977 2.25289,-0.30235 3.04874,-0.45483 z m -0.2067,-2.44269 c 0,-0.15156 0.25537,-0.27556 0.5675,-0.27556 0.31213,0 0.49086,0.124 0.39716,0.27556 -0.0936,0.15156 -0.34906,0.27557 -0.5675,0.27557 -0.21845,0 -0.39716,-0.12401 -0.39716,-0.27557 z m -11.57605,1.68611 c 0,-1.0356 -0.0389,-1.07933 -1.22453,-1.37783 -1.64111,-0.41315 -1.57626,-0.44494 -1.4794,0.7251 0.0805,0.97187 0.15935,1.05255 1.32583,1.35565 0.68216,0.17725 1.2713,0.33226 1.3092,0.34445 0.0379,0.0122 0.0689,-0.45912 0.0689,-1.04737 z m 6.61489,-2.78837 v -1.37783 l -2.6873,-0.002 c -2.57532,-0.002 -5.17718,-0.29306 -6.20145,-0.69486 -0.4202,-0.16483 -0.48234,-0.0121 -0.48234,1.18539 v 1.3746 l 1.22453,0.30828 c 0.67349,0.16955 1.29364,0.30828 1.3781,0.30828 0.0845,6e-5 0.15357,-0.43396 0.15357,-0.96442 0,-0.53047 0.12403,-0.96448 0.27562,-0.96448 0.15159,0 0.27562,0.41335 0.27562,0.91855 0,0.5052 0.0827,1.00122 0.18375,1.10226 0.10105,0.10104 1.46538,0.18371 3.03182,0.18371 h 2.84808 z m 0,-3.48296 v -1.55399 l -1.44702,0.17377 c -0.79585,0.0956 -2.16017,0.17485 -3.03181,0.17617 -1.57663,0.002 -1.58482,0.007 -1.58482,0.82909 0,0.45468 -0.12403,0.82669 -0.27562,0.82669 -0.15159,0 -0.27562,-0.37201 -0.27562,-0.82669 0,-0.75732 -0.0791,-0.8267 -0.94213,-0.8267 -0.51817,0 -1.13831,-0.0753 -1.3781,-0.16727 -0.3531,-0.13546 -0.43597,0.0438 -0.43597,0.94311 0,1.01126 0.08,1.13552 0.89577,1.39196 1.40888,0.44287 2.06746,0.51031 5.37458,0.55033 l 3.10074,0.0375 z m 4.74087,-5.92023 c 2.03125,-0.43046 3.4524,-1.21049 4.10034,-2.25058 0.4915,-0.78896 0.54243,-1.28088 0.47153,-4.55493 l -0.0795,-3.67046 -1.25523,-1.18501 -1.25522,-1.185 -1.91441,0.42698 c -2.75244,0.61391 -12.80722,0.61551 -15.24295,0.002 l -1.75251,-0.44109 -2.93303,0.97977 c -2.14292,0.71584 -3.17434,1.21997 -3.8288,1.87142 l -0.89577,0.89164 v 3.34803 c 0,3.77086 0.27416,4.64518 1.73601,5.53635 0.83332,0.508 1.45247,0.53797 11.13566,0.53894 6.53867,5.5e-4 10.78243,-0.1111 11.71386,-0.30849 z m -21.89476,-1.22412 c -0.41497,-0.22511 -0.94209,-0.77201 -1.17138,-1.21532 -0.56595,-1.0942 -0.56518,-4.98314 0.001,-6.07817 0.82393,-1.59304 1.16486,-1.64438 10.91941,-1.64438 8.40741,0 8.94728,0.0305 10.05726,0.5677 1.5565,0.75335 2.30854,2.26193 2.30854,4.63096 0,2.01448 -0.50309,3.16234 -1.6447,3.75257 -1.18639,0.61338 -19.33687,0.60154 -20.47034,-0.0134 z m 2.52902,-1.19278 c -1.15767,-2.22059 -0.93269,-4.67987 0.57956,-6.33524 l 0.78447,-0.85872 h -1.65939 c -1.46656,0 -1.753,0.0936 -2.46504,0.8055 -0.77312,0.77297 -0.80566,0.9074 -0.80566,3.32799 0,2.4206 0.0325,2.55503 0.80566,3.32799 0.65494,0.65481 1.04083,0.8055 2.06272,0.8055 h 1.25707 z m 8.38456,0.56481 c 0.42622,-0.47088 0.42723,-0.58669 0.0137,-1.5762 -0.43086,-1.03101 -0.42387,-2.68052 0.0159,-3.74977 0.14263,-0.34679 -0.17252,-0.70437 -1.27506,-1.44672 -1.28397,-0.86451 -1.67277,-0.98608 -3.15366,-0.98608 -2.00414,0 -2.92926,0.57691 -3.72139,2.32065 -0.62577,1.37756 -0.65665,2.61219 -0.0987,3.94724 0.80811,1.93369 0.95654,1.99909 4.53722,1.99909 2.78128,0 3.28493,-0.0695 3.68202,-0.50821 z m -4.23326,-3.34971 v -1.10227 h 1.10248 1.10248 v 1.10227 1.10226 h -1.10248 -1.10248 z m 14.07782,3.05242 c 0.73973,-0.73959 0.80566,-0.9662 0.80566,-2.76934 0,-3.22655 -1.24482,-4.68805 -3.99649,-4.69211 -2.0367,-0.003 -5.80259,1.73015 -6.19313,2.85022 -0.39848,1.14287 -0.35369,2.2363 0.14,3.41764 0.81837,1.95827 0.91797,1.99909 4.87676,1.99909 h 3.56155 z m -2.50178,-3.05242 v -1.10227 h 1.10248 1.10249 v 1.10227 1.10226 h -1.10249 -1.10248 z m -5.06879,-4.35526 c -0.69876,-0.0462 -1.85191,-0.0462 -2.56256,0 l -1.2921,0.084 1.08538,0.71934 1.08538,0.71934 1.47718,-0.71934 1.47718,-0.71934 z m 7.94787,-16.61118 c 1.10515,-0.53791 1.14035,-0.89026 0.19464,-1.94849 -0.78121,-0.87415 -0.85678,-0.89878 -1.75786,-0.57301 -1.1539,0.41717 -2.27642,0.43573 -2.99811,0.0496 -0.75234,-0.40256 -1.50426,-0.10184 -2.2048,0.88179 -0.50356,0.70705 -0.53611,0.89016 -0.21387,1.20355 0.99166,0.96443 5.30231,1.20317 6.98,0.38658 z"
       id="path3942-07"
       inkscape:export-filename="C:\Users\gabri\OneDrive\Escritorio\TP-2 Interfaces\fichas\violet.png"
       inkscape:export-xdpi="96"
       inkscape:export-ydpi="96" />
    <ellipse
       style="fill:#ffffff;stroke:#000000;stroke-width:2.117;stroke-miterlimit:4;stroke-dasharray:none;stroke-opacity:1"
       id="path1146-7-1"
       cx="257.66699"
       cy="231.81952"
       rx="35.125999"
       ry="35.125961"
       inkscape:export-filename="C:\xampp\htdocs\proyectos\InterfacesTP2\img\info\bender.png"
       inkscape:export-xdpi="21.058737"
       inkscape:export-ydpi="21.058737" />
    <rect
       style="fill:#ffffff;fill-opacity:1;stroke:#000000;stroke-width:2.93719;stroke-miterlimit:4;stroke-dasharray:none;stroke-opacity:1"
       id="rect3153-4-0"
       width="7.7175426"
       height="66.903358"
       x="253.80823"
       y="198.40353"
       inkscape:export-filename="C:\xampp\htdocs\proyectos\InterfacesTP2\img\info\bender.png"
       inkscape:export-xdpi="21.058737"
       inkscape:export-ydpi="21.058737" />
    <rect
       style="fill:#ffffff;fill-opacity:1;stroke:#000000;stroke-width:2.93719;stroke-miterlimit:4;stroke-dasharray:none;stroke-opacity:0.976744"
       id="rect3153-2-6-0"
       width="7.7175426"
       height="66.903358"
       x="227.65793"
       y="-291.39075"
       transform="rotate(90.067296)"
       inkscape:export-filename="C:\xampp\htdocs\proyectos\InterfacesTP2\img\info\bender.png"
       inkscape:export-xdpi="21.058737"
       inkscape:export-ydpi="21.058737" />
    <rect
       style="fill:#ffffff;fill-opacity:1;stroke:#000000;stroke-width:2.93719;stroke-miterlimit:4;stroke-dasharray:none;stroke-opacity:1"
       id="rect3153-2-5-3-4"
       width="7.7175426"
       height="66.903358"
       x="340.57535"
       y="-63.155491"
       transform="rotate(46.864654)"
       inkscape:export-filename="C:\xampp\htdocs\proyectos\InterfacesTP2\img\info\bender.png"
       inkscape:export-xdpi="21.058737"
       inkscape:export-ydpi="21.058737" />
    <rect
       style="fill:#ffffff;fill-opacity:1;stroke:#000000;stroke-width:2.93719;stroke-miterlimit:4;stroke-dasharray:none;stroke-opacity:1"
       id="rect3153-2-5-8-5-7"
       width="7.7175426"
       height="66.903358"
       x="-17.23535"
       y="-380.02921"
       transform="rotate(134.08941)"
       inkscape:export-filename="C:\xampp\htdocs\proyectos\InterfacesTP2\img\info\bender.png"
       inkscape:export-xdpi="21.058737"
       inkscape:export-ydpi="21.058737" />
    <circle
       style="fill:#ffffff;stroke:#000000;stroke-width:2.373;stroke-miterlimit:4;stroke-dasharray:none;stroke-opacity:1"
       id="path1146-72-5-2"
       cx="257.66699"
       cy="231.81952"
       r="26.916365"
       inkscape:export-filename="C:\xampp\htdocs\proyectos\InterfacesTP2\img\info\bender.png"
       inkscape:export-xdpi="21.058737"
       inkscape:export-ydpi="21.058737" />
    <path
       style="fill:#000000;fill-opacity:1;stroke:#000000;stroke-width:0.275593;stroke-opacity:1"
       d="m 250.88412,254.55691 c -2.47407,-0.31964 -4.40775,-0.99026 -5.30568,-1.84009 -0.67105,-0.6351 -0.75796,-0.91681 -0.75796,-2.45697 0,-1.9638 0.49377,-2.73394 1.93795,-3.02273 l 0.81825,-0.16361 v -2.82629 -2.82628 l -1.30919,-0.32624 c -1.89106,-0.47123 -2.54949,-0.97485 -2.54949,-1.95006 v -0.82035 h -1.74818 c -2.33292,0 -3.90711,-0.81259 -4.78326,-2.46908 -0.56378,-1.06592 -0.63468,-1.58142 -0.63468,-4.61488 0,-3.90847 0.25005,-4.67014 1.86829,-5.69103 0.56415,-0.3559 2.2344,-1.06825 3.71167,-1.583 l 2.68595,-0.93592 0.001,-1.9733 c 0.002,-2.39772 0.69838,-4.77849 1.91647,-6.54858 1.08419,-1.57551 3.7078,-3.56256 5.57446,-4.22195 0.92749,-0.32763 1.53668,-0.75521 1.89107,-1.32731 0.28756,-0.46419 0.8331,-1.01001 1.21234,-1.21293 0.57319,-0.3067 0.72027,-0.64082 0.87188,-1.98056 0.10032,-0.8864 0.30255,-1.61163 0.44945,-1.61163 0.1646,0 0.19194,0.64727 0.0713,1.6869 -0.22264,1.91792 -0.0507,2.16258 1.5198,2.16258 1.55489,0 1.71625,-0.23201 1.49867,-2.1548 -0.1345,-1.18851 -0.0989,-1.69468 0.11945,-1.69468 0.17118,0 0.31123,0.35651 0.31123,0.79225 0,1.56021 0.32204,2.44723 1.00078,2.75642 0.36785,0.16757 0.91411,0.72034 1.21392,1.22837 0.39274,0.6655 0.87202,1.01942 1.71468,1.26619 2.74871,0.80494 5.45166,3.20902 6.77016,6.02158 l 0.73868,1.5757 0.0794,16.03023 0.0794,16.03023 -0.86089,0.9803 c -1.00463,1.14399 -3.56296,2.46254 -5.9127,3.04738 -3.64031,0.90606 -10.04484,1.21023 -14.19443,0.67414 z m 13.47725,-1.61609 c 2.58477,-0.64077 5.39375,-2.01149 5.99162,-2.92377 0.33136,-0.50562 0.38106,-3.06802 0.31563,-16.27348 l -0.0777,-15.67337 -0.72631,-1.54869 c -0.99705,-2.12601 -2.45451,-3.64972 -4.43972,-4.64155 -1.88964,-0.94408 -2.52973,-1.00447 -4.45557,-0.42036 -1.81975,0.55193 -3.84202,0.50317 -5.67531,-0.13683 l -1.51591,-0.52921 -1.71527,0.79585 c -2.20538,1.02325 -4.27968,2.97264 -5.23038,4.91543 -0.60893,1.24436 -0.7719,2.01442 -0.86195,4.07279 l -0.11104,2.53829 1.61655,0.37058 c 2.39073,0.54806 12.61277,0.47436 14.974,-0.10795 2.01535,-0.49702 2.5957,-0.33746 3.90624,1.07395 1.39998,1.50773 1.61628,2.29047 1.61628,5.84875 0,1.8164 -0.13163,3.65163 -0.29252,4.07829 -0.46658,1.23731 -1.89866,2.51907 -3.55197,3.17911 -1.44799,0.57808 -2.00798,0.6161 -10.43534,0.70863 l -8.90525,0.0978 0.0854,0.59942 c 0.0592,0.41583 0.42306,0.72058 1.18789,0.99506 1.70709,0.61261 10.02318,0.55887 15.19021,-0.0982 4.12789,-0.52491 4.17373,-0.52482 5.08921,0.01 1.40434,0.82001 1.98412,2.05155 2.12692,4.51785 0.15073,2.60312 -0.2164,3.83001 -1.47727,4.93685 -1.13853,0.99945 -2.98447,1.56656 -6.3212,1.942 -5.64001,0.63462 -11.83111,0.0728 -13.51391,-1.22634 -0.51357,-0.39648 -0.51682,-0.43912 -0.0604,-0.79382 0.62497,-0.48569 0.61786,-1.003 -0.0138,-1.003 -0.82952,0 -1.1576,0.59238 -1.1576,2.09017 0,1.57279 0.31071,1.93081 2.21798,2.5556 3.12528,1.02381 12.18034,1.05194 16.22043,0.0504 z m -6.86236,-3.5939 v -1.10226 h -2.59586 c -1.42771,0 -2.79203,-0.0753 -3.03182,-0.16726 -0.35314,-0.13549 -0.43597,0.0439 -0.43597,0.94427 0,1.33507 0.0427,1.35203 3.51416,1.39555 l 2.54949,0.032 z m 5.16786,0.51373 c 1.27237,-0.24377 1.44702,-0.35802 1.44702,-0.94661 0,-0.36816 0.12402,-0.66938 0.27561,-0.66938 0.15159,0 0.27562,0.24801 0.27562,0.55113 0,0.66128 0.073,0.67002 1.11151,0.13312 0.75903,-0.39244 1.84227,-1.9564 1.55439,-2.24422 -0.072,-0.072 -0.78442,0.0631 -1.5831,0.30024 -0.79869,0.23714 -1.51376,0.36958 -1.58903,0.29431 -0.19688,-0.19682 -0.0746,-0.2615 1.60872,-0.85047 l 1.5159,-0.53042 0.0833,-1.44472 c 0.0889,-1.54108 0.0437,-1.60578 -0.80492,-1.15173 -0.30117,0.16114 -0.75812,0.24556 -1.01547,0.1876 -0.32203,-0.0725 -0.14571,-0.24538 0.5657,-0.5545 0.56846,-0.247 1.02962,-0.54843 1.0248,-0.66983 -0.024,-0.60376 -1.4447,-1.73635 -2.17808,-1.73635 -0.18832,0 -0.29374,0.98894 -0.29374,2.75565 0,1.6534 -0.11024,2.75566 -0.27561,2.75566 -0.16552,0 -0.27562,-1.10956 -0.27562,-2.77755 v -2.77755 l -0.75796,0.14924 c -0.41687,0.0821 -1.37809,0.22139 -2.13606,0.30958 -3.40052,0.39565 -3.16963,0.25497 -3.16963,1.93112 0,1.06893 0.0981,1.464 0.34453,1.38747 0.18949,-0.0589 1.33676,-0.18635 2.54949,-0.28333 1.57403,-0.12587 2.12079,-0.0914 1.91081,0.1204 -0.16178,0.16319 -1.30905,0.37496 -2.54949,0.4706 l -2.25534,0.17388 v 1.42346 1.42346 l 1.72263,-0.11644 c 1.19635,-0.0809 1.63842,-0.0281 1.447,0.17256 -0.15159,0.15895 -0.89576,0.32744 -1.65372,0.37442 l -1.37809,0.0854 -0.0858,1.1931 -0.0858,1.1931 1.60173,-0.17759 c 0.88095,-0.0977 2.25289,-0.30235 3.04874,-0.45483 z m -0.2067,-2.44269 c 0,-0.15156 0.25537,-0.27556 0.5675,-0.27556 0.31213,0 0.49086,0.124 0.39716,0.27556 -0.0936,0.15156 -0.34906,0.27557 -0.5675,0.27557 -0.21845,0 -0.39716,-0.12401 -0.39716,-0.27557 z m -11.57605,1.68611 c 0,-1.0356 -0.0389,-1.07933 -1.22453,-1.37783 -1.64111,-0.41315 -1.57626,-0.44494 -1.4794,0.7251 0.0805,0.97187 0.15935,1.05255 1.32583,1.35565 0.68216,0.17725 1.2713,0.33226 1.3092,0.34445 0.0379,0.0122 0.0689,-0.45912 0.0689,-1.04737 z m 6.61489,-2.78837 v -1.37783 l -2.6873,-0.002 c -2.57532,-0.002 -5.17718,-0.29306 -6.20145,-0.69486 -0.4202,-0.16483 -0.48234,-0.0121 -0.48234,1.18539 v 1.3746 l 1.22453,0.30828 c 0.67349,0.16955 1.29364,0.30828 1.3781,0.30828 0.0845,6e-5 0.15357,-0.43396 0.15357,-0.96442 0,-0.53047 0.12403,-0.96448 0.27562,-0.96448 0.15159,0 0.27562,0.41335 0.27562,0.91855 0,0.5052 0.0827,1.00122 0.18375,1.10226 0.10105,0.10104 1.46538,0.18371 3.03182,0.18371 h 2.84808 z m 0,-3.48296 v -1.55399 l -1.44702,0.17377 c -0.79585,0.0956 -2.16017,0.17485 -3.03181,0.17617 -1.57663,0.002 -1.58482,0.007 -1.58482,0.82909 0,0.45468 -0.12403,0.82669 -0.27562,0.82669 -0.15159,0 -0.27562,-0.37201 -0.27562,-0.82669 0,-0.75732 -0.0791,-0.8267 -0.94213,-0.8267 -0.51817,0 -1.13831,-0.0753 -1.3781,-0.16727 -0.3531,-0.13546 -0.43597,0.0438 -0.43597,0.94311 0,1.01126 0.08,1.13552 0.89577,1.39196 1.40888,0.44287 2.06746,0.51031 5.37458,0.55033 l 3.10074,0.0375 z m 4.74087,-5.92023 c 2.03125,-0.43046 3.4524,-1.21049 4.10034,-2.25058 0.4915,-0.78896 0.54243,-1.28088 0.47153,-4.55493 l -0.0795,-3.67046 -1.25523,-1.18501 -1.25522,-1.185 -1.91441,0.42698 c -2.75244,0.61391 -12.80722,0.61551 -15.24295,0.002 l -1.75251,-0.44109 -2.93303,0.97977 c -2.14292,0.71584 -3.17434,1.21997 -3.8288,1.87142 l -0.89577,0.89164 v 3.34803 c 0,3.77086 0.27416,4.64518 1.73601,5.53635 0.83332,0.508 1.45247,0.53797 11.13566,0.53894 6.53867,5.5e-4 10.78243,-0.1111 11.71386,-0.30849 z m -21.89476,-1.22412 c -0.41497,-0.22511 -0.94209,-0.77201 -1.17138,-1.21532 -0.56595,-1.0942 -0.56518,-4.98314 0.001,-6.07817 0.82393,-1.59304 1.16486,-1.64438 10.91941,-1.64438 8.40741,0 8.94728,0.0305 10.05726,0.5677 1.5565,0.75335 2.30854,2.26193 2.30854,4.63096 0,2.01448 -0.50309,3.16234 -1.6447,3.75257 -1.18639,0.61338 -19.33687,0.60154 -20.47034,-0.0134 z m 2.52902,-1.19278 c -1.15767,-2.22059 -0.93269,-4.67987 0.57956,-6.33524 l 0.78447,-0.85872 h -1.65939 c -1.46656,0 -1.753,0.0936 -2.46504,0.8055 -0.77312,0.77297 -0.80566,0.9074 -0.80566,3.32799 0,2.4206 0.0325,2.55503 0.80566,3.32799 0.65494,0.65481 1.04083,0.8055 2.06272,0.8055 h 1.25707 z m 8.38456,0.56481 c 0.42622,-0.47088 0.42723,-0.58669 0.0137,-1.5762 -0.43086,-1.03101 -0.42387,-2.68052 0.0159,-3.74977 0.14263,-0.34679 -0.17252,-0.70437 -1.27506,-1.44672 -1.28397,-0.86451 -1.67277,-0.98608 -3.15366,-0.98608 -2.00414,0 -2.92926,0.57691 -3.72139,2.32065 -0.62577,1.37756 -0.65665,2.61219 -0.0987,3.94724 0.80811,1.93369 0.95654,1.99909 4.53722,1.99909 2.78128,0 3.28493,-0.0695 3.68202,-0.50821 z m -4.23326,-3.34971 v -1.10227 h 1.10248 1.10248 v 1.10227 1.10226 h -1.10248 -1.10248 z m 14.07782,3.05242 c 0.73973,-0.73959 0.80566,-0.9662 0.80566,-2.76934 0,-3.22655 -1.24482,-4.68805 -3.99649,-4.69211 -2.0367,-0.003 -5.80259,1.73015 -6.19313,2.85022 -0.39848,1.14287 -0.35369,2.2363 0.14,3.41764 0.81837,1.95827 0.91797,1.99909 4.87676,1.99909 h 3.56155 z m -2.50178,-3.05242 v -1.10227 h 1.10248 1.10249 v 1.10227 1.10226 h -1.10249 -1.10248 z m -5.06879,-4.35526 c -0.69876,-0.0462 -1.85191,-0.0462 -2.56256,0 l -1.2921,0.084 1.08538,0.71934 1.08538,0.71934 1.47718,-0.71934 1.47718,-0.71934 z m 7.94787,-16.61118 c 1.10515,-0.53791 1.14035,-0.89026 0.19464,-1.94849 -0.78121,-0.87415 -0.85678,-0.89878 -1.75786,-0.57301 -1.1539,0.41717 -2.27642,0.43573 -2.99811,0.0496 -0.75234,-0.40256 -1.50426,-0.10184 -2.2048,0.88179 -0.50356,0.70705 -0.53611,0.89016 -0.21387,1.20355 0.99166,0.96443 5.30231,1.20317 6.98,0.38658 z"
       id="path3942-07-2"
       inkscape:export-filename="C:\xampp\htdocs\proyectos\InterfacesTP2\img\info\bender.png"
       inkscape:export-xdpi="21.058737"
       inkscape:export-ydpi="21.058737" />
  </g>
</svg>
