<?xml version="1.0" encoding="UTF-8" standalone="no"?>
<!-- Created with Inkscape (http://www.inkscape.org/) -->

<svg
   width="210mm"
   height="297mm"
   viewBox="0 0 210 297"
   version="1.1"
   id="svg5"
   inkscape:version="1.1 (c68e22c387, 2021-05-23)"
   sodipodi:docname="profesor.svg"
   inkscape:export-filename="C:\Users\gabri\OneDrive\Escritorio\green.png"
   inkscape:export-xdpi="96"
   inkscape:export-ydpi="96"
   xmlns:inkscape="http://www.inkscape.org/namespaces/inkscape"
   xmlns:sodipodi="http://sodipodi.sourceforge.net/DTD/sodipodi-0.dtd"
   xmlns="http://www.w3.org/2000/svg"
   xmlns:svg="http://www.w3.org/2000/svg">
  <sodipodi:namedview
     id="namedview7"
     pagecolor="#ffffff"
     bordercolor="#666666"
     borderopacity="1.0"
     inkscape:pageshadow="2"
     inkscape:pageopacity="0.0"
     inkscape:pagecheckerboard="0"
     inkscape:document-units="mm"
     showgrid="false"
     inkscape:zoom="0.46324356"
     inkscape:cx="360.5015"
     inkscape:cy="661.63899"
     inkscape:window-width="1366"
     inkscape:window-height="705"
     inkscape:window-x="-8"
     inkscape:window-y="-8"
     inkscape:window-maximized="1"
     inkscape:current-layer="layer1"
     inkscape:snap-intersection-paths="false"
     inkscape:snap-midpoints="false"
     inkscape:snap-smooth-nodes="false"
     inkscape:snap-bbox="false"
     inkscape:bbox-nodes="false"
     inkscape:bbox-paths="false"
     inkscape:snap-bbox-midpoints="false"
     inkscape:object-nodes="false"
     inkscape:snap-others="false"
     inkscape:snap-nodes="false" />
  <defs
     id="defs2" />
  <g
     inkscape:label="Capa 1"
     inkscape:groupmode="layer"
     id="layer1">
    <ellipse
       style="fill:#ffff00;stroke:#000000;stroke-width:2.117;stroke-miterlimit:4;stroke-dasharray:none;stroke-opacity:1"
       id="path1146-2"
       cx="129.9877"
       cy="45.233078"
       rx="35.125999"
       ry="35.125961"
       inkscape:export-filename="C:\Users\gabri\OneDrive\Escritorio\TP-2 material\fichas\profesor\yellow.png"
       inkscape:export-xdpi="96"
       inkscape:export-ydpi="96" />
    <rect
       style="fill:#000000;fill-opacity:1;stroke:#000000;stroke-width:2.93719;stroke-miterlimit:4;stroke-dasharray:none;stroke-opacity:1"
       id="rect3153-3"
       width="7.7175426"
       height="66.903358"
       x="126.12891"
       y="11.817095"
       inkscape:export-filename="C:\Users\gabri\OneDrive\Escritorio\TP-2 material\fichas\profesor\yellow.png"
       inkscape:export-xdpi="96"
       inkscape:export-ydpi="96" />
    <rect
       style="fill:#000000;fill-opacity:1;stroke:#000000;stroke-width:2.93719;stroke-miterlimit:4;stroke-dasharray:none;stroke-opacity:0.976744"
       id="rect3153-2-6"
       width="7.7175426"
       height="66.903358"
       x="41.2216"
       y="-163.49242"
       transform="rotate(90.067296)"
       inkscape:export-filename="C:\Users\gabri\OneDrive\Escritorio\TP-2 material\fichas\profesor\yellow.png"
       inkscape:export-xdpi="96"
       inkscape:export-ydpi="96" />
    <rect
       style="fill:#040000;fill-opacity:1;stroke:#000000;stroke-width:2.93719;stroke-miterlimit:4;stroke-dasharray:none;stroke-opacity:1"
       id="rect3153-2-5-7"
       width="7.7175426"
       height="66.903358"
       x="117.11821"
       y="-97.556358"
       transform="rotate(46.864654)"
       inkscape:export-filename="C:\Users\gabri\OneDrive\Escritorio\TP-2 material\fichas\profesor\yellow.png"
       inkscape:export-xdpi="96"
       inkscape:export-ydpi="96" />
    <rect
       style="fill:#000000;fill-opacity:1;stroke:#000000;stroke-width:2.93719;stroke-miterlimit:4;stroke-dasharray:none;stroke-opacity:1"
       id="rect3153-2-5-8-9"
       width="7.7175426"
       height="66.903358"
       x="-62.415268"
       y="-158.49977"
       transform="rotate(134.08941)"
       inkscape:export-filename="C:\Users\gabri\OneDrive\Escritorio\TP-2 material\fichas\profesor\yellow.png"
       inkscape:export-xdpi="96"
       inkscape:export-ydpi="96" />
    <circle
       style="fill:#ffff00;stroke:#000000;stroke-width:2.373;stroke-miterlimit:4;stroke-dasharray:none;stroke-opacity:1"
       id="path1146-72-7"
       cx="129.9877"
       cy="45.233078"
       r="26.916365"
       inkscape:export-filename="C:\Users\gabri\OneDrive\Escritorio\TP-2 material\fichas\profesor\yellow.png"
       inkscape:export-xdpi="96"
       inkscape:export-ydpi="96" />
    <path
       style="fill:#000000;stroke:#000000;stroke-width:0.673008;stroke-miterlimit:4;stroke-dasharray:none;stroke-opacity:1"
       d="m 116.01923,67.047449 c -0.33822,-1.650707 -0.7575,-4.588248 -0.93175,-6.527851 -0.17423,-1.939632 -0.40712,-3.526594 -0.5175,-3.526594 -0.44867,0 -4.24855,2.722383 -4.81529,3.449837 -0.33508,0.430149 -0.97657,2.051635 -1.42555,3.603344 -0.54157,1.871726 -0.82489,2.34649 -0.8418,1.410613 -0.0534,-2.95006 1.85738,-6.043684 4.84453,-7.843716 1.56072,-0.940478 3.4464,-2.670815 4.19046,-3.84522 0.7637,-1.205435 2.33224,-2.626673 3.602,-3.263741 2.58118,-1.295073 2.9199,-2.795447 1.39351,-6.172709 -0.71956,-1.592102 -0.77408,-2.257839 -0.27886,-3.404651 0.7556,-1.749722 0.30074,-1.817559 -1.33241,-0.198761 -0.68078,0.674784 -1.23775,1.043512 -1.23775,0.819437 0,-0.224093 0.58188,-0.976417 1.29307,-1.671813 l 1.29304,-1.264405 -1.00819,-3.081617 c -1.09116,-3.335147 -1.36474,-9.01066 -0.51511,-10.685695 1.69632,-3.344252 8.66315,-4.555956 13.07385,-2.273894 1.19586,0.618733 4.5702,3.538744 7.49857,6.48891 2.92836,2.950165 5.50469,5.363937 5.72519,5.363937 0.41027,0 3.92535,2.330577 5.12777,3.399824 0.36766,0.32693 0.65322,1.028773 0.63458,1.559644 -0.0251,0.710628 -0.1619,0.62914 -0.51917,-0.308975 -0.64524,-1.694224 -2.73384,-2.691012 -4.06434,-1.939715 -0.55507,0.313433 -1.64025,0.442606 -2.41151,0.28705 -1.6276,-0.328272 -2.13386,0.259735 -1.70688,1.982515 0.37731,1.5223 1.2488,1.613896 1.2488,0.131156 0,-0.602376 0.2264,-1.242841 0.50311,-1.423278 0.29411,-0.191722 0.39163,0.438998 0.23477,1.518394 -0.23742,1.633618 -0.0435,2.005124 1.68316,3.222842 2.17129,1.531385 3.21615,1.257749 4.38959,-1.14965 0.64251,-1.318144 0.6608,-1.321616 0.66847,-0.126675 0.004,0.67574 -0.57612,1.713315 -1.28992,2.305738 -1.10025,0.913157 -1.25431,1.419355 -1.01201,3.325418 0.20623,1.622298 0.0465,2.500804 -0.57358,3.155087 -0.78936,0.832824 -0.75045,0.997165 0.47721,2.016062 3.37277,2.799198 0.15664,3.970577 -4.19645,1.528443 l -2.48365,-1.393339 -2.39508,1.70549 c -1.3173,0.938025 -2.5359,1.945894 -2.70801,2.239728 -0.17201,0.293829 -0.74217,0.534221 -1.26683,0.534221 -0.52464,0 -1.98867,0.57736 -3.2534,1.283018 l -2.29951,1.283019 -0.0182,5.064839 c -0.0182,4.716264 -0.0326,4.783293 -0.21362,0.973983 -0.10692,-2.249967 -0.32625,-4.090833 -0.48732,-4.090833 -0.1611,0 -0.75059,0.571303 -1.31001,1.269561 -0.8117,1.013181 -0.96892,1.896317 -0.77842,4.372958 l 0.23871,3.103395 -0.55214,-2.58615 c -0.50266,-2.354403 -0.6932,-2.586175 -2.12631,-2.586175 -0.98388,0 -2.14274,-0.574693 -3.09033,-1.532574 l -1.51615,-1.532603 0.47018,3.272365 c 0.2586,1.799812 0.57747,3.589776 0.70858,3.977699 0.13118,0.387917 0.0402,0.705314 -0.20212,0.705314 -0.5829,0 -1.93592,-9.604951 -1.90764,-13.542065 0.0142,-2.103178 0.35915,-3.640534 1.06744,-4.769967 l 1.04513,-1.66659 -2.27195,1.347274 c -2.42499,1.438023 -4.41117,4.797924 -4.41117,7.46211 0,0.798745 0.37517,3.538979 0.83371,6.089406 0.92332,5.135561 0.69812,6.904045 -0.2746,2.156453 z m 11.45494,-3.90611 c 2.39686,-2.220426 2.55971,-3.495598 0.33316,-2.608859 -1.36569,0.543876 -1.79108,0.431933 -3.45884,-0.910219 -1.21693,-0.979337 -2.1344,-2.350034 -2.54805,-3.806712 -0.51519,-1.814318 -0.745,-2.090339 -1.13233,-1.360073 -0.26729,0.503939 -0.32379,2.160568 -0.12552,3.681422 0.29427,2.257515 0.74474,3.131499 2.45359,4.76043 1.15124,1.097374 2.20442,1.995222 2.34041,1.995222 0.13603,0 1.0979,-0.788037 2.1376,-1.751211 z m 1.17854,-3.555422 c 3.69099,-1.932354 6.50594,-3.157152 7.25601,-3.157152 0.4465,0 1.14212,-0.420212 1.54579,-0.933789 0.40369,-0.513577 1.51609,-1.278732 2.47201,-1.700328 2.64449,-1.166326 2.20964,-2.093305 -0.80218,-1.710054 -1.65196,0.210273 -2.16622,0.152268 -1.47065,-0.165707 2.02467,-0.925721 4.38157,-0.564389 7.26785,1.114209 2.53847,1.476318 5.29959,2.222795 5.29959,1.432769 0,-0.609416 -6.05216,-6.500832 -6.67817,-6.500832 -0.37282,0 -0.96407,-0.363886 -1.31391,-0.808623 -0.50561,-0.642785 -0.40938,-1.047791 0.46929,-1.974876 1.14972,-1.213075 2.17493,-1.527868 2.17493,-0.667828 0,0.274148 -0.48129,0.631253 -1.06956,0.793565 -1.31913,0.363971 -1.39467,1.444093 -0.1338,1.911818 0.51473,0.190872 1.58331,0.977674 2.37461,1.748333 2.049,1.995569 3.34799,1.357982 2.92474,-1.435583 -0.2348,-1.549792 -0.92372,-2.660284 -2.60866,-4.205061 -2.67191,-2.449601 -2.90423,-2.516648 -3.36884,-0.972149 -0.19201,0.638358 -1.11068,1.539364 -2.04148,2.002287 -1.46184,0.727004 -2.12939,0.738031 -4.90105,0.08104 -2.75116,-0.652215 -3.32311,-1.012876 -4.01089,-2.529337 -0.4412,-0.972748 -1.28349,-1.908876 -1.87175,-2.080255 -1.72001,-0.501118 -5.61523,-0.373204 -5.61523,0.184474 0,0.281292 -0.43796,0.390587 -0.97324,0.242901 -0.53527,-0.147786 -1.283,0.125185 -1.66162,0.606645 -0.56588,0.719412 -0.52219,1.404214 0.24558,3.847933 0.5137,1.635025 1.02355,3.31855 1.133,3.741171 0.13159,0.508306 0.74569,0.683757 1.81402,0.518305 1.07226,-0.166126 1.436,-0.06121 1.08239,0.311874 -0.29294,0.309058 -1.00237,0.598453 -1.57654,0.643086 -1.44124,0.111967 -2.73752,1.354357 -2.73752,2.623557 0,1.310535 0.42798,1.336318 1.71896,0.103648 0.94164,-0.899125 0.98004,-0.898187 0.64766,0.01496 -0.19424,0.534302 -0.80936,1.228999 -1.36678,1.543749 -0.81364,0.459452 -0.90215,0.79167 -0.44893,1.685168 0.54379,1.072084 0.61211,1.076387 1.86174,0.117291 0.71347,-0.547545 1.30481,-1.304006 1.31404,-1.681008 0.0162,-0.678552 2.15595,-2.213879 2.15595,-1.547269 0,0.190438 -1.0132,1.342947 -2.25154,2.561304 -2.09781,2.063963 -2.19093,2.279166 -1.3638,3.151872 0.62605,0.66055 1.0927,0.768848 1.58305,0.36738 0.38242,-0.313087 1.17662,-0.730332 1.7649,-0.927211 0.93727,-0.313707 0.92073,-0.246232 -0.1336,0.54548 -2.26091,1.697572 -1.34101,2.481009 1.29363,1.101701 z m 4.53542,-5.003587 c -0.057,-1.111947 0.53846,-2.272363 2.05902,-4.012872 1.17654,-1.346699 2.13914,-2.737563 2.13914,-3.090787 0,-0.353202 0.24913,-0.642217 0.5536,-0.642217 0.82612,0 -0.37492,2.106104 -2.44894,4.294414 -0.97533,1.02907 -1.87444,2.578601 -1.99801,3.443396 l -0.22467,1.572377 z m 2.29762,-1.588243 c -0.19768,-0.337377 -0.1431,-0.841591 0.12128,-1.120451 0.2842,-0.299865 0.48055,-0.04926 0.48055,0.613422 0,1.282104 -0.0988,1.365467 -0.60179,0.507029 z m -11.11256,-5.405286 c -0.19606,-0.206867 -0.35652,-1.080594 -0.35652,-1.941591 0,-0.860978 -0.24065,-1.72234 -0.53479,-1.914128 -0.29413,-0.191719 -0.53477,-0.868736 -0.53477,-1.504321 0,-0.821906 0.24425,-1.056664 0.8459,-0.813079 0.46527,0.188314 0.94657,0.342498 1.06958,0.342498 0.1231,0 0.22365,0.285027 0.22365,0.633343 0,0.437591 -0.24794,0.416241 -0.80217,-0.0691 -0.65488,-0.573459 -0.80219,-0.540447 -0.80219,0.179778 0,0.485188 0.24065,1.03909 0.53479,1.2309 0.29415,0.19172 0.5348,0.968522 0.5348,1.726045 0,0.8713 0.30631,1.377326 0.83373,1.377326 0.45856,0 0.685,0.25393 0.50323,0.564265 -0.38171,0.651624 -1.00284,0.728713 -1.51524,0.1881 z m 8.73482,-1.534669 c 0,-0.119853 0.72197,-0.329897 1.60436,-0.466531 0.88239,-0.1367 1.60435,-0.03858 1.60435,0.21808 0,0.256596 -0.72196,0.466532 -1.60435,0.466532 -0.88239,0 -1.60436,-0.09811 -1.60436,-0.218081 z m 8.84031,-3.36332 c 1.07498,-1.619285 0.98564,-2.978804 -0.28376,-4.31815 -1.54746,-1.632699 -4.03822,-1.475316 -5.15677,0.325868 -2.36343,3.80579 2.96748,7.717636 5.44053,3.992282 z m -3.49246,-0.342451 c 0,-0.55512 2.07137,-1.414007 2.44908,-1.015467 0.12613,0.133078 -0.37328,0.531703 -1.10985,0.885801 -0.73658,0.354103 -1.33923,0.412448 -1.33923,0.129666 z m -0.0744,-2.819266 c 0.69438,-0.63603 1.47649,-1.156433 1.73804,-1.156433 0.93492,0 0.44776,0.549491 -1.2625,1.42405 l -1.73804,0.888791 z m -2.96879,1.957902 c -0.2037,-1.324435 -0.0142,-2.426885 0.58074,-3.385513 0.84631,-1.362826 0.83665,-1.421576 -0.23426,-1.421576 -1.84413,0 -3.07783,1.017745 -3.46019,2.854475 -0.40776,1.958904 0.82321,3.916559 2.46271,3.916559 0.78954,0 0.90125,-0.336973 0.651,-1.963945 z m -3.37418,-3.074027 c 0,-2.04999 3.94423,-2.915788 8.02177,-1.760851 1.28197,0.3631 2.79074,0.306072 4.78826,-0.181061 3.08479,-0.752145 3.01372,-1.379303 -0.18352,-1.62059 -1.95039,-0.147146 -2.48681,-0.653557 -1.26227,-1.191551 1.08215,-0.475465 -1.17237,-2.047944 -3.04353,-2.12282 -0.89973,-0.03604 -1.2147,-0.181486 -0.69995,-0.323496 0.51472,-0.142032 0.93587,-0.626581 0.93587,-1.077009 0,-0.966776 -2.51589,-2.104268 -3.64398,-1.647548 -0.63974,0.259028 -0.66317,0.162506 -0.12613,-0.520251 0.54198,-0.689023 0.38877,-1.106907 -0.86024,-2.3464 -4.56083,-4.52608 -12.59899,-4.875229 -15.39159,-0.668553 -1.173,1.766995 -1.04967,6.322055 0.28402,10.488917 l 1.11868,3.495087 h 5.03135 c 2.76725,0 5.03136,-0.23578 5.03136,-0.523958 z m -0.29887,-4.290147 c 0.57094,-0.455632 1.41323,-0.826854 1.87175,-0.824956 0.4585,0.0019 0.14431,0.382781 -0.69814,0.846389 -1.93915,1.067074 -2.52419,1.056385 -1.17361,-0.02132 z m -0.35973,-3.180486 c 0.31076,-0.32789 0.88069,-0.485149 1.2665,-0.34945 0.40053,0.140752 0.15806,0.396644 -0.56503,0.596171 -0.88953,0.24542 -1.09832,0.171889 -0.70147,-0.246721 z m 16.70214,11.701941 c 0,-0.155254 0.48132,-0.55392 1.06958,-0.886098 0.58826,-0.332177 1.06957,-0.477001 1.06957,-0.321832 0,0.155256 -0.48131,0.553926 -1.06957,0.886097 -0.58826,0.332178 -1.06958,0.477003 -1.06958,0.321833 z m -0.83366,-2.878911 c 0.57096,-0.455652 1.27876,-0.828434 1.57289,-0.828434 0.29413,0 0.0677,0.372782 -0.50331,0.828434 -0.57096,0.455628 -1.27874,0.828434 -1.57287,0.828434 -0.29413,0 -0.0677,-0.372806 0.50329,-0.828434 z"
       id="path58-8"
       inkscape:export-filename="C:\Users\gabri\OneDrive\Escritorio\TP-2 material\fichas\profesor\yellow.png"
       inkscape:export-xdpi="96"
       inkscape:export-ydpi="96" />
    <ellipse
       style="fill:#0659d4;fill-opacity:1;stroke:#000000;stroke-width:2.117;stroke-miterlimit:4;stroke-dasharray:none;stroke-opacity:1"
       id="path1146-2-6"
       cx="48.00275"
       cy="134.89149"
       rx="35.125999"
       ry="35.125961"
       inkscape:export-filename="C:\Users\gabri\OneDrive\Escritorio\TP-2 material\fichas\profesor\blue.png"
       inkscape:export-xdpi="96"
       inkscape:export-ydpi="96" />
    <rect
       style="fill:#060000;fill-opacity:1;stroke:#000000;stroke-width:2.93719;stroke-miterlimit:4;stroke-dasharray:none;stroke-opacity:1"
       id="rect3153-3-4"
       width="7.7175426"
       height="66.903358"
       x="44.14397"
       y="101.47552"
       inkscape:export-filename="C:\Users\gabri\OneDrive\Escritorio\TP-2 material\fichas\profesor\blue.png"
       inkscape:export-xdpi="96"
       inkscape:export-ydpi="96" />
    <rect
       style="fill:#060000;fill-opacity:1;stroke:#000000;stroke-width:2.93719;stroke-miterlimit:4;stroke-dasharray:none;stroke-opacity:0.976744"
       id="rect3153-2-6-2"
       width="7.7175426"
       height="66.903358"
       x="130.97626"
       y="-81.612823"
       transform="rotate(90.067296)"
       inkscape:export-filename="C:\Users\gabri\OneDrive\Escritorio\TP-2 material\fichas\profesor\blue.png"
       inkscape:export-xdpi="96"
       inkscape:export-ydpi="96" />
    <rect
       style="fill:#060000;fill-opacity:1;stroke:#000000;stroke-width:2.93719;stroke-miterlimit:4;stroke-dasharray:none;stroke-opacity:1"
       id="rect3153-2-5-7-3"
       width="7.7175426"
       height="66.903358"
       x="126.49052"
       y="23.573017"
       transform="rotate(46.864654)"
       inkscape:export-filename="C:\Users\gabri\OneDrive\Escritorio\TP-2 material\fichas\profesor\blue.png"
       inkscape:export-xdpi="96"
       inkscape:export-ydpi="96" />
    <rect
       style="fill:#060008;fill-opacity:1;stroke:#000000;stroke-width:2.93719;stroke-miterlimit:4;stroke-dasharray:none;stroke-opacity:1"
       id="rect3153-2-5-8-9-9"
       width="7.7175426"
       height="66.903358"
       x="59.025829"
       y="-161.99622"
       transform="rotate(134.08941)"
       inkscape:export-filename="C:\Users\gabri\OneDrive\Escritorio\TP-2 material\fichas\profesor\blue.png"
       inkscape:export-xdpi="96"
       inkscape:export-ydpi="96" />
    <circle
       style="fill:#0659d4;fill-opacity:1;stroke:#000000;stroke-width:2.373;stroke-miterlimit:4;stroke-dasharray:none;stroke-opacity:1"
       id="path1146-72-7-0"
       cx="48.00275"
       cy="134.89149"
       r="26.916365"
       inkscape:export-filename="C:\Users\gabri\OneDrive\Escritorio\TP-2 material\fichas\profesor\blue.png"
       inkscape:export-xdpi="96"
       inkscape:export-ydpi="96" />
    <ellipse
       style="fill:#ff0000;fill-opacity:1;stroke:#000000;stroke-width:2.117;stroke-miterlimit:4;stroke-dasharray:none;stroke-opacity:1"
       id="path1146-2-6-8"
       cx="137.66118"
       cy="134.48764"
       rx="35.125999"
       ry="35.125961"
       inkscape:export-filename="C:\Users\gabri\OneDrive\Escritorio\TP-2 material\fichas\profesor\red.png"
       inkscape:export-xdpi="96"
       inkscape:export-ydpi="96" />
    <rect
       style="fill:#000000;fill-opacity:1;stroke:#000000;stroke-width:2.93719;stroke-miterlimit:4;stroke-dasharray:none;stroke-opacity:1"
       id="rect3153-3-4-8"
       width="7.7175426"
       height="66.903358"
       x="133.8024"
       y="101.07166"
       inkscape:export-filename="C:\Users\gabri\OneDrive\Escritorio\TP-2 material\fichas\profesor\red.png"
       inkscape:export-xdpi="96"
       inkscape:export-ydpi="96" />
    <rect
       style="fill:#000000;fill-opacity:1;stroke:#000000;stroke-width:2.93719;stroke-miterlimit:4;stroke-dasharray:none;stroke-opacity:0.976744"
       id="rect3153-2-6-2-8"
       width="7.7175426"
       height="66.903358"
       x="130.46709"
       y="-171.27071"
       transform="rotate(90.067296)"
       inkscape:export-filename="C:\Users\gabri\OneDrive\Escritorio\TP-2 material\fichas\profesor\red.png"
       inkscape:export-xdpi="96"
       inkscape:export-ydpi="96" />
    <rect
       style="fill:#000000;fill-opacity:1;stroke:#000000;stroke-width:2.93719;stroke-miterlimit:4;stroke-dasharray:none;stroke-opacity:1"
       id="rect3153-2-5-7-3-6"
       width="7.7175426"
       height="66.903358"
       x="187.49741"
       y="-42.130501"
       transform="rotate(46.864654)"
       inkscape:export-filename="C:\Users\gabri\OneDrive\Escritorio\TP-2 material\fichas\profesor\red.png"
       inkscape:export-xdpi="96"
       inkscape:export-ydpi="96" />
    <rect
       style="fill:#040000;fill-opacity:1;stroke:#000000;stroke-width:2.93719;stroke-miterlimit:4;stroke-dasharray:none;stroke-opacity:1"
       id="rect3153-2-5-8-9-9-1"
       width="7.7175426"
       height="66.903358"
       x="-3.646785"
       y="-226.11281"
       transform="rotate(134.08941)"
       inkscape:export-filename="C:\Users\gabri\OneDrive\Escritorio\TP-2 material\fichas\profesor\red.png"
       inkscape:export-xdpi="96"
       inkscape:export-ydpi="96" />
    <circle
       style="fill:#ff0000;fill-opacity:1;stroke:#000000;stroke-width:2.373;stroke-miterlimit:4;stroke-dasharray:none;stroke-opacity:1"
       id="path1146-72-7-0-1"
       cx="137.66118"
       cy="134.48764"
       r="26.916365"
       inkscape:export-filename="C:\Users\gabri\OneDrive\Escritorio\TP-2 material\fichas\profesor\red.png"
       inkscape:export-xdpi="96"
       inkscape:export-ydpi="96" />
    <ellipse
       style="fill:#00ff00;fill-opacity:1;stroke:#000000;stroke-width:2.117;stroke-miterlimit:4;stroke-dasharray:none;stroke-opacity:1"
       id="path1146-2-6-8-9"
       cx="45.175682"
       cy="225.76152"
       rx="35.125999"
       ry="35.125961"
       inkscape:export-filename="C:\Users\gabri\OneDrive\Escritorio\TP-2 material\fichas\profesor\green.png"
       inkscape:export-xdpi="96"
       inkscape:export-ydpi="96" />
    <rect
       style="fill:#000000;fill-opacity:1;stroke:#000000;stroke-width:2.93719;stroke-miterlimit:4;stroke-dasharray:none;stroke-opacity:1"
       id="rect3153-3-4-8-1"
       width="7.7175426"
       height="66.903358"
       x="41.316902"
       y="192.34554"
       inkscape:export-filename="C:\Users\gabri\OneDrive\Escritorio\TP-2 material\fichas\profesor\green.png"
       inkscape:export-xdpi="96"
       inkscape:export-ydpi="96" />
    <rect
       style="fill:#000000;fill-opacity:1;stroke:#000000;stroke-width:2.93719;stroke-miterlimit:4;stroke-dasharray:none;stroke-opacity:0.976744"
       id="rect3153-2-6-2-8-0"
       width="7.7175426"
       height="66.903358"
       x="221.84953"
       y="-78.892479"
       transform="rotate(90.067296)"
       inkscape:export-filename="C:\Users\gabri\OneDrive\Escritorio\TP-2 material\fichas\profesor\green.png"
       inkscape:export-xdpi="96"
       inkscape:export-ydpi="96" />
    <rect
       style="fill:#000000;fill-opacity:1;stroke:#000000;stroke-width:2.93719;stroke-miterlimit:4;stroke-dasharray:none;stroke-opacity:1"
       id="rect3153-2-5-7-3-6-2"
       width="7.7175426"
       height="66.903358"
       x="190.86909"
       y="87.766068"
       transform="rotate(46.864654)"
       inkscape:export-filename="C:\Users\gabri\OneDrive\Escritorio\TP-2 material\fichas\profesor\green.png"
       inkscape:export-xdpi="96"
       inkscape:export-ydpi="96" />
    <rect
       style="fill:#000000;fill-opacity:1;stroke:#000000;stroke-width:2.93719;stroke-miterlimit:4;stroke-dasharray:none;stroke-opacity:1"
       id="rect3153-2-5-8-9-9-1-5"
       width="7.7175426"
       height="66.903358"
       x="126.2607"
       y="-223.19118"
       transform="rotate(134.08941)"
       inkscape:export-filename="C:\Users\gabri\OneDrive\Escritorio\TP-2 material\fichas\profesor\green.png"
       inkscape:export-xdpi="96"
       inkscape:export-ydpi="96" />
    <circle
       style="fill:#00ff00;fill-opacity:1;stroke:#000000;stroke-width:2.373;stroke-miterlimit:4;stroke-dasharray:none;stroke-opacity:1"
       id="path1146-72-7-0-1-5"
       cx="45.175682"
       cy="225.76152"
       r="26.916365"
       inkscape:export-filename="C:\Users\gabri\OneDrive\Escritorio\TP-2 material\fichas\profesor\green.png"
       inkscape:export-xdpi="96"
       inkscape:export-ydpi="96" />
    <ellipse
       style="fill:#ff6600;fill-opacity:1;stroke:#000000;stroke-width:2.117;stroke-miterlimit:4;stroke-dasharray:none;stroke-opacity:1"
       id="path1146-2-6-8-9-4"
       cx="138.06503"
       cy="226.97311"
       rx="35.125999"
       ry="35.125961"
       inkscape:export-filename="C:\Users\gabri\OneDrive\Escritorio\TP-2 material\fichas\profesor\orange.png"
       inkscape:export-xdpi="96"
       inkscape:export-ydpi="96" />
    <rect
       style="fill:#000000;fill-opacity:1;stroke:#000000;stroke-width:2.93719;stroke-miterlimit:4;stroke-dasharray:none;stroke-opacity:1"
       id="rect3153-3-4-8-1-3"
       width="7.7175426"
       height="66.903358"
       x="134.20625"
       y="193.55713"
       inkscape:export-filename="C:\Users\gabri\OneDrive\Escritorio\TP-2 material\fichas\profesor\orange.png"
       inkscape:export-xdpi="96"
       inkscape:export-ydpi="96" />
    <rect
       style="fill:#000000;fill-opacity:1;stroke:#000000;stroke-width:2.93719;stroke-miterlimit:4;stroke-dasharray:none;stroke-opacity:0.976744"
       id="rect3153-2-6-2-8-0-9"
       width="7.7175426"
       height="66.903358"
       x="222.95204"
       y="-171.78319"
       transform="rotate(90.067296)"
       inkscape:export-filename="C:\Users\gabri\OneDrive\Escritorio\TP-2 material\fichas\profesor\orange.png"
       inkscape:export-xdpi="96"
       inkscape:export-ydpi="96" />
    <rect
       style="fill:#000000;fill-opacity:1;stroke:#000000;stroke-width:2.93719;stroke-miterlimit:4;stroke-dasharray:none;stroke-opacity:1"
       id="rect3153-2-5-7-3-6-2-6"
       width="7.7175426"
       height="66.903358"
       x="255.26392"
       y="20.809334"
       transform="rotate(46.864654)"
       inkscape:export-filename="C:\Users\gabri\OneDrive\Escritorio\TP-2 material\fichas\profesor\orange.png"
       inkscape:export-xdpi="96"
       inkscape:export-ydpi="96" />
    <rect
       style="fill:#010000;fill-opacity:1;stroke:#000000;stroke-width:2.93719;stroke-miterlimit:4;stroke-dasharray:none;stroke-opacity:1"
       id="rect3153-2-5-8-9-9-1-5-1"
       width="7.7175426"
       height="66.903358"
       x="62.500374"
       y="-290.75244"
       transform="rotate(134.08941)"
       inkscape:export-filename="C:\Users\gabri\OneDrive\Escritorio\TP-2 material\fichas\profesor\orange.png"
       inkscape:export-xdpi="96"
       inkscape:export-ydpi="96" />
    <circle
       style="fill:#ff6600;fill-opacity:1;stroke:#000000;stroke-width:2.373;stroke-miterlimit:4;stroke-dasharray:none;stroke-opacity:1"
       id="path1146-72-7-0-1-5-6"
       cx="138.06503"
       cy="226.97311"
       r="26.916365"
       inkscape:export-filename="C:\Users\gabri\OneDrive\Escritorio\TP-2 material\fichas\profesor\orange.png"
       inkscape:export-xdpi="96"
       inkscape:export-ydpi="96" />
    <ellipse
       style="fill:#ab06d4;fill-opacity:1;stroke:#000000;stroke-width:2.117;stroke-miterlimit:4;stroke-dasharray:none;stroke-opacity:1"
       id="path1146-2-6-8-5"
       cx="46.791134"
       cy="44.829216"
       rx="35.125999"
       ry="35.125961"
       inkscape:export-filename="C:\Users\gabri\OneDrive\Escritorio\TP-2 material\fichas\profesor\violet.png"
       inkscape:export-xdpi="96"
       inkscape:export-ydpi="96" />
    <rect
       style="fill:#000600;fill-opacity:1;stroke:#000000;stroke-width:2.93719;stroke-miterlimit:4;stroke-dasharray:none;stroke-opacity:1"
       id="rect3153-3-4-8-2"
       width="7.7175426"
       height="66.903358"
       x="42.932354"
       y="11.413232"
       inkscape:export-filename="C:\Users\gabri\OneDrive\Escritorio\TP-2 material\fichas\profesor\violet.png"
       inkscape:export-xdpi="96"
       inkscape:export-ydpi="96" />
    <rect
       style="fill:#000600;fill-opacity:1;stroke:#000000;stroke-width:2.93719;stroke-miterlimit:4;stroke-dasharray:none;stroke-opacity:0.976744"
       id="rect3153-2-6-2-8-3"
       width="7.7175426"
       height="66.903358"
       x="40.915447"
       y="-80.295433"
       transform="rotate(90.067296)"
       inkscape:export-filename="C:\Users\gabri\OneDrive\Escritorio\TP-2 material\fichas\profesor\violet.png"
       inkscape:export-xdpi="96"
       inkscape:export-ydpi="96" />
    <rect
       style="fill:#000600;fill-opacity:1;stroke:#000000;stroke-width:2.93719;stroke-miterlimit:4;stroke-dasharray:none;stroke-opacity:1"
       id="rect3153-2-5-7-3-6-6"
       width="7.7175426"
       height="66.903358"
       x="59.939987"
       y="-37.120579"
       transform="rotate(46.864654)"
       inkscape:export-filename="C:\Users\gabri\OneDrive\Escritorio\TP-2 material\fichas\profesor\violet.png"
       inkscape:export-xdpi="96"
       inkscape:export-ydpi="96" />
    <rect
       style="fill:#000600;fill-opacity:1;stroke:#000000;stroke-width:2.93719;stroke-miterlimit:4;stroke-dasharray:none;stroke-opacity:1"
       id="rect3153-2-5-8-9-9-1-4"
       width="7.7175426"
       height="66.903358"
       x="-4.8188362"
       y="-98.462402"
       transform="rotate(134.08941)"
       inkscape:export-filename="C:\Users\gabri\OneDrive\Escritorio\TP-2 material\fichas\profesor\violet.png"
       inkscape:export-xdpi="96"
       inkscape:export-ydpi="96" />
    <circle
       style="fill:#ab06d4;fill-opacity:1;stroke:#000000;stroke-width:2.373;stroke-miterlimit:4;stroke-dasharray:none;stroke-opacity:1"
       id="path1146-72-7-0-1-7"
       cx="47.647865"
       cy="43.686905"
       r="26.916365"
       inkscape:export-filename="C:\Users\gabri\OneDrive\Escritorio\TP-2 material\fichas\profesor\violet.png"
       inkscape:export-xdpi="96"
       inkscape:export-ydpi="96" />
    <path
       style="fill:#000000;stroke:#000000;stroke-width:0.673008;stroke-miterlimit:4;stroke-dasharray:none;stroke-opacity:1"
       d="m 33.915847,65.682439 c -0.338213,-1.650707 -0.757498,-4.588248 -0.931747,-6.527851 -0.174233,-1.939632 -0.407122,-3.526594 -0.517499,-3.526594 -0.448675,0 -4.248549,2.722383 -4.815286,3.449837 -0.33508,0.430149 -0.976576,2.051635 -1.425554,3.603344 -0.54157,1.871726 -0.82489,2.34649 -0.841805,1.410613 -0.05338,-2.95006 1.857389,-6.043684 4.844534,-7.843716 1.560719,-0.940478 3.446402,-2.670815 4.190465,-3.84522 0.763699,-1.205435 2.332239,-2.626673 3.601998,-3.263741 2.581179,-1.295073 2.919893,-2.795447 1.393503,-6.172709 -0.71956,-1.592102 -0.774077,-2.257839 -0.278853,-3.404651 0.755601,-1.749722 0.300739,-1.817559 -1.332415,-0.198761 -0.680777,0.674784 -1.237747,1.043512 -1.237747,0.819437 0,-0.224093 0.581874,-0.976417 1.293066,-1.671813 l 1.293046,-1.264405 -1.008192,-3.081617 c -1.091165,-3.335147 -1.364738,-9.01066 -0.515113,-10.685695 1.696323,-3.344252 8.66315,-4.555956 13.07385,-2.273894 1.195863,0.618733 4.570206,3.538744 7.498571,6.48891 2.928366,2.950165 5.504691,5.363937 5.725187,5.363937 0.410269,0 3.925357,2.330577 5.12777,3.399824 0.367661,0.32693 0.653222,1.028773 0.634586,1.559644 -0.02506,0.710628 -0.1619,0.62914 -0.519174,-0.308975 -0.645238,-1.694224 -2.73384,-2.691012 -4.064338,-1.939715 -0.555071,0.313433 -1.640251,0.442606 -2.411513,0.28705 -1.627599,-0.328272 -2.133859,0.259735 -1.706873,1.982515 0.377305,1.5223 1.248801,1.613896 1.248801,0.131156 0,-0.602376 0.226398,-1.242841 0.503105,-1.423278 0.294109,-0.191722 0.391633,0.438998 0.234766,1.518394 -0.237415,1.633618 -0.04345,2.005124 1.683163,3.222842 2.171289,1.531385 3.216147,1.257749 4.389594,-1.14965 0.642509,-1.318144 0.660802,-1.321616 0.668463,-0.126675 0.0041,0.67574 -0.576113,1.713315 -1.289912,2.305738 -1.100258,0.913157 -1.254317,1.419355 -1.012011,3.325418 0.206226,1.622298 0.04649,2.500804 -0.573586,3.155087 -0.789353,0.832824 -0.750444,0.997165 0.477212,2.016062 3.372774,2.799198 0.156646,3.970577 -4.196445,1.528443 l -2.483651,-1.393339 -2.395078,1.70549 c -1.317304,0.938025 -2.535905,1.945894 -2.708015,2.239728 -0.172007,0.293829 -0.742174,0.534221 -1.266827,0.534221 -0.524646,0 -1.988668,0.57736 -3.2534,1.283018 l -2.299515,1.283019 -0.01818,5.064839 c -0.01818,4.716264 -0.03256,4.783293 -0.213621,0.973983 -0.106921,-2.249967 -0.326246,-4.090833 -0.487321,-4.090833 -0.161092,0 -0.750586,0.571303 -1.310004,1.269561 -0.811706,1.013181 -0.96892,1.896317 -0.778417,4.372958 l 0.238709,3.103395 -0.552141,-2.58615 c -0.502658,-2.354403 -0.693199,-2.586175 -2.126315,-2.586175 -0.983881,0 -2.142735,-0.574693 -3.090328,-1.532574 l -1.516148,-1.532603 0.470181,3.272365 c 0.258597,1.799812 0.577463,3.589776 0.70858,3.977699 0.13118,0.387917 0.04023,0.705314 -0.202119,0.705314 -0.582905,0 -1.935922,-9.604951 -1.907641,-13.542065 0.01418,-2.103178 0.35915,-3.640534 1.067434,-4.769967 l 1.045136,-1.66659 -2.271949,1.347274 c -2.424991,1.438023 -4.411178,4.797924 -4.411178,7.46211 0,0.798745 0.375178,3.538979 0.833715,6.089406 0.923322,5.135561 0.698117,6.904045 -0.274604,2.156453 z m 11.454943,-3.90611 c 2.396858,-2.220426 2.559711,-3.495598 0.333158,-2.608859 -1.365686,0.543876 -1.791075,0.431933 -3.458838,-0.910219 -1.216925,-0.979337 -2.1344,-2.350034 -2.54805,-3.806712 -0.51519,-1.814318 -0.745003,-2.090339 -1.132333,-1.360073 -0.267288,0.503939 -0.323784,2.160568 -0.12552,3.681422 0.294273,2.257515 0.744745,3.131499 2.453593,4.76043 1.15124,1.097374 2.204422,1.995222 2.340413,1.995222 0.136029,0 1.097895,-0.788037 2.137596,-1.751211 z m 1.178542,-3.555422 c 3.690992,-1.932354 6.505941,-3.157152 7.256006,-3.157152 0.446507,0 1.142119,-0.420212 1.545794,-0.933789 0.403685,-0.513577 1.516091,-1.278732 2.472013,-1.700328 2.644481,-1.166326 2.209633,-2.093305 -0.802185,-1.710054 -1.651957,0.210273 -2.166219,0.152268 -1.470654,-0.165707 2.024672,-0.925721 4.381572,-0.564389 7.267852,1.114209 2.538469,1.476318 5.299596,2.222795 5.299596,1.432769 0,-0.609416 -6.05216,-6.500832 -6.678176,-6.500832 -0.372819,0 -0.96407,-0.363886 -1.313905,-0.808623 -0.50561,-0.642785 -0.40938,-1.047791 0.46929,-1.974876 1.149719,-1.213075 2.17493,-1.527868 2.17493,-0.667828 0,0.274148 -0.481297,0.631253 -1.069558,0.793565 -1.319138,0.363971 -1.39467,1.444093 -0.133804,1.911818 0.514726,0.190872 1.583313,0.977674 2.374605,1.748333 2.049006,1.995569 3.347992,1.357982 2.924747,-1.435583 -0.234807,-1.549792 -0.923724,-2.660284 -2.608665,-4.205061 -2.671912,-2.449601 -2.904232,-2.516648 -3.368833,-0.972149 -0.192016,0.638358 -1.110686,1.539364 -2.041485,2.002287 -1.461837,0.727004 -2.129393,0.738031 -4.901046,0.08104 -2.751162,-0.652215 -3.323114,-1.012876 -4.010897,-2.529337 -0.441197,-0.972748 -1.283485,-1.908876 -1.871746,-2.080255 -1.720009,-0.501118 -5.615228,-0.373204 -5.615228,0.184474 0,0.281292 -0.437961,0.390587 -0.973243,0.242901 -0.535267,-0.147786 -1.283002,0.125185 -1.661616,0.606645 -0.565886,0.719412 -0.522191,1.404214 0.245576,3.847933 0.513701,1.635025 1.023552,3.31855 1.133002,3.741171 0.131588,0.508306 0.745693,0.683757 1.814017,0.518305 1.072265,-0.166126 1.436004,-0.06121 1.082392,0.311874 -0.292939,0.309058 -1.00237,0.598453 -1.57654,0.643086 -1.441244,0.111967 -2.737519,1.354357 -2.737519,2.623557 0,1.310535 0.427974,1.336318 1.718957,0.103648 0.941637,-0.899125 0.980038,-0.898187 0.647666,0.01496 -0.194241,0.534302 -0.809365,1.228999 -1.366781,1.543749 -0.813646,0.459452 -0.902157,0.79167 -0.448937,1.685168 0.543792,1.072084 0.612112,1.076387 1.861741,0.117291 0.713473,-0.547545 1.304809,-1.304006 1.314041,-1.681008 0.01618,-0.678552 2.15595,-2.213879 2.15595,-1.547269 0,0.190438 -1.0132,1.342947 -2.251534,2.561304 -2.097815,2.063963 -2.190935,2.279166 -1.363803,3.151872 0.626053,0.66055 1.0927,0.768848 1.583052,0.36738 0.382416,-0.313087 1.176619,-0.730332 1.764901,-0.927211 0.937264,-0.313707 0.920729,-0.246232 -0.133606,0.54548 -2.260912,1.697572 -1.341007,2.481009 1.293633,1.101701 z m 4.535422,-5.003587 c -0.05699,-1.111947 0.53846,-2.272363 2.059012,-4.012872 1.176542,-1.346699 2.139149,-2.737563 2.139149,-3.090787 0,-0.353202 0.249121,-0.642217 0.553599,-0.642217 0.826121,0 -0.374919,2.106104 -2.448946,4.294414 -0.975325,1.02907 -1.874435,2.578601 -1.998009,3.443396 l -0.224664,1.572377 z m 2.297618,-1.588243 c -0.197677,-0.337377 -0.143101,-0.841591 0.121274,-1.120451 0.284208,-0.299865 0.480552,-0.04926 0.480552,0.613422 0,1.282104 -0.09883,1.365467 -0.601787,0.507029 z M 42.269813,46.223791 c -0.19606,-0.206867 -0.356527,-1.080594 -0.356527,-1.941591 0,-0.860978 -0.24065,-1.72234 -0.534782,-1.914128 -0.294131,-0.191719 -0.534774,-0.868736 -0.534774,-1.504321 0,-0.821906 0.244248,-1.056664 0.845905,-0.813079 0.465268,0.188314 0.946561,0.342498 1.069576,0.342498 0.123096,0 0.223649,0.285027 0.223649,0.633343 0,0.437591 -0.24794,0.416241 -0.802165,-0.0691 -0.654881,-0.573459 -0.802191,-0.540447 -0.802191,0.179778 0,0.485188 0.24065,1.03909 0.534782,1.2309 0.29415,0.19172 0.5348,0.968522 0.5348,1.726045 0,0.8713 0.306314,1.377326 0.833733,1.377326 0.458559,0 0.685001,0.25393 0.503232,0.564265 -0.381714,0.651624 -1.00284,0.728713 -1.515238,0.1881 z m 8.734822,-1.534669 c 0,-0.119853 0.721963,-0.329897 1.604357,-0.466531 0.882385,-0.1367 1.604348,-0.03858 1.604348,0.21808 0,0.256596 -0.721963,0.466532 -1.604348,0.466532 -0.882394,0 -1.604357,-0.09811 -1.604357,-0.218081 z m 8.840309,-3.36332 c 1.074973,-1.619285 0.985634,-2.978804 -0.283761,-4.31815 -1.547458,-1.632699 -4.038224,-1.475316 -5.156773,0.325868 -2.363432,3.80579 2.967477,7.717636 5.440534,3.992282 z m -3.492466,-0.342451 c 0,-0.55512 2.071377,-1.414007 2.449087,-1.015467 0.126123,0.133078 -0.373281,0.531703 -1.109859,0.885801 -0.736578,0.354103 -1.339228,0.412448 -1.339228,0.129666 z m -0.07438,-2.819266 c 0.694379,-0.63603 1.476496,-1.156433 1.738039,-1.156433 0.934925,0 0.447766,0.549491 -1.262501,1.42405 l -1.738038,0.888791 z m -2.968784,1.957902 c -0.203704,-1.324435 -0.01418,-2.426885 0.580739,-3.385513 0.846312,-1.362826 0.836649,-1.421576 -0.234262,-1.421576 -1.844129,0 -3.077834,1.017745 -3.460192,2.854475 -0.407759,1.958904 0.823213,3.916559 2.462716,3.916559 0.789536,0 0.901249,-0.336973 0.650999,-1.963945 z M 49.935129,37.04796 c 0,-2.04999 3.944233,-2.915788 8.021775,-1.760851 1.281965,0.3631 2.790735,0.306072 4.78826,-0.181061 3.084786,-0.752145 3.01372,-1.379303 -0.183527,-1.62059 -1.950391,-0.147146 -2.486806,-0.653557 -1.262262,-1.191551 1.082149,-0.475465 -1.172377,-2.047944 -3.043531,-2.12282 -0.899734,-0.03604 -1.2147,-0.181486 -0.699955,-0.323496 0.514726,-0.142032 0.935873,-0.626581 0.935873,-1.077009 0,-0.966776 -2.515893,-2.104268 -3.643984,-1.647548 -0.639738,0.259028 -0.663164,0.162506 -0.126126,-0.520251 0.541975,-0.689023 0.388765,-1.106907 -0.860237,-2.3464 -4.560834,-4.52608 -12.598995,-4.875229 -15.391594,-0.668553 -1.173005,1.766995 -1.04967,6.322055 0.284022,10.488917 l 1.118673,3.495087 h 5.031355 c 2.767251,0 5.031363,-0.23578 5.031363,-0.523958 z m -0.298866,-4.290147 c 0.57094,-0.455632 1.413229,-0.826854 1.871746,-0.824956 0.4585,0.0019 0.144314,0.382781 -0.698136,0.846389 -1.939152,1.067074 -2.524197,1.056385 -1.17361,-0.02132 z m -0.359737,-3.180486 c 0.310764,-0.32789 0.880691,-0.485149 1.266504,-0.34945 0.400531,0.140752 0.158064,0.396644 -0.565034,0.596171 -0.889524,0.24542 -1.09832,0.171889 -0.70147,-0.246721 z m 16.702145,11.701941 c 0,-0.155254 0.481317,-0.55392 1.069576,-0.886098 0.588261,-0.332177 1.069577,-0.477001 1.069577,-0.321832 0,0.155256 -0.481316,0.553926 -1.069577,0.886097 -0.588259,0.332178 -1.069576,0.477003 -1.069576,0.321833 z m -0.833659,-2.878911 c 0.570958,-0.455652 1.278754,-0.828434 1.572884,-0.828434 0.294131,0 0.06771,0.372782 -0.503307,0.828434 -0.570958,0.455628 -1.278734,0.828434 -1.572865,0.828434 -0.294129,0 -0.06771,-0.372806 0.503288,-0.828434 z"
       id="path58"
       inkscape:export-filename="C:\Users\gabri\OneDrive\Escritorio\TP-2 material\fichas\profesor\violet.png"
       inkscape:export-xdpi="96"
       inkscape:export-ydpi="96" />
    <path
       style="fill:#000000;stroke:#000000;stroke-width:0.673008;stroke-miterlimit:4;stroke-dasharray:none;stroke-opacity:1"
       d="m 34.629805,157.28975 c -0.338213,-1.6507 -0.757498,-4.58824 -0.931747,-6.52785 -0.174233,-1.93963 -0.407122,-3.52659 -0.517499,-3.52659 -0.448675,0 -4.248549,2.72238 -4.815286,3.44984 -0.33508,0.43014 -0.976576,2.05163 -1.425554,3.60334 -0.54157,1.87173 -0.82489,2.34649 -0.841805,1.41061 -0.05338,-2.95006 1.857389,-6.04368 4.844534,-7.84371 1.560719,-0.94048 3.446402,-2.67082 4.190465,-3.84522 0.763699,-1.20544 2.332239,-2.62668 3.601998,-3.26374 2.581179,-1.29508 2.919893,-2.79545 1.393503,-6.17271 -0.71956,-1.59211 -0.774077,-2.25784 -0.278853,-3.40465 0.755601,-1.74973 0.300739,-1.81756 -1.332415,-0.19876 -0.680777,0.67478 -1.237747,1.04351 -1.237747,0.81943 0,-0.22409 0.581874,-0.97641 1.293066,-1.67181 l 1.293046,-1.26441 -1.008192,-3.08161 c -1.091165,-3.33515 -1.364738,-9.01066 -0.515113,-10.6857 1.696323,-3.34425 8.66315,-4.55595 13.07385,-2.27389 1.195863,0.61873 4.570206,3.53874 7.498571,6.48891 2.928366,2.95016 5.504691,5.36393 5.725187,5.36393 0.410269,0 3.925357,2.33058 5.12777,3.39983 0.367661,0.32693 0.653222,1.02877 0.634586,1.55964 -0.02506,0.71063 -0.1619,0.62914 -0.519174,-0.30897 -0.645238,-1.69423 -2.73384,-2.69101 -4.064338,-1.93972 -0.555071,0.31344 -1.640251,0.44261 -2.411513,0.28705 -1.627599,-0.32827 -2.133859,0.25974 -1.706873,1.98252 0.377305,1.5223 1.248801,1.61389 1.248801,0.13115 0,-0.60237 0.226398,-1.24284 0.503105,-1.42327 0.294109,-0.19173 0.391633,0.43899 0.234766,1.51839 -0.237415,1.63362 -0.04345,2.00512 1.683163,3.22284 2.171289,1.53139 3.216147,1.25775 4.389594,-1.14965 0.642509,-1.31814 0.660802,-1.32161 0.668463,-0.12667 0.0041,0.67574 -0.576113,1.71331 -1.289912,2.30573 -1.100258,0.91316 -1.254317,1.41936 -1.012011,3.32542 0.206226,1.6223 0.04649,2.50081 -0.573586,3.15509 -0.789353,0.83282 -0.750444,0.99717 0.477212,2.01606 3.372774,2.7992 0.156646,3.97058 -4.196445,1.52844 l -2.483651,-1.39333 -2.395078,1.70549 c -1.317304,0.93802 -2.535905,1.94589 -2.708015,2.23972 -0.172007,0.29383 -0.742174,0.53423 -1.266827,0.53423 -0.524646,0 -1.988668,0.57736 -3.2534,1.28301 l -2.299515,1.28302 -0.01818,5.06484 c -0.01818,4.71626 -0.03256,4.78329 -0.213621,0.97398 -0.106921,-2.24996 -0.326246,-4.09083 -0.487321,-4.09083 -0.161092,0 -0.750586,0.5713 -1.310004,1.26956 -0.811706,1.01318 -0.96892,1.89632 -0.778417,4.37296 l 0.238709,3.1034 -0.552141,-2.58615 c -0.502658,-2.35441 -0.693199,-2.58618 -2.126315,-2.58618 -0.983881,0 -2.142735,-0.57469 -3.090328,-1.53257 l -1.516148,-1.53261 0.470181,3.27237 c 0.258597,1.79981 0.577463,3.58977 0.70858,3.9777 0.13118,0.38791 0.04023,0.70531 -0.202119,0.70531 -0.582905,0 -1.935922,-9.60495 -1.907641,-13.54206 0.01418,-2.10318 0.35915,-3.64054 1.067434,-4.76997 l 1.045136,-1.66659 -2.271949,1.34727 c -2.424991,1.43803 -4.411178,4.79793 -4.411178,7.46211 0,0.79875 0.375178,3.53898 0.833715,6.08941 0.923322,5.13556 0.698117,6.90404 -0.274604,2.15645 z m 11.454943,-3.90611 c 2.396858,-2.22042 2.559711,-3.49559 0.333158,-2.60885 -1.365686,0.54387 -1.791075,0.43193 -3.458838,-0.91022 -1.216925,-0.97934 -2.1344,-2.35004 -2.54805,-3.80672 -0.51519,-1.81431 -0.745003,-2.09033 -1.132333,-1.36007 -0.267288,0.50394 -0.323784,2.16057 -0.12552,3.68142 0.294273,2.25752 0.744745,3.1315 2.453593,4.76043 1.15124,1.09738 2.204422,1.99522 2.340413,1.99522 0.136029,0 1.097895,-0.78803 2.137596,-1.75121 z m 1.178542,-3.55542 c 3.690992,-1.93235 6.505941,-3.15715 7.256006,-3.15715 0.446507,0 1.142119,-0.42021 1.545794,-0.93379 0.403685,-0.51358 1.516091,-1.27873 2.472013,-1.70033 2.644481,-1.16632 2.209633,-2.0933 -0.802185,-1.71005 -1.651957,0.21027 -2.166219,0.15227 -1.470654,-0.16571 2.024672,-0.92572 4.381572,-0.56439 7.267852,1.11421 2.538469,1.47632 5.299596,2.2228 5.299596,1.43277 0,-0.60942 -6.05216,-6.50083 -6.678176,-6.50083 -0.372819,0 -0.96407,-0.36389 -1.313905,-0.80862 -0.50561,-0.64279 -0.40938,-1.0478 0.46929,-1.97488 1.149719,-1.21308 2.17493,-1.52787 2.17493,-0.66783 0,0.27415 -0.481297,0.63125 -1.069558,0.79357 -1.319138,0.36397 -1.39467,1.44409 -0.133804,1.91181 0.514726,0.19088 1.583313,0.97768 2.374605,1.74834 2.049006,1.99557 3.347992,1.35798 2.924747,-1.43559 -0.234807,-1.54979 -0.923724,-2.66028 -2.608665,-4.20506 -2.671912,-2.4496 -2.904232,-2.51665 -3.368833,-0.97215 -0.192016,0.63836 -1.110686,1.53937 -2.041485,2.00229 -1.461837,0.727 -2.129393,0.73803 -4.901046,0.081 -2.751162,-0.65221 -3.323114,-1.01288 -4.010897,-2.52934 -0.441197,-0.97274 -1.283485,-1.90887 -1.871746,-2.08025 -1.720009,-0.50112 -5.615228,-0.37321 -5.615228,0.18447 0,0.2813 -0.437961,0.39059 -0.973243,0.2429 -0.535267,-0.14778 -1.283002,0.12519 -1.661616,0.60665 -0.565886,0.71941 -0.522191,1.40421 0.245576,3.84793 0.513701,1.63503 1.023552,3.31855 1.133002,3.74117 0.131588,0.50831 0.745693,0.68376 1.814017,0.51831 1.072265,-0.16613 1.436004,-0.0612 1.082392,0.31187 -0.292939,0.30906 -1.00237,0.59846 -1.57654,0.64309 -1.441244,0.11197 -2.737519,1.35436 -2.737519,2.62355 0,1.31054 0.427974,1.33632 1.718957,0.10365 0.941637,-0.89912 0.980038,-0.89818 0.647666,0.015 -0.194241,0.5343 -0.809365,1.229 -1.366781,1.54375 -0.813646,0.45945 -0.902157,0.79167 -0.448937,1.68517 0.543792,1.07208 0.612112,1.07639 1.861741,0.11729 0.713473,-0.54754 1.304809,-1.30401 1.314041,-1.68101 0.01618,-0.67855 2.15595,-2.21388 2.15595,-1.54727 0,0.19044 -1.0132,1.34295 -2.251534,2.56131 -2.097815,2.06396 -2.190935,2.27916 -1.363803,3.15187 0.626053,0.66055 1.0927,0.76885 1.583052,0.36738 0.382416,-0.31309 1.176619,-0.73033 1.764901,-0.92721 0.937264,-0.31371 0.920729,-0.24623 -0.133606,0.54548 -2.260912,1.69757 -1.341007,2.48101 1.293633,1.1017 z m 4.535422,-5.00359 c -0.05699,-1.11194 0.53846,-2.27236 2.059012,-4.01287 1.176542,-1.3467 2.139149,-2.73756 2.139149,-3.09078 0,-0.35321 0.249121,-0.64222 0.553599,-0.64222 0.826121,0 -0.374919,2.1061 -2.448946,4.29441 -0.975325,1.02907 -1.874435,2.5786 -1.998009,3.4434 l -0.224664,1.57238 z m 2.297618,-1.58824 c -0.197677,-0.33738 -0.143101,-0.84159 0.121274,-1.12045 0.284208,-0.29986 0.480552,-0.0493 0.480552,0.61342 0,1.28211 -0.09883,1.36547 -0.601787,0.50703 z m -11.112559,-5.40528 c -0.19606,-0.20687 -0.356527,-1.0806 -0.356527,-1.9416 0,-0.86097 -0.24065,-1.72234 -0.534782,-1.91412 -0.294131,-0.19172 -0.534774,-0.86874 -0.534774,-1.50432 0,-0.82191 0.244248,-1.05667 0.845905,-0.81308 0.465268,0.18831 0.946561,0.34249 1.069576,0.34249 0.123096,0 0.223649,0.28503 0.223649,0.63335 0,0.43759 -0.24794,0.41624 -0.802165,-0.0691 -0.654881,-0.57346 -0.802191,-0.54045 -0.802191,0.17978 0,0.48518 0.24065,1.03909 0.534782,1.2309 0.29415,0.19172 0.5348,0.96852 0.5348,1.72604 0,0.8713 0.306314,1.37733 0.833733,1.37733 0.458559,0 0.685001,0.25393 0.503232,0.56426 -0.381714,0.65163 -1.00284,0.72871 -1.515238,0.1881 z m 8.734822,-1.53467 c 0,-0.11986 0.721963,-0.3299 1.604357,-0.46653 0.882385,-0.1367 1.604348,-0.0386 1.604348,0.21808 0,0.25659 -0.721963,0.46653 -1.604348,0.46653 -0.882394,0 -1.604357,-0.0981 -1.604357,-0.21808 z m 8.840309,-3.36332 c 1.074973,-1.61929 0.985634,-2.97881 -0.283761,-4.31815 -1.547458,-1.6327 -4.038224,-1.47532 -5.156773,0.32586 -2.363432,3.80579 2.967477,7.71764 5.440534,3.99229 z m -3.492466,-0.34245 c 0,-0.55512 2.071377,-1.41401 2.449087,-1.01547 0.126123,0.13308 -0.373281,0.5317 -1.109859,0.8858 -0.736578,0.3541 -1.339228,0.41245 -1.339228,0.12967 z m -0.07438,-2.81927 c 0.694379,-0.63603 1.476496,-1.15643 1.738039,-1.15643 0.934925,0 0.447766,0.54949 -1.262501,1.42405 l -1.738038,0.88879 z m -2.968784,1.9579 c -0.203704,-1.32443 -0.01418,-2.42688 0.580739,-3.38551 0.846312,-1.36283 0.836649,-1.42158 -0.234262,-1.42158 -1.844129,0 -3.077834,1.01775 -3.460192,2.85448 -0.407759,1.9589 0.823213,3.91656 2.462716,3.91656 0.789536,0 0.901249,-0.33698 0.650999,-1.96395 z m -3.374185,-3.07403 c 0,-2.04998 3.944233,-2.91578 8.021775,-1.76085 1.281965,0.3631 2.790735,0.30608 4.78826,-0.18106 3.084786,-0.75214 3.01372,-1.3793 -0.183527,-1.62059 -1.950391,-0.14714 -2.486806,-0.65355 -1.262262,-1.19155 1.082149,-0.47546 -1.172377,-2.04794 -3.043531,-2.12282 -0.899734,-0.036 -1.2147,-0.18148 -0.699955,-0.32349 0.514726,-0.14204 0.935873,-0.62658 0.935873,-1.07701 0,-0.96678 -2.515893,-2.10427 -3.643984,-1.64755 -0.639738,0.25903 -0.663164,0.16251 -0.126126,-0.52025 0.541975,-0.68902 0.388765,-1.10691 -0.860237,-2.3464 -4.560834,-4.52608 -12.598995,-4.87523 -15.391594,-0.66855 -1.173005,1.76699 -1.04967,6.32205 0.284022,10.48891 l 1.118673,3.49509 h 5.031355 c 2.767251,0 5.031363,-0.23578 5.031363,-0.52396 z m -0.298866,-4.29014 c 0.57094,-0.45563 1.413229,-0.82686 1.871746,-0.82496 0.4585,0.002 0.144314,0.38278 -0.698136,0.84639 -1.939152,1.06707 -2.524197,1.05639 -1.17361,-0.0213 z m -0.359737,-3.18049 c 0.310764,-0.32789 0.880691,-0.48515 1.266504,-0.34945 0.400531,0.14075 0.158064,0.39665 -0.565034,0.59617 -0.889524,0.24542 -1.09832,0.17189 -0.70147,-0.24672 z m 16.702145,11.70194 c 0,-0.15525 0.481317,-0.55392 1.069576,-0.8861 0.588261,-0.33217 1.069577,-0.477 1.069577,-0.32183 0,0.15526 -0.481316,0.55393 -1.069577,0.8861 -0.588259,0.33218 -1.069576,0.477 -1.069576,0.32183 z m -0.833659,-2.87891 c 0.570958,-0.45565 1.278754,-0.82843 1.572884,-0.82843 0.294131,0 0.06771,0.37278 -0.503307,0.82843 -0.570958,0.45563 -1.278734,0.82844 -1.572865,0.82844 -0.294129,0 -0.06771,-0.37281 0.503288,-0.82844 z"
       id="path58-7"
       inkscape:export-filename="C:\Users\gabri\OneDrive\Escritorio\TP-2 material\fichas\profesor\blue.png"
       inkscape:export-xdpi="96"
       inkscape:export-ydpi="96" />
    <path
       style="fill:#000000;stroke:#000000;stroke-width:0.673008;stroke-miterlimit:4;stroke-dasharray:none;stroke-opacity:1"
       d="m 124.30095,156.14745 c -0.33821,-1.65071 -0.7575,-4.58825 -0.93175,-6.52785 -0.17423,-1.93964 -0.40712,-3.5266 -0.5175,-3.5266 -0.44867,0 -4.24854,2.72239 -4.81528,3.44984 -0.33508,0.43015 -0.97658,2.05163 -1.42556,3.60334 -0.54157,1.87173 -0.82489,2.34649 -0.8418,1.41062 -0.0534,-2.95006 1.85739,-6.04369 4.84453,-7.84372 1.56072,-0.94048 3.4464,-2.67081 4.19047,-3.84522 0.7637,-1.20543 2.33224,-2.62667 3.602,-3.26374 2.58118,-1.29507 2.91989,-2.79545 1.3935,-6.17271 -0.71956,-1.5921 -0.77408,-2.25784 -0.27885,-3.40465 0.7556,-1.74972 0.30073,-1.81756 -1.33242,-0.19876 -0.68078,0.67478 -1.23775,1.04351 -1.23775,0.81944 0,-0.2241 0.58188,-0.97642 1.29307,-1.67182 l 1.29305,-1.2644 -1.0082,-3.08162 c -1.09116,-3.33515 -1.36473,-9.01066 -0.51511,-10.68569 1.69632,-3.34426 8.66315,-4.55596 13.07385,-2.2739 1.19586,0.61873 4.57021,3.53875 7.49857,6.48891 2.92837,2.95017 5.50469,5.36394 5.72519,5.36394 0.41027,0 3.92536,2.33058 5.12777,3.39982 0.36766,0.32693 0.65322,1.02878 0.63458,1.55965 -0.0251,0.71063 -0.1619,0.62914 -0.51917,-0.30898 -0.64524,-1.69422 -2.73384,-2.69101 -4.06434,-1.93971 -0.55507,0.31343 -1.64025,0.4426 -2.41151,0.28705 -1.6276,-0.32827 -2.13386,0.25973 -1.70687,1.98251 0.3773,1.5223 1.2488,1.6139 1.2488,0.13116 0,-0.60238 0.2264,-1.24284 0.5031,-1.42328 0.29411,-0.19172 0.39164,0.439 0.23477,1.51839 -0.23742,1.63362 -0.0435,2.00513 1.68316,3.22285 2.17129,1.53138 3.21615,1.25774 4.3896,-1.14965 0.64251,-1.31815 0.6608,-1.32162 0.66846,-0.12668 0.004,0.67574 -0.57611,1.71332 -1.28991,2.30574 -1.10026,0.91316 -1.25432,1.41935 -1.01201,3.32542 0.20622,1.62229 0.0465,2.5008 -0.57359,3.15508 -0.78935,0.83283 -0.75044,0.99717 0.47721,2.01607 3.37278,2.79919 0.15665,3.97057 -4.19644,1.52844 l -2.48365,-1.39334 -2.39508,1.70549 c -1.31731,0.93803 -2.53591,1.94589 -2.70802,2.23973 -0.172,0.29383 -0.74217,0.53422 -1.26682,0.53422 -0.52465,0 -1.98867,0.57736 -3.2534,1.28302 l -2.29952,1.28302 -0.0182,5.06483 c -0.0182,4.71627 -0.0326,4.7833 -0.21362,0.97399 -0.10692,-2.24997 -0.32625,-4.09084 -0.48732,-4.09084 -0.16109,0 -0.75059,0.57131 -1.31001,1.26957 -0.8117,1.01318 -0.96892,1.89631 -0.77841,4.37295 l 0.23871,3.1034 -0.55214,-2.58615 c -0.50266,-2.3544 -0.6932,-2.58618 -2.12632,-2.58618 -0.98388,0 -2.14273,-0.57469 -3.09033,-1.53257 l -1.51615,-1.5326 0.47019,3.27236 c 0.25859,1.79981 0.57746,3.58978 0.70858,3.9777 0.13118,0.38792 0.0402,0.70531 -0.20212,0.70531 -0.58291,0 -1.93593,-9.60495 -1.90764,-13.54206 0.0142,-2.10318 0.35915,-3.64053 1.06743,-4.76997 l 1.04514,-1.66659 -2.27195,1.34728 c -2.42499,1.43802 -4.41118,4.79792 -4.41118,7.46211 0,0.79874 0.37518,3.53898 0.83371,6.0894 0.92333,5.13556 0.69812,6.90405 -0.2746,2.15646 z m 11.45494,-3.90611 c 2.39686,-2.22043 2.55971,-3.4956 0.33316,-2.60886 -1.36569,0.54387 -1.79107,0.43193 -3.45884,-0.91022 -1.21692,-0.97934 -2.1344,-2.35003 -2.54805,-3.80671 -0.51519,-1.81432 -0.745,-2.09034 -1.13233,-1.36007 -0.26729,0.50393 -0.32378,2.16056 -0.12552,3.68142 0.29427,2.25751 0.74475,3.1315 2.45359,4.76043 1.15124,1.09737 2.20442,1.99522 2.34042,1.99522 0.13602,0 1.09789,-0.78804 2.13759,-1.75121 z m 1.17854,-3.55542 c 3.691,-1.93236 6.50595,-3.15716 7.25601,-3.15716 0.44651,0 1.14212,-0.42021 1.54579,-0.93379 0.40369,-0.51357 1.5161,-1.27873 2.47202,-1.70032 2.64448,-1.16633 2.20963,-2.09331 -0.80219,-1.71006 -1.65195,0.21028 -2.16622,0.15227 -1.47065,-0.1657 2.02467,-0.92572 4.38157,-0.56439 7.26785,1.11421 2.53847,1.47631 5.2996,2.22279 5.2996,1.43276 0,-0.60941 -6.05216,-6.50083 -6.67818,-6.50083 -0.37282,0 -0.96407,-0.36388 -1.3139,-0.80862 -0.50561,-0.64279 -0.40938,-1.04779 0.46929,-1.97488 1.14971,-1.21307 2.17493,-1.52787 2.17493,-0.66783 0,0.27415 -0.4813,0.63126 -1.06956,0.79357 -1.31914,0.36397 -1.39467,1.44409 -0.13381,1.91182 0.51473,0.19087 1.58332,0.97767 2.37461,1.74833 2.049,1.99557 3.34799,1.35798 2.92475,-1.43558 -0.23481,-1.54979 -0.92373,-2.66029 -2.60867,-4.20506 -2.67191,-2.4496 -2.90423,-2.51665 -3.36883,-0.97215 -0.19202,0.63836 -1.11069,1.53936 -2.04149,2.00228 -1.46183,0.72701 -2.12939,0.73804 -4.90104,0.081 -2.75116,-0.65221 -3.32312,-1.01287 -4.0109,-2.52933 -0.4412,-0.97275 -1.28349,-1.90888 -1.87175,-2.08026 -1.72001,-0.50111 -5.61522,-0.3732 -5.61522,0.18448 0,0.28129 -0.43797,0.39058 -0.97325,0.2429 -0.53526,-0.14779 -1.283,0.12518 -1.66161,0.60664 -0.56589,0.71942 -0.52219,1.40422 0.24557,3.84794 0.5137,1.63502 1.02355,3.31855 1.133,3.74117 0.13159,0.5083 0.7457,0.68375 1.81402,0.5183 1.07227,-0.16612 1.43601,-0.0612 1.08239,0.31188 -0.29294,0.30905 -1.00237,0.59845 -1.57654,0.64308 -1.44124,0.11197 -2.73752,1.35436 -2.73752,2.62356 0,1.31053 0.42798,1.33632 1.71896,0.10365 0.94164,-0.89913 0.98004,-0.89819 0.64767,0.015 -0.19424,0.5343 -0.80937,1.229 -1.36678,1.54375 -0.81365,0.45945 -0.90216,0.79167 -0.44894,1.68516 0.54379,1.07209 0.61211,1.07639 1.86174,0.1173 0.71347,-0.54755 1.30481,-1.30401 1.31404,-1.68101 0.0162,-0.67856 2.15595,-2.21388 2.15595,-1.54727 0,0.19044 -1.0132,1.34294 -2.25153,2.5613 -2.09782,2.06396 -2.19094,2.27917 -1.36381,3.15187 0.62606,0.66055 1.0927,0.76885 1.58306,0.36738 0.38241,-0.31308 1.17662,-0.73033 1.7649,-0.92721 0.93726,-0.3137 0.92073,-0.24623 -0.13361,0.54548 -2.26091,1.69757 -1.341,2.48101 1.29363,1.1017 z m 4.53543,-5.00359 c -0.057,-1.11195 0.53846,-2.27236 2.05901,-4.01287 1.17654,-1.3467 2.13915,-2.73757 2.13915,-3.09079 0,-0.3532 0.24912,-0.64222 0.5536,-0.64222 0.82612,0 -0.37492,2.10611 -2.44895,4.29442 -0.97532,1.02907 -1.87443,2.5786 -1.99801,3.44339 l -0.22466,1.57238 z m 2.29762,-1.58824 c -0.19768,-0.33738 -0.14311,-0.8416 0.12127,-1.12046 0.28421,-0.29986 0.48055,-0.0493 0.48055,0.61343 0,1.2821 -0.0988,1.36546 -0.60179,0.50703 z m -11.11256,-5.40529 c -0.19606,-0.20687 -0.35653,-1.08059 -0.35653,-1.94159 0,-0.86098 -0.24065,-1.72234 -0.53478,-1.91413 -0.29413,-0.19172 -0.53478,-0.86874 -0.53478,-1.50432 0,-0.82191 0.24425,-1.05666 0.84591,-0.81308 0.46527,0.18831 0.94656,0.3425 1.06957,0.3425 0.1231,0 0.22365,0.28503 0.22365,0.63334 0,0.43759 -0.24794,0.41624 -0.80216,-0.0691 -0.65488,-0.57346 -0.80219,-0.54045 -0.80219,0.17978 0,0.48519 0.24065,1.03909 0.53478,1.2309 0.29415,0.19172 0.5348,0.96852 0.5348,1.72604 0,0.8713 0.30631,1.37733 0.83373,1.37733 0.45856,0 0.685,0.25393 0.50323,0.56427 -0.38171,0.65162 -1.00284,0.72871 -1.51523,0.1881 z m 8.73482,-1.53467 c 0,-0.11985 0.72196,-0.3299 1.60435,-0.46653 0.88239,-0.1367 1.60435,-0.0386 1.60435,0.21808 0,0.2566 -0.72196,0.46653 -1.60435,0.46653 -0.88239,0 -1.60435,-0.0981 -1.60435,-0.21808 z m 8.84031,-3.36332 c 1.07497,-1.61928 0.98563,-2.9788 -0.28376,-4.31815 -1.54746,-1.6327 -4.03823,-1.47532 -5.15678,0.32587 -2.36343,3.80579 2.96748,7.71763 5.44054,3.99228 z m -3.49247,-0.34245 c 0,-0.55512 2.07138,-1.41401 2.44909,-1.01547 0.12612,0.13308 -0.37328,0.53171 -1.10986,0.8858 -0.73658,0.35411 -1.33923,0.41245 -1.33923,0.12967 z m -0.0744,-2.81927 c 0.69438,-0.63603 1.4765,-1.15643 1.73804,-1.15643 0.93493,0 0.44777,0.54949 -1.2625,1.42405 l -1.73804,0.88879 z m -2.96878,1.95791 c -0.20371,-1.32444 -0.0142,-2.42689 0.58074,-3.38552 0.84631,-1.36282 0.83665,-1.42157 -0.23427,-1.42157 -1.84413,0 -3.07783,1.01774 -3.46019,2.85447 -0.40776,1.95891 0.82321,3.91656 2.46272,3.91656 0.78953,0 0.90125,-0.33697 0.651,-1.96394 z m -3.37419,-3.07403 c 0,-2.04999 3.94423,-2.91579 8.02178,-1.76085 1.28196,0.3631 2.79073,0.30607 4.78826,-0.18106 3.08478,-0.75215 3.01372,-1.37931 -0.18353,-1.62059 -1.95039,-0.14715 -2.48681,-0.65356 -1.26226,-1.19155 1.08215,-0.47547 -1.17238,-2.04795 -3.04353,-2.12282 -0.89974,-0.036 -1.2147,-0.18149 -0.69996,-0.3235 0.51473,-0.14203 0.93587,-0.62658 0.93587,-1.07701 0,-0.96677 -2.51589,-2.10427 -3.64398,-1.64755 -0.63974,0.25903 -0.66316,0.16251 -0.12613,-0.52025 0.54198,-0.68902 0.38877,-1.1069 -0.86023,-2.3464 -4.56084,-4.52608 -12.599,-4.87523 -15.3916,-0.66855 -1.173,1.76699 -1.04967,6.32205 0.28403,10.48892 l 1.11867,3.49508 h 5.03135 c 2.76725,0 5.03137,-0.23578 5.03137,-0.52395 z m -0.29886,-4.29015 c 0.57094,-0.45563 1.41323,-0.82685 1.87174,-0.82495 0.4585,0.002 0.14432,0.38278 -0.69813,0.84639 -1.93916,1.06707 -2.5242,1.05638 -1.17361,-0.0213 z m -0.35974,-3.18048 c 0.31076,-0.32789 0.88069,-0.48515 1.2665,-0.34945 0.40053,0.14075 0.15807,0.39664 -0.56503,0.59617 -0.88953,0.24542 -1.09832,0.17189 -0.70147,-0.24672 z m 16.70214,11.70194 c 0,-0.15526 0.48132,-0.55392 1.06958,-0.8861 0.58826,-0.33218 1.06958,-0.477 1.06958,-0.32183 0,0.15525 -0.48132,0.55392 -1.06958,0.88609 -0.58826,0.33218 -1.06958,0.47701 -1.06958,0.32184 z m -0.83366,-2.87891 c 0.57096,-0.45566 1.27876,-0.82844 1.57289,-0.82844 0.29413,0 0.0677,0.37278 -0.50331,0.82844 -0.57096,0.45562 -1.27873,0.82843 -1.57286,0.82843 -0.29413,0 -0.0677,-0.37281 0.50328,-0.82843 z"
       id="path58-73"
       inkscape:export-filename="C:\Users\gabri\OneDrive\Escritorio\TP-2 material\fichas\profesor\red.png"
       inkscape:export-xdpi="96"
       inkscape:export-ydpi="96" />
    <path
       style="fill:#000000;stroke:#000000;stroke-width:0.673008;stroke-miterlimit:4;stroke-dasharray:none;stroke-opacity:1"
       d="m 32.916343,247.53206 c -0.338213,-1.65071 -0.757498,-4.58825 -0.931747,-6.52785 -0.174233,-1.93963 -0.407122,-3.5266 -0.517499,-3.5266 -0.448675,0 -4.248549,2.72239 -4.815286,3.44984 -0.33508,0.43015 -0.976576,2.05164 -1.425554,3.60334 -0.54157,1.87173 -0.82489,2.34649 -0.841805,1.41062 -0.05338,-2.95006 1.857389,-6.04369 4.844534,-7.84372 1.560719,-0.94048 3.446402,-2.67081 4.190465,-3.84522 0.763699,-1.20543 2.332239,-2.62667 3.601998,-3.26374 2.581179,-1.29507 2.919893,-2.79545 1.393503,-6.17271 -0.71956,-1.5921 -0.774077,-2.25784 -0.278853,-3.40465 0.755601,-1.74972 0.300739,-1.81756 -1.332415,-0.19876 -0.680777,0.67478 -1.237747,1.04351 -1.237747,0.81944 0,-0.2241 0.581874,-0.97642 1.293066,-1.67182 l 1.293046,-1.2644 -1.008192,-3.08162 c -1.091165,-3.33514 -1.364738,-9.01066 -0.515113,-10.68569 1.696323,-3.34426 8.66315,-4.55596 13.07385,-2.2739 1.195863,0.61874 4.570206,3.53875 7.498571,6.48891 2.928366,2.95017 5.504691,5.36394 5.725187,5.36394 0.410269,0 3.925357,2.33058 5.12777,3.39982 0.367661,0.32693 0.653222,1.02878 0.634586,1.55965 -0.02506,0.71063 -0.1619,0.62914 -0.519174,-0.30898 -0.645238,-1.69422 -2.73384,-2.69101 -4.064338,-1.93971 -0.555071,0.31343 -1.640251,0.4426 -2.411513,0.28705 -1.627599,-0.32827 -2.133859,0.25973 -1.706873,1.98251 0.377305,1.5223 1.248801,1.6139 1.248801,0.13116 0,-0.60238 0.226398,-1.24284 0.503105,-1.42328 0.294109,-0.19172 0.391633,0.439 0.234766,1.51839 -0.237415,1.63362 -0.04345,2.00513 1.683163,3.22285 2.171289,1.53138 3.216147,1.25775 4.389594,-1.14965 0.642509,-1.31815 0.660802,-1.32162 0.668463,-0.12668 0.0041,0.67574 -0.576113,1.71332 -1.289912,2.30574 -1.100258,0.91316 -1.254317,1.41935 -1.012011,3.32542 0.206226,1.6223 0.04649,2.5008 -0.573586,3.15508 -0.789353,0.83283 -0.750444,0.99717 0.477212,2.01607 3.372774,2.79919 0.156646,3.97057 -4.196445,1.52844 l -2.483651,-1.39334 -2.395078,1.70549 c -1.317304,0.93803 -2.535905,1.94589 -2.708015,2.23973 -0.172007,0.29383 -0.742174,0.53422 -1.266827,0.53422 -0.524646,0 -1.988668,0.57736 -3.2534,1.28302 l -2.299515,1.28302 -0.01818,5.06484 c -0.01818,4.71626 -0.03256,4.78329 -0.213621,0.97398 -0.106921,-2.24997 -0.326246,-4.09083 -0.487321,-4.09083 -0.161092,0 -0.750586,0.5713 -1.310004,1.26956 -0.811706,1.01318 -0.96892,1.89631 -0.778417,4.37295 l 0.238709,3.1034 -0.552141,-2.58615 c -0.502658,-2.3544 -0.693199,-2.58618 -2.126315,-2.58618 -0.983881,0 -2.142735,-0.57469 -3.090328,-1.53257 l -1.516148,-1.5326 0.470181,3.27236 c 0.258597,1.79982 0.577463,3.58978 0.70858,3.9777 0.13118,0.38792 0.04023,0.70532 -0.202119,0.70532 -0.582905,0 -1.935922,-9.60496 -1.907641,-13.54207 0.01418,-2.10318 0.35915,-3.64053 1.067434,-4.76997 l 1.045136,-1.66659 -2.271949,1.34728 c -2.424991,1.43802 -4.411178,4.79792 -4.411178,7.46211 0,0.79874 0.375178,3.53898 0.833715,6.0894 0.923322,5.13557 0.698117,6.90405 -0.274604,2.15646 z m 11.454943,-3.90611 c 2.396858,-2.22043 2.559711,-3.4956 0.333158,-2.60886 -1.365686,0.54388 -1.791075,0.43193 -3.458838,-0.91022 -1.216925,-0.97934 -2.1344,-2.35003 -2.54805,-3.80671 -0.51519,-1.81432 -0.745003,-2.09034 -1.132333,-1.36007 -0.267288,0.50393 -0.323784,2.16056 -0.12552,3.68142 0.294273,2.25751 0.744745,3.1315 2.453593,4.76043 1.15124,1.09737 2.204422,1.99522 2.340413,1.99522 0.136029,0 1.097895,-0.78804 2.137596,-1.75121 z m 1.178542,-3.55542 c 3.690992,-1.93236 6.505941,-3.15716 7.256006,-3.15716 0.446507,0 1.142119,-0.42021 1.545794,-0.93378 0.403685,-0.51358 1.516091,-1.27874 2.472013,-1.70033 2.644481,-1.16633 2.209633,-2.09331 -0.802185,-1.71006 -1.651957,0.21028 -2.166219,0.15227 -1.470654,-0.1657 2.024672,-0.92572 4.381572,-0.56439 7.267852,1.11421 2.538469,1.47631 5.299596,2.22279 5.299596,1.43277 0,-0.60942 -6.05216,-6.50084 -6.678176,-6.50084 -0.372819,0 -0.96407,-0.36388 -1.313905,-0.80862 -0.50561,-0.64279 -0.40938,-1.04779 0.46929,-1.97488 1.149719,-1.21307 2.17493,-1.52786 2.17493,-0.66782 0,0.27414 -0.481297,0.63125 -1.069558,0.79356 -1.319138,0.36397 -1.39467,1.44409 -0.133804,1.91182 0.514726,0.19087 1.583313,0.97767 2.374605,1.74833 2.049006,1.99557 3.347992,1.35798 2.924747,-1.43558 -0.234807,-1.54979 -0.923724,-2.66029 -2.608665,-4.20506 -2.671912,-2.4496 -2.904232,-2.51665 -3.368833,-0.97215 -0.192016,0.63836 -1.110686,1.53936 -2.041485,2.00229 -1.461837,0.727 -2.129393,0.73803 -4.901046,0.081 -2.751162,-0.65222 -3.323114,-1.01288 -4.010897,-2.52934 -0.441197,-0.97275 -1.283485,-1.90888 -1.871746,-2.08026 -1.720009,-0.50111 -5.615228,-0.3732 -5.615228,0.18448 0,0.28129 -0.437961,0.39058 -0.973243,0.2429 -0.535267,-0.14779 -1.283002,0.12518 -1.661616,0.60664 -0.565886,0.71942 -0.522191,1.40422 0.245576,3.84794 0.513701,1.63502 1.023552,3.31855 1.133002,3.74117 0.131588,0.5083 0.745693,0.68375 1.814017,0.5183 1.072265,-0.16612 1.436004,-0.0612 1.082392,0.31188 -0.292939,0.30905 -1.00237,0.59845 -1.57654,0.64308 -1.441244,0.11197 -2.737519,1.35436 -2.737519,2.62356 0,1.31053 0.427974,1.33632 1.718957,0.10365 0.941637,-0.89913 0.980038,-0.89819 0.647666,0.015 -0.194241,0.5343 -0.809365,1.229 -1.366781,1.54375 -0.813646,0.45945 -0.902157,0.79167 -0.448937,1.68516 0.543792,1.07209 0.612112,1.07639 1.861741,0.1173 0.713473,-0.54755 1.304809,-1.30401 1.314041,-1.68101 0.01618,-0.67855 2.15595,-2.21388 2.15595,-1.54727 0,0.19044 -1.0132,1.34295 -2.251534,2.5613 -2.097815,2.06397 -2.190935,2.27917 -1.363803,3.15187 0.626053,0.66055 1.0927,0.76885 1.583052,0.36738 0.382416,-0.31308 1.176619,-0.73033 1.764901,-0.92721 0.937264,-0.3137 0.920729,-0.24623 -0.133606,0.54548 -2.260912,1.69758 -1.341007,2.48101 1.293633,1.1017 z m 4.535422,-5.00359 c -0.05699,-1.11195 0.53846,-2.27236 2.059012,-4.01287 1.176542,-1.3467 2.139149,-2.73757 2.139149,-3.09079 0,-0.3532 0.249121,-0.64222 0.553599,-0.64222 0.826121,0 -0.374919,2.10611 -2.448946,4.29442 -0.975325,1.02907 -1.874435,2.5786 -1.998009,3.44339 l -0.224664,1.57238 z m 2.297618,-1.58824 c -0.197677,-0.33738 -0.143101,-0.84159 0.121274,-1.12045 0.284208,-0.29987 0.480552,-0.0493 0.480552,0.61342 0,1.2821 -0.09883,1.36546 -0.601787,0.50703 z m -11.112559,-5.40529 c -0.19606,-0.20687 -0.356527,-1.08059 -0.356527,-1.94159 0,-0.86098 -0.24065,-1.72234 -0.534782,-1.91413 -0.294131,-0.19172 -0.534774,-0.86873 -0.534774,-1.50432 0,-0.82191 0.244248,-1.05666 0.845905,-0.81308 0.465268,0.18832 0.946561,0.3425 1.069576,0.3425 0.123096,0 0.223649,0.28503 0.223649,0.63334 0,0.43759 -0.24794,0.41624 -0.802165,-0.0691 -0.654881,-0.57346 -0.802191,-0.54044 -0.802191,0.17978 0,0.48519 0.24065,1.03909 0.534782,1.2309 0.29415,0.19172 0.5348,0.96852 0.5348,1.72605 0,0.8713 0.306314,1.37732 0.833733,1.37732 0.458559,0 0.685001,0.25393 0.503232,0.56427 -0.381714,0.65162 -1.00284,0.72871 -1.515238,0.1881 z m 8.734822,-1.53467 c 0,-0.11985 0.721963,-0.3299 1.604357,-0.46653 0.882385,-0.1367 1.604348,-0.0386 1.604348,0.21808 0,0.2566 -0.721963,0.46653 -1.604348,0.46653 -0.882394,0 -1.604357,-0.0981 -1.604357,-0.21808 z m 8.840309,-3.36332 c 1.074973,-1.61928 0.985634,-2.9788 -0.283761,-4.31815 -1.547458,-1.6327 -4.038224,-1.47531 -5.156773,0.32587 -2.363432,3.80579 2.967477,7.71764 5.440534,3.99228 z m -3.492466,-0.34245 c 0,-0.55512 2.071377,-1.41401 2.449087,-1.01547 0.126123,0.13308 -0.373281,0.53171 -1.109859,0.8858 -0.736578,0.35411 -1.339228,0.41245 -1.339228,0.12967 z m -0.07438,-2.81927 c 0.694379,-0.63603 1.476496,-1.15643 1.738039,-1.15643 0.934925,0 0.447766,0.54949 -1.262501,1.42405 l -1.738038,0.88879 z m -2.968784,1.95791 c -0.203704,-1.32444 -0.01418,-2.42689 0.580739,-3.38552 0.846312,-1.36282 0.836649,-1.42157 -0.234262,-1.42157 -1.844129,0 -3.077834,1.01774 -3.460192,2.85447 -0.407759,1.95891 0.823213,3.91656 2.462716,3.91656 0.789536,0 0.901249,-0.33697 0.650999,-1.96394 z m -3.374185,-3.07403 c 0,-2.04999 3.944233,-2.91579 8.021775,-1.76085 1.281965,0.3631 2.790735,0.30607 4.78826,-0.18106 3.084786,-0.75215 3.01372,-1.37931 -0.183527,-1.62059 -1.950391,-0.14715 -2.486806,-0.65356 -1.262262,-1.19155 1.082149,-0.47547 -1.172377,-2.04795 -3.043531,-2.12282 -0.899734,-0.036 -1.2147,-0.18149 -0.699955,-0.3235 0.514726,-0.14203 0.935873,-0.62658 0.935873,-1.07701 0,-0.96677 -2.515893,-2.10427 -3.643984,-1.64755 -0.639738,0.25903 -0.663164,0.16251 -0.126126,-0.52025 0.541975,-0.68902 0.388765,-1.1069 -0.860237,-2.3464 -4.560834,-4.52608 -12.598995,-4.87523 -15.391594,-0.66855 -1.173005,1.76699 -1.04967,6.32205 0.284022,10.48892 l 1.118673,3.49508 h 5.031355 c 2.767251,0 5.031363,-0.23578 5.031363,-0.52395 z m -0.298866,-4.29015 c 0.57094,-0.45563 1.413229,-0.82685 1.871746,-0.82495 0.4585,0.002 0.144314,0.38278 -0.698136,0.84639 -1.939152,1.06707 -2.524197,1.05638 -1.17361,-0.0213 z m -0.359737,-3.18048 c 0.310764,-0.32789 0.880691,-0.48515 1.266504,-0.34945 0.400531,0.14075 0.158064,0.39664 -0.565034,0.59617 -0.889524,0.24542 -1.09832,0.17189 -0.70147,-0.24672 z m 16.702145,11.70194 c 0,-0.15526 0.481317,-0.55392 1.069576,-0.8861 0.588261,-0.33218 1.069577,-0.477 1.069577,-0.32183 0,0.15525 -0.481316,0.55392 -1.069577,0.88609 -0.588259,0.33218 -1.069576,0.47701 -1.069576,0.32184 z m -0.833659,-2.87891 c 0.570958,-0.45566 1.278754,-0.82844 1.572884,-0.82844 0.294131,0 0.06771,0.37278 -0.503307,0.82844 -0.570958,0.45562 -1.278734,0.82843 -1.572865,0.82843 -0.294129,0 -0.06771,-0.37281 0.503288,-0.82843 z"
       id="path58-4"
       inkscape:export-filename="C:\Users\gabri\OneDrive\Escritorio\TP-2 material\fichas\profesor\green.png"
       inkscape:export-xdpi="96"
       inkscape:export-ydpi="96" />
    <path
       style="fill:#000000;stroke:#000000;stroke-width:0.673008;stroke-miterlimit:4;stroke-dasharray:none;stroke-opacity:1"
       d="m 124.58653,248.95994 c -0.33822,-1.65071 -0.7575,-4.58825 -0.93175,-6.52785 -0.17423,-1.93963 -0.40712,-3.5266 -0.5175,-3.5266 -0.44867,0 -4.24855,2.72239 -4.81528,3.44984 -0.33508,0.43015 -0.97658,2.05164 -1.42556,3.60334 -0.54157,1.87173 -0.82489,2.3465 -0.8418,1.41062 -0.0534,-2.95006 1.85739,-6.04369 4.84453,-7.84372 1.56072,-0.94048 3.4464,-2.67081 4.19047,-3.84522 0.76369,-1.20543 2.33223,-2.62667 3.60199,-3.26374 2.58118,-1.29507 2.9199,-2.79545 1.39351,-6.17271 -0.71956,-1.5921 -0.77408,-2.25784 -0.27886,-3.40465 0.7556,-1.74972 0.30074,-1.81756 -1.33241,-0.19876 -0.68078,0.67478 -1.23775,1.04351 -1.23775,0.81944 0,-0.2241 0.58188,-0.97642 1.29307,-1.67182 l 1.29304,-1.2644 -1.00819,-3.08162 c -1.09116,-3.33514 -1.36474,-9.01066 -0.51511,-10.68569 1.69632,-3.34426 8.66315,-4.55596 13.07385,-2.2739 1.19586,0.61874 4.5702,3.53875 7.49857,6.48891 2.92837,2.95017 5.50469,5.36394 5.72519,5.36394 0.41027,0 3.92535,2.33058 5.12777,3.39982 0.36766,0.32693 0.65322,1.02878 0.63458,1.55965 -0.0251,0.71063 -0.1619,0.62914 -0.51917,-0.30898 -0.64524,-1.69422 -2.73384,-2.69101 -4.06434,-1.93971 -0.55507,0.31343 -1.64025,0.4426 -2.41151,0.28705 -1.6276,-0.32827 -2.13386,0.25973 -1.70688,1.98251 0.37731,1.5223 1.24881,1.6139 1.24881,0.13116 0,-0.60238 0.22639,-1.24284 0.5031,-1.42328 0.29411,-0.19172 0.39163,0.439 0.23477,1.51839 -0.23742,1.63362 -0.0435,2.00513 1.68316,3.22285 2.17129,1.53138 3.21615,1.25775 4.38959,-1.14965 0.64251,-1.31815 0.66081,-1.32162 0.66847,-0.12668 0.004,0.67574 -0.57612,1.71332 -1.28992,2.30574 -1.10025,0.91316 -1.25431,1.41936 -1.01201,3.32542 0.20623,1.6223 0.0465,2.5008 -0.57358,3.15509 -0.78936,0.83282 -0.75045,0.99716 0.47721,2.01606 3.37277,2.79919 0.15665,3.97057 -4.19645,1.52844 l -2.48365,-1.39334 -2.39507,1.70549 c -1.31731,0.93803 -2.53591,1.9459 -2.70802,2.23973 -0.17201,0.29383 -0.74217,0.53422 -1.26683,0.53422 -0.52464,0 -1.98866,0.57736 -3.2534,1.28302 l -2.29951,1.28302 -0.0182,5.06484 c -0.0182,4.71626 -0.0326,4.78329 -0.21362,0.97398 -0.10692,-2.24997 -0.32625,-4.09083 -0.48732,-4.09083 -0.1611,0 -0.75059,0.5713 -1.31001,1.26956 -0.8117,1.01318 -0.96892,1.89631 -0.77841,4.37296 l 0.2387,3.10339 -0.55214,-2.58615 c -0.50265,-2.3544 -0.6932,-2.58617 -2.12631,-2.58617 -0.98388,0 -2.14274,-0.5747 -3.09033,-1.53258 l -1.51615,-1.5326 0.47018,3.27236 c 0.2586,1.79982 0.57747,3.58978 0.70858,3.9777 0.13118,0.38792 0.0402,0.70532 -0.20212,0.70532 -0.5829,0 -1.93592,-9.60496 -1.90764,-13.54207 0.0142,-2.10318 0.35915,-3.64053 1.06744,-4.76997 l 1.04513,-1.66659 -2.27195,1.34728 c -2.42499,1.43802 -4.41117,4.79792 -4.41117,7.46211 0,0.79874 0.37517,3.53898 0.83371,6.0894 0.92332,5.13557 0.69812,6.90405 -0.2746,2.15646 z m 11.45494,-3.90611 c 2.39686,-2.22043 2.55971,-3.4956 0.33316,-2.60886 -1.36569,0.54388 -1.79108,0.43193 -3.45884,-0.91022 -1.21692,-0.97934 -2.1344,-2.35003 -2.54805,-3.80671 -0.51519,-1.81432 -0.745,-2.09034 -1.13233,-1.36007 -0.26729,0.50393 -0.32379,2.16056 -0.12552,3.68142 0.29427,2.25751 0.74474,3.1315 2.45359,4.76043 1.15124,1.09737 2.20442,1.99522 2.34041,1.99522 0.13603,0 1.0979,-0.78804 2.1376,-1.75121 z m 1.17854,-3.55542 c 3.69099,-1.93236 6.50594,-3.15715 7.25601,-3.15715 0.44651,0 1.14212,-0.42022 1.54579,-0.93379 0.40369,-0.51358 1.51609,-1.27874 2.47202,-1.70033 2.64448,-1.16633 2.20963,-2.09331 -0.80219,-1.71006 -1.65196,0.21028 -2.16622,0.15227 -1.47065,-0.1657 2.02467,-0.92572 4.38157,-0.56439 7.26785,1.11421 2.53847,1.47631 5.29959,2.22279 5.29959,1.43277 0,-0.60942 -6.05216,-6.50084 -6.67817,-6.50084 -0.37282,0 -0.96407,-0.36388 -1.31391,-0.80862 -0.50561,-0.64279 -0.40938,-1.04779 0.46929,-1.97488 1.14972,-1.21307 2.17493,-1.52786 2.17493,-0.66782 0,0.27414 -0.48129,0.63125 -1.06955,0.79356 -1.31914,0.36397 -1.39467,1.44409 -0.13381,1.91182 0.51473,0.19087 1.58331,0.97767 2.37461,1.74833 2.049,1.99557 3.34799,1.35798 2.92474,-1.43558 -0.2348,-1.54979 -0.92372,-2.66028 -2.60866,-4.20506 -2.67191,-2.4496 -2.90423,-2.51665 -3.36883,-0.97215 -0.19202,0.63836 -1.11069,1.53936 -2.04149,2.00229 -1.46184,0.727 -2.12939,0.73803 -4.90105,0.081 -2.75116,-0.65222 -3.32311,-1.01288 -4.01089,-2.52934 -0.4412,-0.97275 -1.28349,-1.90888 -1.87175,-2.08026 -1.72001,-0.50111 -5.61523,-0.3732 -5.61523,0.18448 0,0.28129 -0.43796,0.39059 -0.97324,0.2429 -0.53527,-0.14779 -1.283,0.12518 -1.66162,0.60664 -0.56588,0.71942 -0.52219,1.40422 0.24558,3.84794 0.5137,1.63502 1.02355,3.31855 1.133,3.74117 0.13159,0.5083 0.7457,0.68376 1.81402,0.5183 1.07226,-0.16612 1.436,-0.0612 1.08239,0.31188 -0.29294,0.30906 -1.00237,0.59845 -1.57654,0.64308 -1.44124,0.11197 -2.73752,1.35436 -2.73752,2.62356 0,1.31054 0.42798,1.33632 1.71896,0.10365 0.94164,-0.89913 0.98004,-0.89819 0.64767,0.015 -0.19425,0.5343 -0.80937,1.229 -1.36679,1.54375 -0.81364,0.45945 -0.90215,0.79167 -0.44893,1.68516 0.54379,1.07209 0.61211,1.07639 1.86174,0.1173 0.71347,-0.54755 1.30481,-1.30401 1.31404,-1.68101 0.0162,-0.67855 2.15595,-2.21388 2.15595,-1.54727 0,0.19044 -1.0132,1.34295 -2.25153,2.5613 -2.09782,2.06397 -2.19094,2.27917 -1.36381,3.15187 0.62606,0.66055 1.0927,0.76885 1.58305,0.36738 0.38242,-0.31308 1.17662,-0.73033 1.76491,-0.92721 0.93726,-0.3137 0.92072,-0.24623 -0.13361,0.54548 -2.26091,1.69758 -1.34101,2.48101 1.29363,1.10171 z m 4.53542,-5.00359 c -0.057,-1.11195 0.53846,-2.27236 2.05902,-4.01287 1.17654,-1.3467 2.13915,-2.73757 2.13915,-3.09079 0,-0.3532 0.24912,-0.64222 0.5536,-0.64222 0.82612,0 -0.37492,2.10611 -2.44895,4.29442 -0.97533,1.02907 -1.87444,2.5786 -1.99801,3.44339 l -0.22466,1.57238 z m 2.29762,-1.58824 c -0.19767,-0.33738 -0.1431,-0.84159 0.12128,-1.12045 0.2842,-0.29987 0.48055,-0.0493 0.48055,0.61342 0,1.2821 -0.0988,1.36546 -0.60179,0.50703 z m -11.11256,-5.40529 c -0.19606,-0.20687 -0.35652,-1.08059 -0.35652,-1.94159 0,-0.86098 -0.24065,-1.72234 -0.53479,-1.91413 -0.29413,-0.19172 -0.53477,-0.86873 -0.53477,-1.50432 0,-0.82191 0.24425,-1.05666 0.84591,-0.81308 0.46526,0.18832 0.94656,0.3425 1.06957,0.3425 0.1231,0 0.22365,0.28503 0.22365,0.63334 0,0.43759 -0.24794,0.41624 -0.80216,-0.0691 -0.65489,-0.57346 -0.8022,-0.54044 -0.8022,0.17978 0,0.48519 0.24065,1.03909 0.53479,1.2309 0.29415,0.19172 0.5348,0.96852 0.5348,1.72605 0,0.8713 0.30631,1.37732 0.83373,1.37732 0.45856,0 0.685,0.25393 0.50323,0.56427 -0.38171,0.65162 -1.00284,0.72871 -1.51524,0.1881 z m 8.73483,-1.53467 c 0,-0.11985 0.72196,-0.3299 1.60435,-0.46653 0.88239,-0.1367 1.60435,-0.0386 1.60435,0.21808 0,0.2566 -0.72196,0.46653 -1.60435,0.46653 -0.88239,0 -1.60435,-0.0981 -1.60435,-0.21808 z m 8.8403,-3.36332 c 1.07498,-1.61928 0.98564,-2.9788 -0.28376,-4.31815 -1.54745,-1.6327 -4.03822,-1.47531 -5.15677,0.32587 -2.36343,3.80579 2.96748,7.71764 5.44053,3.99228 z m -3.49246,-0.34245 c 0,-0.55512 2.07138,-1.41401 2.44909,-1.01547 0.12612,0.13308 -0.37329,0.53171 -1.10986,0.8858 -0.73658,0.35411 -1.33923,0.41245 -1.33923,0.12967 z m -0.0744,-2.81927 c 0.69438,-0.63603 1.47649,-1.15643 1.73804,-1.15643 0.93492,0 0.44776,0.54949 -1.2625,1.42405 l -1.73804,0.88879 z m -2.96878,1.95791 c -0.20371,-1.32444 -0.0142,-2.42689 0.58073,-3.38552 0.84632,-1.36282 0.83665,-1.42157 -0.23426,-1.42157 -1.84413,0 -3.07783,1.01774 -3.46019,2.85447 -0.40776,1.95891 0.82321,3.91656 2.46272,3.91656 0.78953,0 0.90125,-0.33697 0.651,-1.96394 z m -3.37419,-3.07403 c 0,-2.04999 3.94423,-2.91579 8.02177,-1.76085 1.28197,0.3631 2.79074,0.30607 4.78826,-0.18106 3.08479,-0.75215 3.01373,-1.37931 -0.18352,-1.62059 -1.95039,-0.14715 -2.48681,-0.65356 -1.26226,-1.19155 1.08214,-0.47547 -1.17238,-2.04795 -3.04354,-2.12282 -0.89973,-0.036 -1.2147,-0.18149 -0.69995,-0.3235 0.51473,-0.14203 0.93587,-0.62658 0.93587,-1.07701 0,-0.96677 -2.51589,-2.10427 -3.64398,-1.64755 -0.63974,0.25903 -0.66317,0.16251 -0.12613,-0.52025 0.54198,-0.68902 0.38877,-1.1069 -0.86023,-2.3464 -4.56084,-4.52608 -12.599,-4.87523 -15.3916,-0.66855 -1.173,1.76699 -1.04967,6.32205 0.28402,10.48892 l 1.11868,3.49508 h 5.03135 c 2.76725,0 5.03136,-0.23578 5.03136,-0.52395 z m -0.29887,-4.29015 c 0.57094,-0.45563 1.41323,-0.82685 1.87175,-0.82495 0.4585,0.002 0.14431,0.38278 -0.69814,0.84639 -1.93915,1.06707 -2.52419,1.05638 -1.17361,-0.0213 z m -0.35973,-3.18048 c 0.31076,-0.32789 0.88069,-0.48515 1.2665,-0.34945 0.40053,0.14075 0.15806,0.39664 -0.56503,0.59617 -0.88953,0.24542 -1.09832,0.17189 -0.70147,-0.24672 z m 16.70214,11.70194 c 0,-0.15526 0.48132,-0.55392 1.06958,-0.8861 0.58826,-0.33218 1.06957,-0.477 1.06957,-0.32183 0,0.15525 -0.48131,0.55392 -1.06957,0.88609 -0.58826,0.33218 -1.06958,0.47701 -1.06958,0.32184 z m -0.83366,-2.87891 c 0.57096,-0.45566 1.27876,-0.82844 1.57289,-0.82844 0.29413,0 0.0677,0.37278 -0.50331,0.82844 -0.57096,0.45562 -1.27873,0.82843 -1.57287,0.82843 -0.29412,0 -0.0677,-0.37281 0.50329,-0.82843 z"
       id="path58-9"
       inkscape:export-filename="C:\Users\gabri\OneDrive\Escritorio\TP-2 material\fichas\profesor\orange.png"
       inkscape:export-xdpi="96"
       inkscape:export-ydpi="96" />
    <ellipse
       style="fill:#ffffff;fill-opacity:1;stroke:#000000;stroke-width:2.117;stroke-miterlimit:4;stroke-dasharray:none;stroke-opacity:1"
       id="path1146-2-6-8-9-4-5"
       cx="220.46538"
       cy="225.03461"
       rx="35.125999"
       ry="35.125961"
       inkscape:export-filename="C:\xampp\htdocs\proyectos\InterfacesTP2\img\info\profesor.png"
       inkscape:export-xdpi="21.058744"
       inkscape:export-ydpi="21.058744" />
    <rect
       style="fill:#ffffff;fill-opacity:1;stroke:#000000;stroke-width:2.93719;stroke-miterlimit:4;stroke-dasharray:none;stroke-opacity:1"
       id="rect3153-3-4-8-1-3-6"
       width="7.7175426"
       height="66.903358"
       x="216.6066"
       y="191.61862"
       inkscape:export-filename="C:\xampp\htdocs\proyectos\InterfacesTP2\img\info\profesor.png"
       inkscape:export-xdpi="21.058744"
       inkscape:export-ydpi="21.058744" />
    <rect
       style="fill:#ffffff;fill-opacity:1;stroke:#000000;stroke-width:2.93719;stroke-miterlimit:4;stroke-dasharray:none;stroke-opacity:0.976744"
       id="rect3153-2-6-2-8-0-9-1"
       width="7.7175426"
       height="66.903358"
       x="220.91675"
       y="-254.18121"
       transform="rotate(90.067296)"
       inkscape:export-filename="C:\xampp\htdocs\proyectos\InterfacesTP2\img\info\profesor.png"
       inkscape:export-xdpi="21.058744"
       inkscape:export-ydpi="21.058744" />
    <rect
       style="fill:#ffffff;fill-opacity:1;stroke:#000000;stroke-width:2.93719;stroke-miterlimit:4;stroke-dasharray:none;stroke-opacity:1"
       id="rect3153-2-5-7-3-6-2-6-2"
       width="7.7175426"
       height="66.903358"
       x="310.18842"
       y="-40.64695"
       transform="rotate(46.864654)"
       inkscape:export-filename="C:\xampp\htdocs\proyectos\InterfacesTP2\img\info\profesor.png"
       inkscape:export-xdpi="21.058744"
       inkscape:export-ydpi="21.058744" />
    <rect
       style="fill:#ffffff;fill-opacity:1;stroke:#000000;stroke-width:2.93719;stroke-miterlimit:4;stroke-dasharray:none;stroke-opacity:1"
       id="rect3153-2-5-8-9-9-1-5-1-9"
       width="7.7175426"
       height="66.903358"
       x="3.7755179"
       y="-348.5881"
       transform="rotate(134.08941)"
       inkscape:export-filename="C:\xampp\htdocs\proyectos\InterfacesTP2\img\info\profesor.png"
       inkscape:export-xdpi="21.058744"
       inkscape:export-ydpi="21.058744" />
    <circle
       style="fill:#ffffff;fill-opacity:1;stroke:#000000;stroke-width:2.373;stroke-miterlimit:4;stroke-dasharray:none;stroke-opacity:1"
       id="path1146-72-7-0-1-5-6-9"
       cx="220.46538"
       cy="225.03461"
       r="26.916365"
       inkscape:export-filename="C:\xampp\htdocs\proyectos\InterfacesTP2\img\info\profesor.png"
       inkscape:export-xdpi="21.058744"
       inkscape:export-ydpi="21.058744" />
    <path
       style="fill:#000000;stroke:#000000;stroke-width:0.673008;stroke-miterlimit:4;stroke-dasharray:none;stroke-opacity:1;fill-opacity:1"
       d="m 206.98687,247.02143 c -0.33822,-1.65071 -0.7575,-4.58825 -0.93175,-6.52785 -0.17423,-1.93963 -0.40712,-3.5266 -0.5175,-3.5266 -0.44867,0 -4.24855,2.72239 -4.81528,3.44984 -0.33508,0.43015 -0.97658,2.05164 -1.42556,3.60334 -0.54157,1.87173 -0.82489,2.3465 -0.8418,1.41062 -0.0534,-2.95006 1.85739,-6.04369 4.84453,-7.84372 1.56072,-0.94048 3.4464,-2.67081 4.19047,-3.84522 0.76369,-1.20543 2.33223,-2.62667 3.60199,-3.26374 2.58118,-1.29507 2.9199,-2.79545 1.39351,-6.17271 -0.71956,-1.5921 -0.77408,-2.25784 -0.27886,-3.40465 0.7556,-1.74972 0.30074,-1.81756 -1.33241,-0.19876 -0.68078,0.67478 -1.23775,1.04351 -1.23775,0.81944 0,-0.2241 0.58188,-0.97642 1.29307,-1.67182 l 1.29304,-1.2644 -1.00819,-3.08162 c -1.09116,-3.33514 -1.36474,-9.01066 -0.51511,-10.68569 1.69632,-3.34426 8.66315,-4.55596 13.07385,-2.2739 1.19586,0.61874 4.5702,3.53875 7.49857,6.48891 2.92837,2.95017 5.50469,5.36394 5.72519,5.36394 0.41027,0 3.92535,2.33058 5.12777,3.39982 0.36766,0.32693 0.65322,1.02878 0.63458,1.55965 -0.0251,0.71063 -0.1619,0.62914 -0.51917,-0.30898 -0.64524,-1.69422 -2.73384,-2.69101 -4.06434,-1.93971 -0.55507,0.31343 -1.64025,0.4426 -2.41151,0.28705 -1.6276,-0.32827 -2.13386,0.25973 -1.70688,1.98251 0.37731,1.5223 1.24881,1.6139 1.24881,0.13116 0,-0.60238 0.22639,-1.24284 0.5031,-1.42328 0.29411,-0.19172 0.39163,0.439 0.23477,1.51839 -0.23742,1.63362 -0.0435,2.00513 1.68316,3.22285 2.17129,1.53138 3.21615,1.25775 4.38959,-1.14965 0.64251,-1.31815 0.66081,-1.32162 0.66847,-0.12668 0.004,0.67574 -0.57612,1.71332 -1.28992,2.30574 -1.10025,0.91316 -1.25431,1.41936 -1.01201,3.32542 0.20623,1.6223 0.0465,2.5008 -0.57358,3.15509 -0.78936,0.83282 -0.75045,0.99716 0.47721,2.01606 3.37277,2.79919 0.15665,3.97057 -4.19645,1.52844 l -2.48365,-1.39334 -2.39507,1.70549 c -1.31731,0.93803 -2.53591,1.9459 -2.70802,2.23973 -0.17201,0.29383 -0.74217,0.53422 -1.26683,0.53422 -0.52464,0 -1.98866,0.57736 -3.2534,1.28302 l -2.29951,1.28302 -0.0182,5.06484 c -0.0182,4.71626 -0.0326,4.78329 -0.21362,0.97398 -0.10692,-2.24997 -0.32625,-4.09083 -0.48732,-4.09083 -0.1611,0 -0.75059,0.5713 -1.31001,1.26956 -0.8117,1.01318 -0.96892,1.89631 -0.77841,4.37296 l 0.2387,3.10339 -0.55214,-2.58615 c -0.50265,-2.3544 -0.6932,-2.58617 -2.12631,-2.58617 -0.98388,0 -2.14274,-0.5747 -3.09033,-1.53258 l -1.51615,-1.5326 0.47018,3.27236 c 0.2586,1.79982 0.57747,3.58978 0.70858,3.9777 0.13118,0.38792 0.0402,0.70532 -0.20212,0.70532 -0.5829,0 -1.93592,-9.60496 -1.90764,-13.54207 0.0142,-2.10318 0.35915,-3.64053 1.06744,-4.76997 l 1.04513,-1.66659 -2.27195,1.34728 c -2.42499,1.43802 -4.41117,4.79792 -4.41117,7.46211 0,0.79874 0.37517,3.53898 0.83371,6.0894 0.92332,5.13557 0.69812,6.90405 -0.2746,2.15646 z m 11.45494,-3.90611 c 2.39686,-2.22043 2.55971,-3.4956 0.33316,-2.60886 -1.36569,0.54388 -1.79108,0.43193 -3.45884,-0.91022 -1.21692,-0.97934 -2.1344,-2.35003 -2.54805,-3.80671 -0.51519,-1.81432 -0.745,-2.09034 -1.13233,-1.36007 -0.26729,0.50393 -0.32379,2.16056 -0.12552,3.68142 0.29427,2.25751 0.74474,3.1315 2.45359,4.76043 1.15124,1.09737 2.20442,1.99522 2.34041,1.99522 0.13603,0 1.0979,-0.78804 2.1376,-1.75121 z m 1.17854,-3.55542 c 3.69099,-1.93236 6.50594,-3.15715 7.25601,-3.15715 0.44651,0 1.14212,-0.42022 1.54579,-0.93379 0.40369,-0.51358 1.51609,-1.27874 2.47202,-1.70033 2.64448,-1.16633 2.20963,-2.09331 -0.80219,-1.71006 -1.65196,0.21028 -2.16622,0.15227 -1.47065,-0.1657 2.02467,-0.92572 4.38157,-0.56439 7.26785,1.11421 2.53847,1.47631 5.29959,2.22279 5.29959,1.43277 0,-0.60942 -6.05216,-6.50084 -6.67817,-6.50084 -0.37282,0 -0.96407,-0.36388 -1.31391,-0.80862 -0.50561,-0.64279 -0.40938,-1.04779 0.46929,-1.97488 1.14972,-1.21307 2.17493,-1.52786 2.17493,-0.66782 0,0.27414 -0.48129,0.63125 -1.06955,0.79356 -1.31914,0.36397 -1.39467,1.44409 -0.13381,1.91182 0.51473,0.19087 1.58331,0.97767 2.37461,1.74833 2.049,1.99557 3.34799,1.35798 2.92474,-1.43558 -0.2348,-1.54979 -0.92372,-2.66028 -2.60866,-4.20506 -2.67191,-2.4496 -2.90423,-2.51665 -3.36883,-0.97215 -0.19202,0.63836 -1.11069,1.53936 -2.04149,2.00229 -1.46184,0.727 -2.12939,0.73803 -4.90105,0.081 -2.75116,-0.65222 -3.32311,-1.01288 -4.01089,-2.52934 -0.4412,-0.97275 -1.28349,-1.90888 -1.87175,-2.08026 -1.72001,-0.50111 -5.61523,-0.3732 -5.61523,0.18448 0,0.28129 -0.43796,0.39059 -0.97324,0.2429 -0.53527,-0.14779 -1.283,0.12518 -1.66162,0.60664 -0.56588,0.71942 -0.52219,1.40422 0.24558,3.84794 0.5137,1.63502 1.02355,3.31855 1.133,3.74117 0.13159,0.5083 0.7457,0.68376 1.81402,0.5183 1.07226,-0.16612 1.436,-0.0612 1.08239,0.31188 -0.29294,0.30906 -1.00237,0.59845 -1.57654,0.64308 -1.44124,0.11197 -2.73752,1.35436 -2.73752,2.62356 0,1.31054 0.42798,1.33632 1.71896,0.10365 0.94164,-0.89913 0.98004,-0.89819 0.64767,0.015 -0.19425,0.5343 -0.80937,1.229 -1.36679,1.54375 -0.81364,0.45945 -0.90215,0.79167 -0.44893,1.68516 0.54379,1.07209 0.61211,1.07639 1.86174,0.1173 0.71347,-0.54755 1.30481,-1.30401 1.31404,-1.68101 0.0162,-0.67855 2.15595,-2.21388 2.15595,-1.54727 0,0.19044 -1.0132,1.34295 -2.25153,2.5613 -2.09782,2.06397 -2.19094,2.27917 -1.36381,3.15187 0.62606,0.66055 1.0927,0.76885 1.58305,0.36738 0.38242,-0.31308 1.17662,-0.73033 1.76491,-0.92721 0.93726,-0.3137 0.92072,-0.24623 -0.13361,0.54548 -2.26091,1.69758 -1.34101,2.48101 1.29363,1.10171 z m 4.53542,-5.00359 c -0.057,-1.11195 0.53846,-2.27236 2.05902,-4.01287 1.17654,-1.3467 2.13915,-2.73757 2.13915,-3.09079 0,-0.3532 0.24912,-0.64222 0.5536,-0.64222 0.82612,0 -0.37492,2.10611 -2.44895,4.29442 -0.97533,1.02907 -1.87444,2.5786 -1.99801,3.44339 l -0.22466,1.57238 z m 2.29762,-1.58824 c -0.19767,-0.33738 -0.1431,-0.84159 0.12128,-1.12045 0.2842,-0.29987 0.48055,-0.0493 0.48055,0.61342 0,1.2821 -0.0988,1.36546 -0.60179,0.50703 z m -11.11256,-5.40529 c -0.19606,-0.20687 -0.35652,-1.08059 -0.35652,-1.94159 0,-0.86098 -0.24065,-1.72234 -0.53479,-1.91413 -0.29413,-0.19172 -0.53477,-0.86873 -0.53477,-1.50432 0,-0.82191 0.24425,-1.05666 0.84591,-0.81308 0.46526,0.18832 0.94656,0.3425 1.06957,0.3425 0.1231,0 0.22365,0.28503 0.22365,0.63334 0,0.43759 -0.24794,0.41624 -0.80216,-0.0691 -0.65489,-0.57346 -0.8022,-0.54044 -0.8022,0.17978 0,0.48519 0.24065,1.03909 0.53479,1.2309 0.29415,0.19172 0.5348,0.96852 0.5348,1.72605 0,0.8713 0.30631,1.37732 0.83373,1.37732 0.45856,0 0.685,0.25393 0.50323,0.56427 -0.38171,0.65162 -1.00284,0.72871 -1.51524,0.1881 z m 8.73483,-1.53467 c 0,-0.11985 0.72196,-0.3299 1.60435,-0.46653 0.88239,-0.1367 1.60435,-0.0386 1.60435,0.21808 0,0.2566 -0.72196,0.46653 -1.60435,0.46653 -0.88239,0 -1.60435,-0.0981 -1.60435,-0.21808 z m 8.8403,-3.36332 c 1.07498,-1.61928 0.98564,-2.9788 -0.28376,-4.31815 -1.54745,-1.6327 -4.03822,-1.47531 -5.15677,0.32587 -2.36343,3.80579 2.96748,7.71764 5.44053,3.99228 z m -3.49246,-0.34245 c 0,-0.55512 2.07138,-1.41401 2.44909,-1.01547 0.12612,0.13308 -0.37329,0.53171 -1.10986,0.8858 -0.73658,0.35411 -1.33923,0.41245 -1.33923,0.12967 z m -0.0744,-2.81927 c 0.69438,-0.63603 1.47649,-1.15643 1.73804,-1.15643 0.93492,0 0.44776,0.54949 -1.2625,1.42405 l -1.73804,0.88879 z m -2.96878,1.95791 c -0.20371,-1.32444 -0.0142,-2.42689 0.58073,-3.38552 0.84632,-1.36282 0.83665,-1.42157 -0.23426,-1.42157 -1.84413,0 -3.07783,1.01774 -3.46019,2.85447 -0.40776,1.95891 0.82321,3.91656 2.46272,3.91656 0.78953,0 0.90125,-0.33697 0.651,-1.96394 z m -3.37419,-3.07403 c 0,-2.04999 3.94423,-2.91579 8.02177,-1.76085 1.28197,0.3631 2.79074,0.30607 4.78826,-0.18106 3.08479,-0.75215 3.01373,-1.37931 -0.18352,-1.62059 -1.95039,-0.14715 -2.48681,-0.65356 -1.26226,-1.19155 1.08214,-0.47547 -1.17238,-2.04795 -3.04354,-2.12282 -0.89973,-0.036 -1.2147,-0.18149 -0.69995,-0.3235 0.51473,-0.14203 0.93587,-0.62658 0.93587,-1.07701 0,-0.96677 -2.51589,-2.10427 -3.64398,-1.64755 -0.63974,0.25903 -0.66317,0.16251 -0.12613,-0.52025 0.54198,-0.68902 0.38877,-1.1069 -0.86023,-2.3464 -4.56084,-4.52608 -12.599,-4.87523 -15.3916,-0.66855 -1.173,1.76699 -1.04967,6.32205 0.28402,10.48892 l 1.11868,3.49508 h 5.03135 c 2.76725,0 5.03136,-0.23578 5.03136,-0.52395 z m -0.29887,-4.29015 c 0.57094,-0.45563 1.41323,-0.82685 1.87175,-0.82495 0.4585,0.002 0.14431,0.38278 -0.69814,0.84639 -1.93915,1.06707 -2.52419,1.05638 -1.17361,-0.0213 z m -0.35973,-3.18048 c 0.31076,-0.32789 0.88069,-0.48515 1.2665,-0.34945 0.40053,0.14075 0.15806,0.39664 -0.56503,0.59617 -0.88953,0.24542 -1.09832,0.17189 -0.70147,-0.24672 z m 16.70214,11.70194 c 0,-0.15526 0.48132,-0.55392 1.06958,-0.8861 0.58826,-0.33218 1.06957,-0.477 1.06957,-0.32183 0,0.15525 -0.48131,0.55392 -1.06957,0.88609 -0.58826,0.33218 -1.06958,0.47701 -1.06958,0.32184 z m -0.83366,-2.87891 c 0.57096,-0.45566 1.27876,-0.82844 1.57289,-0.82844 0.29413,0 0.0677,0.37278 -0.50331,0.82844 -0.57096,0.45562 -1.27873,0.82843 -1.57287,0.82843 -0.29412,0 -0.0677,-0.37281 0.50329,-0.82843 z"
       id="path58-9-7"
       inkscape:export-filename="C:\xampp\htdocs\proyectos\InterfacesTP2\img\info\profesor.png"
       inkscape:export-xdpi="21.058744"
       inkscape:export-ydpi="21.058744" />
  </g>
</svg>
